<?xml version="1.0" standalone="no"?>
<!DOCTYPE svg PUBLIC "-//W3C//DTD SVG 1.1//EN" "http://www.w3.org/Graphics/SVG/1.1/DTD/svg11.dtd" >
<svg xmlns="http://www.w3.org/2000/svg" xmlns:xlink="http://www.w3.org/1999/xlink" version="1.1">
<metadata>
Created by FontForge 20161003 at Sun Aug 11 10:51:15 2019
 By www-data
Copyright (c) 2016 by Alberto Romanos. All rights reserved.
</metadata>
<defs>
<font id="BwModelicaDEMOBlackCondensed" horiz-adv-x="553" >
  <font-face 
    font-family="BwModelicaDEMOBlackCondensed"
    font-weight="900"
    font-stretch="condensed"
    units-per-em="1000"
    panose-1="0 0 10 6 0 0 0 0 0 0"
    ascent="780"
    descent="-220"
    x-height="549"
    cap-height="740"
    bbox="-117 -230 1273 1020"
    underline-thickness="50"
    underline-position="-150"
    unicode-range="U+000D-FB02"
  />
<missing-glyph horiz-adv-x="1274" 
d="M87 -10q-17 0 -17 18q0 10 5 15l342 341h-324q-23 0 -23 19q0 7 7 16l340 342h-327q-20 0 -20 19v1q0 19 20 19h370q23 0 23 -20q0 -10 -8 -17l-341 -340h330q8 0 14 -6t6 -14v-327l339 338q7 8 17 8q18 0 18 -22v-324l340 338q6 8 16 8q7 0 12 -5.5t5 -13.5q0 -9 -6 -14
l-368 -372q-7 -7 -17 -7q-20 0 -20 23v324l-339 -340q-7 -7 -17 -7q-20 0 -20 23v324l-340 -340q-7 -7 -17 -7z" />
    <glyph glyph-name="fi" unicode="fi" horiz-adv-x="687" 
d="M544 595q-47 0 -78 31t-31 78q0 48 31 79t78 31t77.5 -31t30.5 -79q0 -47 -30.5 -78t-77.5 -31zM102 610q0 81 49 130.5t129 49.5q75 0 120 -22l-12 -148q-18 6 -42 6q-23 0 -37.5 -12.5t-14.5 -33.5v-31h88v-157h-88v-392h-192v392h-74v157h74v61zM447 0v549h192v-549
h-192z" />
    <glyph glyph-name="fl" unicode="fl" horiz-adv-x="687" 
d="M102 610q0 81 49 130.5t129 49.5q75 0 120 -22l-12 -148q-18 6 -42 6q-23 0 -37.5 -12.5t-14.5 -33.5v-31h88v-157h-88v-392h-192v392h-74v157h74v61zM447 780h192v-780h-192v780z" />
    <glyph glyph-name=".notdef" horiz-adv-x="1274" 
d="M87 -10q-17 0 -17 18q0 10 5 15l342 341h-324q-23 0 -23 19q0 7 7 16l340 342h-327q-20 0 -20 19v1q0 19 20 19h370q23 0 23 -20q0 -10 -8 -17l-341 -340h330q8 0 14 -6t6 -14v-327l339 338q7 8 17 8q18 0 18 -22v-324l340 338q6 8 16 8q7 0 12 -5.5t5 -13.5q0 -9 -6 -14
l-368 -372q-7 -7 -17 -7q-20 0 -20 23v324l-339 -340q-7 -7 -17 -7q-20 0 -20 23v324l-340 -340q-7 -7 -17 -7z" />
    <glyph glyph-name=".null" horiz-adv-x="0" 
 />
    <glyph glyph-name="nonmarkingreturn" horiz-adv-x="333" 
 />
    <glyph glyph-name="CR" unicode="&#xd;" horiz-adv-x="173" 
 />
    <glyph glyph-name="space" unicode=" " horiz-adv-x="203" 
 />
    <glyph glyph-name="exclam" unicode="!" horiz-adv-x="295" 
d="M66 263l-18 477h198l-17 -477h-163zM148 -10q-47 0 -78 31t-31 79t31 78.5t78 30.5t77.5 -30.5t30.5 -78.5t-30.5 -79t-77.5 -31z" />
    <glyph glyph-name="quotedbl" unicode="&#x22;" horiz-adv-x="440" 
d="M45 564l-3 216h149l-4 -216h-142zM254 564l-4 216h149l-4 -216h-141z" />
    <glyph glyph-name="numbersign" unicode="#" horiz-adv-x="732" 
d="M677 406h-110l-25 -116h114l-30 -124h-109l-35 -166h-135l35 166h-110l-34 -166h-135l35 166h-111l30 124h106l25 116h-110l28 124h108l35 170h134l-35 -170h110l35 170h135l-35 -170h111zM407 290l25 116h-110l-24 -116h109z" />
    <glyph glyph-name="dollar" unicode="$" horiz-adv-x="616" 
d="M584 224q0 -82 -47.5 -140.5t-130.5 -81.5v-92h-193v92q-92 22 -165 86l72 133q84 -68 174 -68q86 0 86 51q0 25 -24.5 42.5t-74.5 33.5l-30 9q-106 34 -160.5 83t-54.5 135t47.5 147t129.5 84v90h193v-91q80 -21 146 -72l-85 -137q-79 59 -152 59q-35 0 -54.5 -13
t-19.5 -35q0 -23 24 -38.5t74 -31.5l29 -10q216 -71 216 -235z" />
    <glyph glyph-name="percent" unicode="%" horiz-adv-x="878" 
d="M219 399q-86 0 -139.5 48.5t-53.5 127.5t53.5 127t139.5 48t138.5 -48t52.5 -127t-52.5 -127.5t-138.5 -48.5zM317 -10l-94 46l334 714l94 -45zM220 520q17 0 28.5 15t11.5 40q0 24 -11 39t-29 15q-19 0 -30.5 -14.5t-11.5 -39.5t11.5 -40t30.5 -15zM660 -10
q-86 0 -139 48t-53 127t53 127.5t139 48.5t139 -48.5t53 -127.5t-53 -127t-139 -48zM660 111q18 0 29 15t11 39q0 25 -11 40t-29 15t-29.5 -15t-11.5 -40q0 -24 11.5 -39t29.5 -15z" />
    <glyph glyph-name="ampersand" unicode="&#x26;" horiz-adv-x="697" 
d="M592 154q35 0 70 17v-153q-62 -28 -134 -28q-88 0 -137 60q-65 -60 -150 -60q-93 0 -151 60.5t-58 157.5q0 131 116 193q-81 54 -81 151q0 89 67 143.5t176 54.5q106 0 171.5 -56.5t65.5 -147.5v-74h108v-150h-109v-118q0 -22 13 -36t33 -14zM311 586q-21 0 -33 -15
t-12 -40q0 -26 12 -42.5t32 -16.5h45v68q0 21 -12 33.5t-32 12.5zM291 154q63 0 63 97v71h-45q-36 0 -57.5 -23.5t-21.5 -61.5t16.5 -60.5t44.5 -22.5z" />
    <glyph glyph-name="quotesingle" unicode="'" horiz-adv-x="232" 
d="M45 564l-3 216h149l-4 -216h-142z" />
    <glyph glyph-name="parenleft" unicode="(" horiz-adv-x="351" 
d="M162 -180q-133 231 -133 480t133 480h179q-115 -224 -115 -480t115 -480h-179z" />
    <glyph glyph-name="parenright" unicode=")" horiz-adv-x="351" 
d="M11 -180q115 224 115 480t-115 480h178q134 -229 134 -480t-134 -480h-178z" />
    <glyph glyph-name="asterisk" unicode="*" horiz-adv-x="359" 
d="M326 582l-62 -19l42 -59l-93 -67l-34 55l-34 -55l-92 67l41 59l-62 19l35 109l57 -22l-2 71h114l-2 -71l57 22z" />
    <glyph glyph-name="plus" unicode="+" horiz-adv-x="533" 
d="M503 432v-157h-141v-169h-191v169h-141v157h141v169h191v-169h141z" />
    <glyph glyph-name="comma" unicode="," horiz-adv-x="322" 
d="M3 -145l64 316h218l-89 -316h-193z" />
    <glyph glyph-name="hyphen" unicode="-" horiz-adv-x="479" 
d="M47 224v136h385v-136h-385z" />
    <glyph glyph-name="period" unicode="." horiz-adv-x="294" 
d="M147 -10q-48 0 -83 35.5t-35 84.5t35 83.5t83 34.5q49 0 83.5 -34.5t34.5 -83.5q0 -50 -34.5 -85t-83.5 -35z" />
    <glyph glyph-name="slash" unicode="/" horiz-adv-x="461" 
d="M27 -100l215 880h193l-215 -880h-193z" />
    <glyph glyph-name="zero" unicode="0" horiz-adv-x="606" 
d="M303 -10q-124 0 -200 104.5t-76 275.5t76 275.5t200 104.5t199.5 -104.5t75.5 -275.5t-75.5 -275.5t-199.5 -104.5zM303 153q32 0 51.5 59.5t19.5 157.5t-19.5 157.5t-51.5 59.5t-52 -60t-20 -157t20 -157t52 -60z" />
    <glyph glyph-name="one" unicode="1" horiz-adv-x="440" 
d="M180 0v476l-86 -62l-96 139l229 187h151v-740h-198z" />
    <glyph glyph-name="two" unicode="2" horiz-adv-x="564" 
d="M33 0v124l210 256q79 99 79 155q0 22 -11 37t-28 15q-21 0 -33.5 -21t-12.5 -54l-196 17q0 100 66 160.5t173 60.5t172.5 -56t65.5 -147q0 -65 -33.5 -126.5t-110.5 -151.5l-94 -109l244 3v-163h-491z" />
    <glyph glyph-name="three" unicode="3" horiz-adv-x="543" 
d="M338 465q80 -13 126.5 -74t46.5 -152q0 -113 -75 -181t-204 -68q-61 0 -120 18t-95 47l73 138q49 -40 120 -40q48 0 75 23.5t27 61.5t-24 59.5t-66 21.5q-39 0 -73 -23l-53 99l131 182h-173v163h410v-122z" />
    <glyph glyph-name="four" unicode="4" horiz-adv-x="614" 
d="M300 0v128h-282v134l329 478h151v-448h82v-164h-82v-128h-198zM196 286h110l3 162z" />
    <glyph glyph-name="five" unicode="5" horiz-adv-x="557" 
d="M222 -10q-132 0 -211 62l59 143q55 -42 134 -42q53 0 85.5 27.5t32.5 73.5q0 32 -17.5 51.5t-46.5 19.5q-55 0 -67 -32l-122 18l44 429h375v-163h-212l-13 -93q14 4 38 4q97 0 160.5 -61t63.5 -159q0 -125 -84.5 -201.5t-218.5 -76.5z" />
    <glyph glyph-name="six" unicode="6" horiz-adv-x="560" 
d="M327 457q85 0 147.5 -63t62.5 -162q0 -108 -69.5 -175t-183.5 -67t-183.5 66t-69.5 173q0 72 21 130.5t67 129.5l169 251h221l-203 -283h21zM283 153q25 0 40.5 21t15.5 56t-15.5 56.5t-40.5 21.5t-40 -21.5t-15 -56.5t15 -56t40 -21z" />
    <glyph glyph-name="seven" unicode="7" horiz-adv-x="520" 
d="M22 740h486l-209 -740h-208l170 577h-239v163z" />
    <glyph glyph-name="eight" unicode="8" horiz-adv-x="575" 
d="M442 386q99 -57 99 -171q0 -101 -69.5 -163t-183.5 -62t-184 61t-70 161q0 116 100 173q-82 54 -82 153q0 95 65 153.5t171 58.5t170.5 -58t64.5 -152q0 -100 -81 -154zM287 587q-18 0 -29.5 -17t-11.5 -44q0 -28 11.5 -44.5t29.5 -16.5q19 0 30.5 16.5t11.5 44.5
q0 27 -11.5 44t-30.5 17zM287 153q26 0 41 20t15 54q0 33 -15.5 53.5t-40.5 20.5t-40 -20.5t-15 -53.5q0 -34 15 -54t40 -20z" />
    <glyph glyph-name="nine" unicode="9" horiz-adv-x="560" 
d="M275 750q114 0 183.5 -66t69.5 -173q0 -72 -21 -130.5t-67 -129.5l-169 -251h-221l203 283h-21q-85 0 -147.5 63t-62.5 162q0 108 69.5 175t183.5 67zM220 510q0 -35 15.5 -56.5t40.5 -21.5t40 21.5t15 56.5t-15 56t-40 21t-40.5 -21t-15.5 -56z" />
    <glyph glyph-name="colon" unicode=":" horiz-adv-x="310" 
d="M155 320q-49 0 -83.5 35t-34.5 85q0 49 34.5 84t83.5 35t83.5 -35t34.5 -84q0 -50 -34.5 -85t-83.5 -35zM155 -10q-49 0 -83.5 35t-34.5 85q0 49 34.5 83.5t83.5 34.5t83.5 -34.5t34.5 -83.5q0 -50 -34.5 -85t-83.5 -35z" />
    <glyph glyph-name="semicolon" unicode=";" horiz-adv-x="320" 
d="M168 320q-49 0 -83.5 35t-34.5 85q0 49 34.5 84t83.5 35t83 -35t34 -84q0 -50 -34 -85t-83 -35zM-3 -145l64 316h219l-90 -316h-193z" />
    <glyph glyph-name="less" unicode="&#x3c;" horiz-adv-x="570" 
d="M510 632v-179l-243 -103l243 -103v-179l-480 220v124z" />
    <glyph glyph-name="equal" unicode="=" horiz-adv-x="572" 
d="M50 381v157h472v-157h-472zM50 169v158h472v-158h-472z" />
    <glyph glyph-name="greater" unicode="&#x3e;" horiz-adv-x="570" 
d="M60 632l479 -220v-124l-479 -220v179l242 103l-242 103v179z" />
    <glyph glyph-name="question" unicode="?" horiz-adv-x="527" 
d="M179 263q0 76 21.5 121t58.5 84q39 42 39 74q0 20 -12 32.5t-32 12.5q-18 0 -31.5 -12.5t-17.5 -32.5l-178 8q5 91 67.5 145.5t159.5 54.5q110 0 177 -55.5t67 -146.5q0 -36 -13.5 -67t-28 -47.5t-41.5 -42.5q-72 -66 -72 -128h-164zM261 -10q-47 0 -78 31t-31 79
t31 78.5t78 30.5t77.5 -30.5t30.5 -78.5t-30.5 -79t-77.5 -31z" />
    <glyph glyph-name="at" unicode="@" horiz-adv-x="1073" 
d="M577 487h185v-248q0 -19 8.5 -30.5t22.5 -11.5q26 0 40.5 38t14.5 93q0 120 -78 188.5t-209 68.5q-151 0 -241.5 -89.5t-90.5 -236.5q0 -148 89 -236.5t242 -88.5q132 0 249 32l54 -150q-140 -46 -313 -46q-235 0 -377 135t-142 356q0 222 144.5 355t385.5 133
q217 0 347.5 -110t130.5 -297q0 -135 -67 -222.5t-175 -87.5q-110 0 -165 85q-48 -84 -139 -84q-83 0 -140 64.5t-57 165.5t56.5 166.5t134.5 65.5q54 0 89 -37zM530 198q19 0 29.5 18t10.5 48t-10.5 48.5t-29.5 18.5q-17 0 -27.5 -18.5t-10.5 -48.5q0 -29 10.5 -47.5
t27.5 -18.5z" />
    <glyph glyph-name="A" unicode="A" horiz-adv-x="715" 
d="M512 0l-33 107h-242l-34 -107h-211l274 740h183l274 -740h-211zM288 270h140l-70 223z" />
    <glyph glyph-name="B" unicode="B" horiz-adv-x="665" 
d="M516 397q58 -25 90 -70t32 -104q0 -100 -70.5 -161.5t-186.5 -61.5h-316v740h325q93 0 150 -55t57 -145q0 -88 -81 -143zM263 577v-115h71q27 0 43 16t16 42q0 25 -15 41t-39 16h-76zM364 163q32 0 51.5 18.5t19.5 49.5q0 30 -19.5 48.5t-49.5 18.5h-103v-135h101z" />
    <glyph glyph-name="C" unicode="C" horiz-adv-x="703" 
d="M403 -10q-167 0 -270.5 105.5t-103.5 277.5q0 170 102.5 273.5t269.5 103.5q176 0 276 -118l-124 -127q-20 38 -61 60t-90 22q-76 0 -122.5 -59.5t-46.5 -156.5q0 -98 48 -158t127 -60q57 0 94.5 27t66.5 82l132 -119q-103 -153 -298 -153z" />
    <glyph glyph-name="D" unicode="D" horiz-adv-x="734" 
d="M358 740q156 0 251 -101t95 -267q0 -167 -95 -269.5t-251 -102.5h-293v740h293zM364 163q61 0 98.5 57.5t37.5 151.5q0 92 -37.5 148.5t-98.5 56.5h-101v-414h101z" />
    <glyph glyph-name="E" unicode="E" horiz-adv-x="613" 
d="M263 163h311v-163h-509v740h503v-163h-305v-122h269v-163h-269v-129z" />
    <glyph glyph-name="F" unicode="F" horiz-adv-x="567" 
d="M539 577h-276v-142h225v-163h-225v-272h-198v740h474v-163z" />
    <glyph glyph-name="G" unicode="G" horiz-adv-x="754" 
d="M735 438q3 -35 3 -68q0 -170 -94 -275t-252 -105q-163 0 -263 104.5t-100 275.5q0 172 99 276t264 104q161 0 253 -86l-130 -123q-33 46 -120 46q-73 0 -117.5 -60t-44.5 -157q0 -98 44 -157.5t116 -59.5q55 0 91 33t47 89h-124v163h328z" />
    <glyph glyph-name="H" unicode="H" horiz-adv-x="814" 
d="M552 740h197v-740h-197v296h-289v-296h-198v740h198v-281h289v281z" />
    <glyph glyph-name="I" unicode="I" horiz-adv-x="328" 
d="M65 0v740h198v-740h-198z" />
    <glyph glyph-name="J" unicode="J" horiz-adv-x="405" 
d="M143 -10q-91 0 -145 56l52 132q24 -25 52 -25q20 0 32 12t12 32v543h197v-574q0 -79 -56.5 -127.5t-143.5 -48.5z" />
    <glyph glyph-name="K" unicode="K" horiz-adv-x="667" 
d="M684 0h-232l-189 283v-283h-198v740h198v-262l174 262h231l-246 -360z" />
    <glyph glyph-name="L" unicode="L" horiz-adv-x="546" 
d="M263 163h269v-163h-467v740h198v-577z" />
    <glyph glyph-name="M" unicode="M" horiz-adv-x="913" 
d="M871 0h-198l-20 387l-145 -387h-103l-145 385l-20 -385h-198l51 740h222l141 -412l142 412h222z" />
    <glyph glyph-name="N" unicode="N" horiz-adv-x="812" 
d="M65 0v740h122l367 -379l-5 379h198v-740h-121l-367 379l4 -379h-198z" />
    <glyph glyph-name="O" unicode="O" horiz-adv-x="797" 
d="M400 -10q-167 0 -269 104.5t-102 275.5t102 275.5t269 104.5q165 0 266.5 -104.5t101.5 -275.5t-101.5 -275.5t-266.5 -104.5zM400 153q74 0 119.5 60t45.5 157t-45.5 157t-119.5 60q-75 0 -121 -60t-46 -157t46 -157t121 -60z" />
    <glyph glyph-name="P" unicode="P" horiz-adv-x="639" 
d="M357 740q119 0 191 -69t72 -182q0 -119 -75 -192t-199 -73h-83v-224h-198v740h292zM337 387q39 0 59.5 25.5t20.5 69.5q0 43 -21.5 69t-58.5 26h-74v-190h74z" />
    <glyph glyph-name="Q" unicode="Q" horiz-adv-x="797" 
d="M792 0h-225l-13 19q-69 -29 -154 -29q-167 0 -269 104.5t-102 275.5t102 275.5t269 104.5q165 0 266.5 -104.5t101.5 -275.5q0 -142 -71 -238zM400 153q30 0 57 11l-88 131h188q8 37 8 75q0 97 -45.5 157t-119.5 60q-75 0 -121 -60t-46 -157t46 -157t121 -60z" />
    <glyph glyph-name="R" unicode="R" horiz-adv-x="693" 
d="M457 0l-131 246h-63v-246h-198v740h307q115 0 186 -68t71 -179q0 -134 -109 -202l168 -291h-231zM263 577v-168h69q42 0 68 23t26 61t-20.5 61t-54.5 23h-88z" />
    <glyph glyph-name="S" unicode="S" horiz-adv-x="616" 
d="M309 -10q-149 0 -261 98l72 133q84 -68 174 -68q86 0 86 51q0 25 -24.5 42.5t-74.5 33.5l-30 9q-106 34 -160.5 83t-54.5 135q0 109 74.5 176t196.5 67q133 0 245 -85l-85 -137q-79 59 -152 59q-35 0 -54.5 -13t-19.5 -35q0 -23 24 -38.5t74 -31.5l29 -10
q216 -71 216 -235q0 -105 -76 -169.5t-199 -64.5z" />
    <glyph glyph-name="T" unicode="T" horiz-adv-x="606" 
d="M591 740v-163h-189v-577h-198v577h-189v163h576z" />
    <glyph glyph-name="U" unicode="U" horiz-adv-x="741" 
d="M371 -10q-141 0 -227 76t-86 200v474h197v-465q0 -55 32 -88.5t85 -33.5q51 0 82.5 33.5t31.5 88.5v465h198v-474q0 -124 -86 -200t-227 -76z" />
    <glyph glyph-name="V" unicode="V" horiz-adv-x="715" 
d="M266 0l-274 740h211l155 -491l154 491h211l-274 -740h-183z" />
    <glyph glyph-name="W" unicode="W" horiz-adv-x="1061" 
d="M854 740h211l-220 -740h-183l-132 437l-130 -437h-183l-221 740h211l111 -475l121 475h182l122 -475z" />
    <glyph glyph-name="X" unicode="X" horiz-adv-x="666" 
d="M678 0h-228l-117 204l-116 -204h-227l234 383l-222 357h228l103 -180l103 180h227l-222 -356z" />
    <glyph glyph-name="Y" unicode="Y" horiz-adv-x="662" 
d="M448 740h210l-228 -491v-249h-198v249l-228 491h210l118 -316z" />
    <glyph glyph-name="Z" unicode="Z" horiz-adv-x="643" 
d="M295 163h316v-163h-578v122l306 455h-300v163h563v-121z" />
    <glyph glyph-name="bracketleft" unicode="[" horiz-adv-x="393" 
d="M58 -180v960h306v-164h-107v-632h107v-164h-306z" />
    <glyph glyph-name="backslash" unicode="\" horiz-adv-x="461" 
d="M242 -100l-215 880h193l215 -880h-193z" />
    <glyph glyph-name="bracketright" unicode="]" horiz-adv-x="393" 
d="M335 -180h-306v164h107v632h-107v164h306v-960z" />
    <glyph glyph-name="asciicircum" unicode="^" horiz-adv-x="565" 
d="M535 302h-184l-68 148l-69 -148h-184l161 347h184z" />
    <glyph glyph-name="underscore" unicode="_" horiz-adv-x="603" 
d="M23 -135v135h557v-135h-557z" />
    <glyph glyph-name="grave" unicode="`" horiz-adv-x="600" 
d="M153 617l-187 172h220l128 -172h-161z" />
    <glyph glyph-name="a" unicode="a" horiz-adv-x="543" 
d="M273 559q102 0 165 -59t63 -156v-344h-186l-2 46q-44 -56 -113 -56q-82 0 -132 49t-50 130q0 82 61 132t160 50q31 0 69 -6q-8 64 -86 64q-50 0 -92 -30l-81 112q94 68 224 68zM253 125q27 0 41.5 24.5t14.5 67.5q-21 4 -43 4q-26 0 -41.5 -13.5t-15.5 -34.5
q0 -48 44 -48z" />
    <glyph glyph-name="b" unicode="b" horiz-adv-x="628" 
d="M366 559q98 0 167.5 -80.5t69.5 -206.5q0 -124 -69 -203t-168 -79q-82 0 -131 63l-2 -53h-185v780h192v-278q49 57 126 57zM323 154q37 0 59.5 33t22.5 86q0 55 -22.5 88.5t-59.5 33.5t-60 -33.5t-23 -87.5t23 -87t60 -33z" />
    <glyph glyph-name="c" unicode="c" horiz-adv-x="506" 
d="M303 -10q-126 0 -202.5 78t-76.5 206t77.5 206.5t204.5 78.5q100 0 179 -67l-107 -130q-24 33 -67 33q-40 0 -64 -33t-24 -88q0 -54 24 -87t64 -33q56 0 84 41l108 -126q-73 -79 -200 -79z" />
    <glyph glyph-name="d" unicode="d" horiz-adv-x="627" 
d="M387 780h192v-780h-184l-3 53q-49 -63 -131 -63q-99 0 -168 78.5t-69 203.5q0 126 69 206.5t168 80.5q77 0 126 -57v278zM304 154q37 0 60 33t23 87t-23 87.5t-60 33.5t-59.5 -33.5t-22.5 -88.5q0 -53 22.5 -86t59.5 -33z" />
    <glyph glyph-name="e" unicode="e" horiz-adv-x="573" 
d="M550 283q0 -39 -5 -76h-319q5 -33 20.5 -50t47.5 -17q47 0 75 41l149 -72q-31 -53 -89.5 -86t-131.5 -33q-123 0 -198 76t-75 201q0 131 72.5 211.5t190.5 80.5q119 0 191 -76t72 -200zM287 409q-49 0 -60 -74h123q-11 74 -63 74z" />
    <glyph glyph-name="f" unicode="f" horiz-adv-x="399" 
d="M346 626q-23 0 -37.5 -12.5t-14.5 -33.5v-31h88v-157h-88v-392h-192v392h-74v157h74v61q0 81 49 130.5t129 49.5q75 0 120 -22l-12 -148q-18 6 -42 6z" />
    <glyph glyph-name="g" unicode="g" horiz-adv-x="627" 
d="M396 549h184v-500q0 -126 -87 -202.5t-232 -76.5q-139 0 -223 67l41 150q73 -53 178 -53q58 0 94 31t37 82q-49 -57 -126 -57q-99 0 -168 80.5t-69 206.5q0 125 69 203.5t168 78.5q83 0 131 -64zM305 154q37 0 60 33.5t23 86.5q0 55 -22.5 88t-60.5 33q-37 0 -59.5 -33.5
t-22.5 -86.5q0 -54 22.5 -87.5t59.5 -33.5z" />
    <glyph glyph-name="h" unicode="h" horiz-adv-x="610" 
d="M377 559q86 0 138.5 -55t52.5 -145v-359h-192v331q0 29 -18.5 46.5t-49.5 17.5t-49.5 -17.5t-18.5 -46.5v-331h-192v780h192v-279q58 58 137 58z" />
    <glyph glyph-name="i" unicode="i" horiz-adv-x="288" 
d="M145 595q-47 0 -78 31t-31 78q0 48 31 79t78 31t77.5 -31t30.5 -79q0 -47 -30.5 -78t-77.5 -31zM48 0v549h192v-549h-192z" />
    <glyph glyph-name="j" unicode="j" horiz-adv-x="291" 
d="M145 595q-47 0 -77.5 31t-30.5 78q0 48 30.5 79t77.5 31t77.5 -31t30.5 -79q0 -47 -30.5 -78t-77.5 -31zM65 -230q-68 0 -110 18l12 151q16 -5 37 -5t34 14.5t13 38.5v562h192v-607q0 -78 -49 -125t-129 -47z" />
    <glyph glyph-name="k" unicode="k" horiz-adv-x="586" 
d="M605 0h-235l-130 193v-193h-192v780h192v-398l119 167h234l-201 -260z" />
    <glyph glyph-name="l" unicode="l" horiz-adv-x="287" 
d="M48 0v780h192v-780h-192z" />
    <glyph glyph-name="m" unicode="m" horiz-adv-x="894" 
d="M643 559q92 0 149.5 -55t57.5 -145v-359h-192v331q0 29 -15.5 46.5t-41.5 17.5t-41 -17.5t-15 -46.5v-331h-192v331q0 29 -15 46.5t-41 17.5t-41.5 -17.5t-15.5 -46.5v-331h-192v549h185l2 -48q55 58 131 58q85 0 133 -59q58 59 144 59z" />
    <glyph glyph-name="n" unicode="n" horiz-adv-x="610" 
d="M377 559q86 0 138.5 -55t52.5 -145v-359h-192v331q0 29 -18.5 46.5t-49.5 17.5t-49.5 -17.5t-18.5 -46.5v-331h-192v549h185l2 -53q59 63 142 63z" />
    <glyph glyph-name="o" unicode="o" horiz-adv-x="608" 
d="M305 -10q-127 0 -204 78t-77 206t77 206.5t204 78.5q125 0 202 -78.5t77 -206.5q0 -127 -77 -205.5t-202 -78.5zM304 154q37 0 59 33t22 87q0 55 -22 88t-59 33t-59.5 -33t-22.5 -88q0 -53 22.5 -86.5t59.5 -33.5z" />
    <glyph glyph-name="p" unicode="p" horiz-adv-x="628" 
d="M366 559q99 0 168 -79t69 -203q0 -126 -69.5 -206.5t-167.5 -80.5q-77 0 -126 57v-267h-192v769h185l2 -53q49 63 131 63zM323 154q37 0 59.5 33.5t22.5 87.5q0 53 -22.5 86.5t-59.5 33.5q-38 0 -60.5 -33t-22.5 -88q0 -53 23 -86.5t60 -33.5z" />
    <glyph glyph-name="q" unicode="q" horiz-adv-x="627" 
d="M395 549h184v-769h-192v267q-49 -57 -126 -57q-99 0 -168 80.5t-69 206.5q0 125 69 203.5t168 78.5q83 0 131 -64zM304 154q37 0 60 33.5t23 86.5q0 55 -22.5 88t-60.5 33q-37 0 -59.5 -33.5t-22.5 -86.5q0 -54 22.5 -87.5t59.5 -33.5z" />
    <glyph glyph-name="r" unicode="r" horiz-adv-x="408" 
d="M236 491q63 68 165 68l-12 -177q-64 0 -106.5 -30.5t-42.5 -77.5v-274h-192v549h185z" />
    <glyph glyph-name="s" unicode="s" horiz-adv-x="499" 
d="M239 -10q-128 0 -209 71l71 115q65 -37 133 -37q39 0 39 22q0 21 -62 38l-27 8q-76 22 -114 55.5t-38 96.5q0 90 60 145t159 55q130 0 209 -59l-80 -125q-53 34 -108 34q-45 0 -45 -20q0 -18 53 -33l27 -8q79 -24 120 -63t41 -110q0 -84 -63.5 -134.5t-165.5 -50.5z" />
    <glyph glyph-name="t" unicode="t" horiz-adv-x="433" 
d="M331 154q35 0 71 16v-154q-66 -26 -134 -26q-78 0 -126 47.5t-48 126.5v228h-77v157h77v160h192v-160h108v-157h-108v-188q0 -22 12.5 -36t32.5 -14z" />
    <glyph glyph-name="u" unicode="u" horiz-adv-x="585" 
d="M345 549h192v-549h-184l-3 49q-55 -59 -129 -59q-80 0 -129 54.5t-49 144.5v360h192v-332q0 -28 15 -45.5t40 -17.5t40 17.5t15 45.5v332z" />
    <glyph glyph-name="v" unicode="v" horiz-adv-x="580" 
d="M195 0l-196 549h209l82 -332l82 332h210l-196 -549h-191z" />
    <glyph glyph-name="w" unicode="w" horiz-adv-x="836" 
d="M626 549h209l-170 -549h-190l-57 241l-57 -241h-191l-169 549h209l70 -332l61 332h154l61 -332z" />
    <glyph glyph-name="x" unicode="x" horiz-adv-x="567" 
d="M573 0h-223l-66 114l-66 -114h-223l178 281l-167 268h224l54 -96l54 96h224l-168 -267z" />
    <glyph glyph-name="y" unicode="y" horiz-adv-x="580" 
d="M158 -230q-53 0 -89 18l18 154q18 -8 39 -8q46 0 69 64l6 18l-201 533h209l89 -326l76 326h209l-200 -574q-36 -104 -87 -154.5t-138 -50.5z" />
    <glyph glyph-name="z" unicode="z" horiz-adv-x="529" 
d="M35 0v123l194 269h-189v157h448l1 -122l-194 -269h201v-158h-461z" />
    <glyph glyph-name="braceleft" unicode="{" horiz-adv-x="408" 
d="M264 -190q-80 0 -128 47.5t-48 126.5v185q0 23 -16 36t-43 13h-3v164h3q26 0 42.5 13.5t16.5 35.5v185q0 79 48 126.5t128 47.5q61 0 116 -13v-154q-18 4 -37 4q-26 0 -41.5 -19t-15.5 -51v-149q0 -39 -23.5 -68.5t-61.5 -39.5q38 -10 61.5 -39t23.5 -68v-150
q0 -32 15.5 -51t41.5 -19q19 0 37 4v-154q-55 -13 -116 -13z" />
    <glyph glyph-name="bar" unicode="|" horiz-adv-x="313" 
d="M58 -220v1000h197v-1000h-197z" />
    <glyph glyph-name="braceright" unicode="}" horiz-adv-x="408" 
d="M144 -190q-61 0 -116 13v154q18 -4 37 -4q26 0 41.5 19.5t15.5 50.5v150q0 39 23 68t61 39q-38 10 -61 39.5t-23 68.5v149q0 31 -15.5 50.5t-41.5 19.5q-19 0 -37 -4v154q55 13 116 13q80 0 128 -47.5t48 -126.5v-185q0 -22 16.5 -35.5t42.5 -13.5h3v-164h-3
q-27 0 -43 -13t-16 -36v-185q0 -79 -48 -126.5t-128 -47.5z" />
    <glyph glyph-name="asciitilde" unicode="~" horiz-adv-x="566" 
d="M382 207q-40 0 -109 22t-83 22q-40 0 -40 -34h-100q0 76 37 121.5t99 45.5q42 0 109.5 -21t82.5 -21q41 0 41 32h99q0 -79 -36.5 -123t-99.5 -44z" />
    <glyph glyph-name="nbspace" unicode="&#xa0;" horiz-adv-x="203" 
 />
    <glyph glyph-name="exclamdown" unicode="&#xa1;" horiz-adv-x="284" 
d="M143 340q-48 0 -78.5 31t-30.5 79q0 47 30.5 78t78.5 31q46 0 76.5 -31t30.5 -78q0 -48 -30 -79t-77 -31zM43 -220l18 506h163l17 -506h-198z" />
    <glyph glyph-name="cent" unicode="&#xa2;" horiz-adv-x="542" 
d="M503 119q-42 -47 -108 -66v-93h-173v90q-92 23 -145 96t-53 178t53 178t145 97v89h173v-94q49 -17 90 -52l-107 -130q-24 33 -67 33q-40 0 -64 -33t-24 -88q0 -54 24 -87t64 -33q56 0 84 41z" />
    <glyph glyph-name="sterling" unicode="&#xa3;" horiz-adv-x="596" 
d="M301 157h258v-157h-519v154h65v127h-56v157h56v123q0 85 62 137t163 52t162.5 -53t61.5 -139l-190 -12q0 18 -9 29.5t-24 11.5q-30 0 -30 -32v-117h215v-157h-215v-124z" />
    <glyph glyph-name="currency" unicode="&#xa4;" horiz-adv-x="612" 
d="M522 344q0 -52 -18 -96l74 -80l-116 -115l-70 74q-40 -20 -87 -20q-44 0 -85 19l-71 -74l-115 115l73 79q-19 48 -19 98t19 98l-73 78l115 116l71 -75q43 18 85 18q44 0 87 -19l70 74l116 -115l-74 -79q18 -47 18 -96zM305 248q28 0 47.5 28t19.5 68q0 39 -19.5 67.5
t-47.5 28.5q-27 0 -47 -28.5t-20 -67.5q0 -40 20 -68t47 -28z" />
    <glyph glyph-name="yen" unicode="&#xa5;" horiz-adv-x="700" 
d="M677 740l-172 -370h64v-120h-120v-38h120v-120h-120v-92h-198v92h-120v120h120v38h-120v120h64l-172 370h210l118 -316l116 316h210z" />
    <glyph glyph-name="brokenbar" unicode="&#xa6;" horiz-adv-x="311" 
d="M57 380v400h197v-400h-197zM57 -220v400h197v-400h-197z" />
    <glyph glyph-name="section" unicode="&#xa7;" horiz-adv-x="585" 
d="M549 264q0 -79 -42 -137q42 -52 42 -123q0 -106 -70.5 -170t-185.5 -64q-136 0 -242 98l69 129q76 -64 157 -64q68 0 68 51q0 26 -18.5 41t-60.5 31l-26 9q-50 19 -82.5 36.5t-61.5 43t-43 60.5t-14 82q0 81 41 142q-41 46 -41 118q0 109 69.5 176t181.5 67
q122 0 228 -85l-84 -137q-71 59 -133 59q-27 0 -42.5 -13t-15.5 -35q0 -26 18.5 -39t66.5 -31l24 -9q197 -75 197 -236zM328 235l24 -9l2 -1q1 -1 2 -1q3 9 3 21q0 32 -22.5 51t-70.5 35l-26 8q-4 2 -7 2q-4 -8 -4 -22q0 -22 14 -38t30.5 -24t54.5 -22z" />
    <glyph glyph-name="dieresis" unicode="&#xa8;" horiz-adv-x="600" 
d="M139 595q-47 0 -77.5 31t-30.5 78q0 48 30.5 79t77.5 31t77.5 -31t30.5 -79q0 -47 -30.5 -78t-77.5 -31zM406 595q-48 0 -78.5 31t-30.5 78q0 48 30.5 79t78.5 31q47 0 77 -31t30 -79q0 -47 -30.5 -78t-76.5 -31z" />
    <glyph glyph-name="copyright" unicode="&#xa9;" horiz-adv-x="794" 
d="M397 -10q-164 0 -264 104.5t-100 275.5t100 275.5t264 104.5t264 -104.5t100 -275.5t-100 -275.5t-264 -104.5zM397 72q117 0 190 82t73 216t-73 216.5t-190 82.5t-190 -82.5t-73 -216.5t73 -216t190 -82zM407 158q-95 0 -153 58t-58 153q0 94 57 150.5t152 56.5
q102 0 155 -65l-79 -77q-19 38 -74 38q-37 0 -59.5 -29t-22.5 -76t24 -76t63 -29q50 0 79 53l84 -73q-57 -84 -168 -84z" />
    <glyph glyph-name="ordfeminine" unicode="&#xaa;" horiz-adv-x="364" 
d="M182 750q61 0 98.5 -35t37.5 -93v-206h-111l-1 27q-27 -33 -68 -33q-50 0 -79.5 29t-29.5 78q0 50 36.5 80t96.5 30q21 0 40 -4q-4 37 -50 37q-35 0 -56 -18l-49 69q57 39 135 39zM172 492q31 0 31 54q-18 2 -24 2q-14 0 -23 -7.5t-9 -20.5q0 -28 25 -28z" />
    <glyph glyph-name="guillemetleft" unicode="&#xab;" horiz-adv-x="699" 
d="M392 504l-160 -234l160 -234h-204l-166 234l166 234h204zM674 504l-160 -234l160 -234h-204l-166 234l166 234h204z" />
    <glyph glyph-name="logicalnot" unicode="&#xac;" horiz-adv-x="565" 
d="M510 486v-332h-192v175h-280v157h472z" />
    <glyph glyph-name="softhyphen" unicode="&#xad;" horiz-adv-x="479" 
d="M47 224v136h385v-136h-385z" />
    <glyph glyph-name="registered" unicode="&#xae;" horiz-adv-x="361" 
d="M181 790q66 0 106.5 -43t40.5 -113t-40.5 -113.5t-106.5 -43.5q-67 0 -107.5 43t-40.5 114q0 70 40.5 113t107.5 43zM181 507q50 0 81 34.5t31 92.5t-31 93t-81 35q-51 0 -82 -35t-31 -93t31 -92.5t82 -34.5zM241 660q0 -29 -26 -44l36 -64h-47l-29 55h-16v-55h-42v163
h67q26 0 41.5 -15t15.5 -40zM159 678v-36h16q23 0 23 18t-19 18h-20z" />
    <glyph glyph-name="macron" unicode="&#xaf;" horiz-adv-x="600" 
d="M14 604v150h368v-150h-368z" />
    <glyph glyph-name="degree" unicode="&#xb0;" horiz-adv-x="331" 
d="M166 521q-63 0 -102 37t-39 98q0 60 39 97t102 37t101.5 -37t38.5 -97q0 -61 -38.5 -98t-101.5 -37zM166 615q13 0 21 11.5t8 29.5q0 17 -8 29t-21 12t-21 -11.5t-8 -29.5t8 -29.5t21 -11.5z" />
    <glyph glyph-name="plusminus" unicode="&#xb1;" horiz-adv-x="577" 
d="M385 528h146v-156h-146v-170h-193v170h-146v156h146v169h193v-169zM46 -4v158h485v-158h-485z" />
    <glyph glyph-name="twosuperior" unicode="&#xb2;" horiz-adv-x="345" 
d="M23 396v75l126 158q46 59 46 91q0 29 -22 29q-26 0 -26 -41l-119 11q0 57 39.5 92t103.5 35t103 -33t39 -86q0 -38 -20.5 -76.5t-67.5 -93.5l-56 -65l149 1v-97h-295z" />
    <glyph glyph-name="threesuperior" unicode="&#xb3;" horiz-adv-x="332" 
d="M205 675q48 -8 76 -44.5t28 -91.5q0 -67 -45.5 -108t-122.5 -41q-83 0 -129 39l44 83q31 -25 69 -25q29 0 45 14.5t16 37.5t-14 36t-38 13q-22 0 -43 -13l-32 59l81 109h-105v97h246v-73z" />
    <glyph glyph-name="acute" unicode="&#xb4;" horiz-adv-x="600" 
d="M76 617l127 172h220l-187 -172h-160z" />
    <glyph glyph-name="paragraph" unicode="&#xb6;" horiz-adv-x="623" 
d="M550 740v-960h-139v824h-55v-824h-139v593h-52q-62 0 -100.5 51t-38.5 134q0 82 46 132t121 50h357z" />
    <glyph glyph-name="periodcentered" unicode="&#xb7;" horiz-adv-x="300" 
d="M150 174q-49 0 -83.5 35t-34.5 85q0 49 34.5 83.5t83.5 34.5q48 0 82.5 -34.5t34.5 -83.5t-34.5 -84.5t-82.5 -35.5z" />
    <glyph glyph-name="cedilla" unicode="&#xb8;" horiz-adv-x="600" 
d="M159 -46q36 -6 57 -29.5t21 -57.5q0 -43 -35 -70t-95 -27q-55 0 -94 22l31 66q20 -13 43 -13q32 0 32 21q0 18 -25 18q-12 0 -24 -7l-23 41l35 82h102z" />
    <glyph glyph-name="onesuperior" unicode="&#xb9;" horiz-adv-x="268" 
d="M109 396v288l-52 -40l-58 84l137 112h91v-444h-118z" />
    <glyph glyph-name="ordmasculine" unicode="&#xba;" horiz-adv-x="388" 
d="M195 410q-77 0 -123 46.5t-46 123.5t46 123.5t123 46.5q75 0 120.5 -46.5t45.5 -123.5t-45.5 -123.5t-120.5 -46.5zM195 510q21 0 35 19t14 51t-14 52.5t-35 20.5q-23 0 -36.5 -20t-13.5 -53q0 -32 13.5 -51t36.5 -19z" />
    <glyph glyph-name="guillemetright" unicode="&#xbb;" horiz-adv-x="699" 
d="M229 504l166 -234l-166 -234h-204l160 234l-160 234h204zM511 504l167 -234l-167 -234h-203l159 234l-159 234h203z" />
    <glyph glyph-name="onequarter" unicode="&#xbc;" horiz-adv-x="829" 
d="M248 -10l-97 60l366 700l97 -59zM109 296v288l-52 -40l-58 84l137 112h91v-444h-118zM639 0v76h-171v81l199 287h90v-268h49v-100h-49v-76h-118zM573 172h69l1 99z" />
    <glyph glyph-name="onehalf" unicode="&#xbd;" horiz-adv-x="842" 
d="M248 -10l-97 60l366 700l97 -59zM109 296v288l-52 -40l-58 84l137 112h91v-444h-118zM521 0v75l126 158q46 59 46 91q0 29 -22 29q-26 0 -26 -41l-119 11q0 57 39.5 92t103.5 35t103 -33t39 -86q0 -38 -20.5 -76.5t-67.5 -93.5l-56 -65l149 1v-97h-295z" />
    <glyph glyph-name="threequarters" unicode="&#xbe;" horiz-adv-x="893" 
d="M581 750l97 -59l-366 -701l-97 60zM309 439q0 -67 -45.5 -108t-122.5 -41q-83 0 -129 39l44 83q31 -25 69 -25q29 0 45 14.5t16 37.5t-14 36t-38 13q-22 0 -43 -13l-32 59l81 109h-105v97h246v-73l-76 -92q48 -8 76 -44.5t28 -91.5zM820 176h49v-100h-49v-76h-118v76
h-171v81l199 287h90v-268zM705 172l1 99l-70 -99h69z" />
    <glyph glyph-name="questiondown" unicode="&#xbf;" horiz-adv-x="521" 
d="M265 340q-48 0 -78.5 31t-30.5 79q0 47 30.5 78t78.5 31q46 0 76.5 -31t30.5 -78q0 -48 -30 -79t-77 -31zM271 -230q-110 0 -177 55.5t-67 146.5q0 36 14.5 68t26 45t41.5 45q37 39 55.5 73.5t18.5 82.5h163q0 -87 -21.5 -139t-57.5 -94q-40 -45 -40 -75q0 -20 12 -32.5
t31 -12.5q18 0 32.5 12.5t18.5 32.5l177 -8q-5 -91 -67 -145.5t-160 -54.5z" />
    <glyph glyph-name="Agrave" unicode="&#xc0;" horiz-adv-x="715" 
d="M477 808h-161l-187 172h220zM512 0l-33 107h-242l-34 -107h-211l274 740h183l274 -740h-211zM288 270h140l-70 223z" />
    <glyph glyph-name="Aacute" unicode="&#xc1;" horiz-adv-x="715" 
d="M587 980l-187 -172h-160l127 172h220zM512 0l-33 107h-242l-34 -107h-211l274 740h183l274 -740h-211zM288 270h140l-70 223z" />
    <glyph glyph-name="Acircumflex" unicode="&#xc2;" horiz-adv-x="715" 
d="M358 867l-43 -59h-166l120 172h177l120 -172h-166zM512 0l-33 107h-242l-34 -107h-211l274 740h183l274 -740h-211zM288 270h140l-70 223z" />
    <glyph glyph-name="Atilde" unicode="&#xc3;" horiz-adv-x="715" 
d="M287 846q-23 0 -23 -34h-99q0 76 32 122t86 46q32 0 83.5 -21t61.5 -21q23 0 23 32h99q0 -80 -31.5 -124t-86.5 -44q-30 0 -82.5 22t-62.5 22zM512 0l-33 107h-242l-34 -107h-211l274 740h183l274 -740h-211zM288 270h140l-70 223z" />
    <glyph glyph-name="Adieresis" unicode="&#xc4;" horiz-adv-x="715" 
d="M225 786q-47 0 -77.5 31t-30.5 78q0 48 30.5 79t77.5 31t77.5 -31t30.5 -79q0 -47 -30.5 -78t-77.5 -31zM492 786q-48 0 -78.5 31t-30.5 78q0 48 30.5 79t78.5 31q47 0 77 -31t30 -79q0 -47 -30.5 -78t-76.5 -31zM512 0l-33 107h-242l-34 -107h-211l274 740h183l274 -740
h-211zM288 270h140l-70 223z" />
    <glyph glyph-name="Aring" unicode="&#xc5;" horiz-adv-x="715" 
d="M358 775q-53 0 -84.5 30.5t-31.5 80.5q0 49 31.5 79t84.5 30q52 0 83.5 -30t31.5 -79q0 -50 -31.5 -80.5t-83.5 -30.5zM358 912q-9 0 -15.5 -7.5t-6.5 -18.5q0 -12 6.5 -20t15.5 -8q21 0 21 28q0 11 -6 18.5t-15 7.5zM512 0l-33 107h-242l-34 -107h-211l274 740h183
l274 -740h-211zM288 270h140l-70 223z" />
    <glyph glyph-name="AE" unicode="&#xc6;" horiz-adv-x="1017" 
d="M685 163h294v-163h-467l-18 107h-238l-54 -107h-222l435 740h557v-163h-374l25 -122h313v-163h-278zM338 270h129l-32 191z" />
    <glyph glyph-name="Ccedilla" unicode="&#xc7;" horiz-adv-x="703" 
d="M701 143q-93 -137 -259 -151l-20 -38q36 -6 57 -29.5t21 -57.5q0 -43 -35 -70t-95 -27q-56 0 -94 22l31 66q20 -13 43 -13q32 0 32 21q0 18 -25 18q-12 0 -24 -7l-23 41l32 76q-142 19 -227.5 121.5t-85.5 257.5q0 170 102.5 273.5t269.5 103.5q176 0 276 -118l-124 -127
q-20 38 -61 60t-90 22q-76 0 -122.5 -59.5t-46.5 -156.5q0 -98 48 -158t127 -60q57 0 94.5 27t66.5 82z" />
    <glyph glyph-name="Egrave" unicode="&#xc8;" horiz-adv-x="613" 
d="M435 808h-161l-187 172h220zM263 163h311v-163h-509v740h503v-163h-305v-122h269v-163h-269v-129z" />
    <glyph glyph-name="Eacute" unicode="&#xc9;" horiz-adv-x="613" 
d="M545 980l-187 -172h-160l127 172h220zM263 163h311v-163h-509v740h503v-163h-305v-122h269v-163h-269v-129z" />
    <glyph glyph-name="Ecircumflex" unicode="&#xca;" horiz-adv-x="613" 
d="M316 867l-43 -59h-166l120 172h177l120 -172h-166zM263 163h311v-163h-509v740h503v-163h-305v-122h269v-163h-269v-129z" />
    <glyph glyph-name="Edieresis" unicode="&#xcb;" horiz-adv-x="613" 
d="M183 786q-47 0 -77.5 31t-30.5 78q0 48 30.5 79t77.5 31t77.5 -31t30.5 -79q0 -47 -30.5 -78t-77.5 -31zM450 786q-48 0 -78.5 31t-30.5 78q0 48 30.5 79t78.5 31q47 0 77 -31t30 -79q0 -47 -30.5 -78t-76.5 -31zM263 163h311v-163h-509v740h503v-163h-305v-122h269v-163
h-269v-129z" />
    <glyph glyph-name="Igrave" unicode="&#xcc;" horiz-adv-x="328" 
d="M121 808l-187 172h220l128 -172h-161zM65 0v740h198v-740h-198z" />
    <glyph glyph-name="Iacute" unicode="&#xcd;" horiz-adv-x="328" 
d="M45 808l127 172h220l-187 -172h-160zM65 0v740h198v-740h-198z" />
    <glyph glyph-name="Icircumflex" unicode="&#xce;" horiz-adv-x="328" 
d="M163 867l-43 -59h-166l120 172h177l120 -172h-166zM65 0v740h198v-740h-198z" />
    <glyph glyph-name="Idieresis" unicode="&#xcf;" horiz-adv-x="328" 
d="M30 786q-47 0 -77.5 31t-30.5 78q0 48 30.5 79t77.5 31t77.5 -31t30.5 -79q0 -47 -30.5 -78t-77.5 -31zM297 786q-48 0 -78.5 31t-30.5 78q0 48 30.5 79t78.5 31q47 0 77 -31t30 -79q0 -47 -30.5 -78t-76.5 -31zM65 0v740h198v-740h-198z" />
    <glyph glyph-name="Eth" unicode="&#xd0;" horiz-adv-x="734" 
d="M358 740q156 0 251 -101t95 -267q0 -167 -95 -269.5t-251 -102.5h-293v303h-61v136h61v301h293zM364 163q61 0 98.5 57.5t37.5 151.5q0 92 -37.5 148.5t-98.5 56.5h-101v-138h111v-136h-111v-140h101z" />
    <glyph glyph-name="Ntilde" unicode="&#xd1;" horiz-adv-x="812" 
d="M480 802q-30 0 -82.5 22t-62.5 22q-23 0 -23 -34h-99q0 76 32 122t86 46q32 0 83.5 -21t61.5 -21q23 0 23 32h99q0 -80 -31.5 -124t-86.5 -44zM65 0v740h122l367 -379l-5 379h198v-740h-121l-367 379l4 -379h-198z" />
    <glyph glyph-name="Ograve" unicode="&#xd2;" horiz-adv-x="797" 
d="M358 808l-187 172h220l128 -172h-161zM400 -10q-167 0 -269 104.5t-102 275.5t102 275.5t269 104.5q165 0 266.5 -104.5t101.5 -275.5t-101.5 -275.5t-266.5 -104.5zM400 153q74 0 119.5 60t45.5 157t-45.5 157t-119.5 60q-75 0 -121 -60t-46 -157t46 -157t121 -60z" />
    <glyph glyph-name="Oacute" unicode="&#xd3;" horiz-adv-x="797" 
d="M282 808l127 172h220l-187 -172h-160zM400 -10q-167 0 -269 104.5t-102 275.5t102 275.5t269 104.5q165 0 266.5 -104.5t101.5 -275.5t-101.5 -275.5t-266.5 -104.5zM400 153q74 0 119.5 60t45.5 157t-45.5 157t-119.5 60q-75 0 -121 -60t-46 -157t46 -157t121 -60z" />
    <glyph glyph-name="Ocircumflex" unicode="&#xd4;" horiz-adv-x="797" 
d="M400 867l-43 -59h-166l120 172h177l120 -172h-166zM400 750q165 0 266.5 -104.5t101.5 -275.5t-101.5 -275.5t-266.5 -104.5q-167 0 -269 104.5t-102 275.5t102 275.5t269 104.5zM400 153q74 0 119.5 60t45.5 157t-45.5 157t-119.5 60q-75 0 -121 -60t-46 -157t46 -157
t121 -60z" />
    <glyph glyph-name="Otilde" unicode="&#xd5;" horiz-adv-x="797" 
d="M474 802q-30 0 -82.5 22t-62.5 22q-23 0 -23 -34h-99q0 76 32 122t86 46q32 0 83.5 -21t61.5 -21q23 0 23 32h99q0 -80 -31.5 -124t-86.5 -44zM400 -10q-167 0 -269 104.5t-102 275.5t102 275.5t269 104.5q165 0 266.5 -104.5t101.5 -275.5t-101.5 -275.5t-266.5 -104.5z
M400 153q74 0 119.5 60t45.5 157t-45.5 157t-119.5 60q-75 0 -121 -60t-46 -157t46 -157t121 -60z" />
    <glyph glyph-name="Odieresis" unicode="&#xd6;" horiz-adv-x="797" 
d="M267 786q-47 0 -77.5 31t-30.5 78q0 48 30.5 79t77.5 31t77.5 -31t30.5 -79q0 -47 -30.5 -78t-77.5 -31zM534 786q-48 0 -78.5 31t-30.5 78q0 48 30.5 79t78.5 31q47 0 77 -31t30 -79q0 -47 -30.5 -78t-76.5 -31zM400 -10q-167 0 -269 104.5t-102 275.5t102 275.5
t269 104.5q165 0 266.5 -104.5t101.5 -275.5t-101.5 -275.5t-266.5 -104.5zM400 153q74 0 119.5 60t45.5 157t-45.5 157t-119.5 60q-75 0 -121 -60t-46 -157t46 -157t121 -60z" />
    <glyph glyph-name="multiply" unicode="&#xd7;" horiz-adv-x="495" 
d="M463 466l-103 -114l101 -111l-118 -118l-95 105l-96 -105l-117 118l101 111l-103 114l118 117l97 -107l97 107z" />
    <glyph glyph-name="Oslash" unicode="&#xd8;" horiz-adv-x="797" 
d="M683 628q85 -104 85 -258q0 -171 -101.5 -275.5t-266.5 -104.5q-115 0 -204 53l-44 -53l-82 68l45 54q-86 102 -86 258q0 171 102 275.5t269 104.5q114 0 203 -53l44 53l81 -68zM233 370q0 -56 15 -98l240 287q-39 28 -88 28q-75 0 -121 -60t-46 -157zM400 153
q74 0 119.5 60t45.5 157q0 54 -15 98l-239 -287q39 -28 89 -28z" />
    <glyph glyph-name="Ugrave" unicode="&#xd9;" horiz-adv-x="741" 
d="M329 808l-187 172h220l128 -172h-161zM371 -10q-141 0 -227 76t-86 200v474h197v-465q0 -55 32 -88.5t85 -33.5q51 0 82.5 33.5t31.5 88.5v465h198v-474q0 -124 -86 -200t-227 -76z" />
    <glyph glyph-name="Uacute" unicode="&#xda;" horiz-adv-x="741" 
d="M253 808l127 172h220l-187 -172h-160zM371 -10q-141 0 -227 76t-86 200v474h197v-465q0 -55 32 -88.5t85 -33.5q51 0 82.5 33.5t31.5 88.5v465h198v-474q0 -124 -86 -200t-227 -76z" />
    <glyph glyph-name="Ucircumflex" unicode="&#xdb;" horiz-adv-x="741" 
d="M371 867l-43 -59h-166l120 172h177l120 -172h-166zM486 740h198v-474q0 -124 -86 -200t-227 -76t-227 76t-86 200v474h197v-465q0 -55 32 -88.5t85 -33.5q51 0 82.5 33.5t31.5 88.5v465z" />
    <glyph glyph-name="Udieresis" unicode="&#xdc;" horiz-adv-x="741" 
d="M238 786q-47 0 -77.5 31t-30.5 78q0 48 30.5 79t77.5 31t77.5 -31t30.5 -79q0 -47 -30.5 -78t-77.5 -31zM505 786q-48 0 -78.5 31t-30.5 78q0 48 30.5 79t78.5 31q47 0 77 -31t30 -79q0 -47 -30.5 -78t-76.5 -31zM371 -10q-141 0 -227 76t-86 200v474h197v-465
q0 -55 32 -88.5t85 -33.5q51 0 82.5 33.5t31.5 88.5v465h198v-474q0 -124 -86 -200t-227 -76z" />
    <glyph glyph-name="Yacute" unicode="&#xdd;" horiz-adv-x="662" 
d="M561 980l-187 -172h-160l127 172h220zM448 740h210l-228 -491v-249h-198v249l-228 491h210l118 -316z" />
    <glyph glyph-name="Thorn" unicode="&#xde;" horiz-adv-x="637" 
d="M357 635q118 0 190.5 -69t72.5 -182q0 -119 -75 -192t-199 -73h-83v-119h-198v740h198v-105h94zM337 282q39 0 59.5 25.5t20.5 69.5q0 43 -21.5 68.5t-58.5 25.5h-74v-189h74z" />
    <glyph glyph-name="germandbls" unicode="&#xdf;" horiz-adv-x="588" 
d="M447 422q55 -29 86 -78t31 -111q0 -109 -61.5 -176t-162.5 -67q-53 0 -81 11l17 156q10 -3 25 -3q29 0 47.5 25.5t18.5 67.5q0 43 -21.5 69t-57.5 26v150q22 0 35 19t13 50q0 29 -13.5 47t-36.5 18q-20 0 -33 -12.5t-13 -33.5v-580h-192v598q0 86 65.5 139t171.5 53
q109 0 176.5 -57.5t67.5 -150.5q0 -103 -82 -160z" />
    <glyph glyph-name="agrave" unicode="&#xe0;" horiz-adv-x="543" 
d="M400 617h-161l-187 172h220zM273 559q102 0 165 -59t63 -156v-344h-186l-2 46q-44 -56 -113 -56q-82 0 -132 49t-50 130q0 82 61 132t160 50q31 0 69 -6q-8 64 -86 64q-50 0 -92 -30l-81 112q94 68 224 68zM253 125q27 0 41.5 24.5t14.5 67.5q-21 4 -43 4
q-26 0 -41.5 -13.5t-15.5 -34.5q0 -48 44 -48z" />
    <glyph glyph-name="aacute" unicode="&#xe1;" horiz-adv-x="543" 
d="M510 789l-187 -172h-160l127 172h220zM273 559q102 0 165 -59t63 -156v-344h-186l-2 46q-44 -56 -113 -56q-82 0 -132 49t-50 130q0 82 61 132t160 50q31 0 69 -6q-8 64 -86 64q-50 0 -92 -30l-81 112q94 68 224 68zM253 125q27 0 41.5 24.5t14.5 67.5q-21 4 -43 4
q-26 0 -41.5 -13.5t-15.5 -34.5q0 -48 44 -48z" />
    <glyph glyph-name="acircumflex" unicode="&#xe2;" horiz-adv-x="543" 
d="M281 676l-43 -59h-166l120 172h177l120 -172h-166zM273 559q102 0 165 -59t63 -156v-344h-186l-2 46q-44 -56 -113 -56q-82 0 -132 49t-50 130q0 82 61 132t160 50q31 0 69 -6q-8 64 -86 64q-50 0 -92 -30l-81 112q94 68 224 68zM253 125q27 0 41.5 24.5t14.5 67.5
q-21 4 -43 4q-26 0 -41.5 -13.5t-15.5 -34.5q0 -48 44 -48z" />
    <glyph glyph-name="atilde" unicode="&#xe3;" horiz-adv-x="543" 
d="M210 655q-23 0 -23 -34h-99q0 76 32 122t86 46q32 0 83.5 -21t61.5 -21q23 0 23 32h99q0 -80 -31.5 -124t-86.5 -44q-30 0 -82.5 22t-62.5 22zM273 559q102 0 165 -59t63 -156v-344h-186l-2 46q-44 -56 -113 -56q-82 0 -132 49t-50 130q0 82 61 132t160 50q31 0 69 -6
q-8 64 -86 64q-50 0 -92 -30l-81 112q94 68 224 68zM253 125q27 0 41.5 24.5t14.5 67.5q-21 4 -43 4q-26 0 -41.5 -13.5t-15.5 -34.5q0 -48 44 -48z" />
    <glyph glyph-name="adieresis" unicode="&#xe4;" horiz-adv-x="543" 
d="M148 595q-47 0 -77.5 31t-30.5 78q0 48 30.5 79t77.5 31t77.5 -31t30.5 -79q0 -47 -30.5 -78t-77.5 -31zM415 595q-48 0 -78.5 31t-30.5 78q0 48 30.5 79t78.5 31q47 0 77 -31t30 -79q0 -47 -30.5 -78t-76.5 -31zM273 559q102 0 165 -59t63 -156v-344h-186l-2 46
q-44 -56 -113 -56q-82 0 -132 49t-50 130q0 82 61 132t160 50q31 0 69 -6q-8 64 -86 64q-50 0 -92 -30l-81 112q94 68 224 68zM253 125q27 0 41.5 24.5t14.5 67.5q-21 4 -43 4q-26 0 -41.5 -13.5t-15.5 -34.5q0 -48 44 -48z" />
    <glyph glyph-name="aring" unicode="&#xe5;" horiz-adv-x="543" 
d="M281 584q-53 0 -84.5 30.5t-31.5 80.5q0 49 31.5 79t84.5 30q52 0 83.5 -30t31.5 -79q0 -50 -31.5 -80.5t-83.5 -30.5zM281 721q-9 0 -15.5 -7.5t-6.5 -18.5q0 -12 6.5 -20t15.5 -8q21 0 21 28q0 11 -6 18.5t-15 7.5zM273 559q102 0 165 -59t63 -156v-344h-186l-2 46
q-44 -56 -113 -56q-82 0 -132 49t-50 130q0 82 61 132t160 50q31 0 69 -6q-8 64 -86 64q-50 0 -92 -30l-81 112q94 68 224 68zM253 125q27 0 41.5 24.5t14.5 67.5q-21 4 -43 4q-26 0 -41.5 -13.5t-15.5 -34.5q0 -48 44 -48z" />
    <glyph glyph-name="ae" unicode="&#xe6;" horiz-adv-x="844" 
d="M820 283q0 -39 -5 -76h-319q5 -33 20.5 -50t47.5 -17q47 0 75 41l149 -72q-29 -54 -83.5 -86.5t-123.5 -32.5q-111 0 -182 73q-61 -73 -170 -73q-95 0 -153 49t-58 130q0 82 61 132t160 50q31 0 69 -6q-8 64 -86 64q-50 0 -92 -30l-81 112q88 68 210 68q92 0 153 -63
q68 63 159 63q112 0 180.5 -75.5t68.5 -200.5zM557 409q-49 0 -60 -74h123q-11 74 -63 74zM253 127q27 0 41.5 24t14.5 66q-21 4 -43 4q-26 0 -41.5 -13.5t-15.5 -34.5q0 -46 44 -46z" />
    <glyph glyph-name="ccedilla" unicode="&#xe7;" horiz-adv-x="506" 
d="M503 69q-61 -66 -163 -77l-21 -38q36 -6 57 -29.5t21 -57.5q0 -43 -35 -70t-95 -27q-55 0 -94 22l31 66q20 -13 43 -13q32 0 32 21q0 18 -25 18q-12 0 -24 -7l-23 41l33 78q-100 19 -158 93.5t-58 184.5q0 128 77.5 206.5t204.5 78.5q100 0 179 -67l-107 -130
q-24 33 -67 33q-40 0 -64 -33t-24 -88q0 -54 24 -87t64 -33q56 0 84 41z" />
    <glyph glyph-name="egrave" unicode="&#xe8;" horiz-adv-x="573" 
d="M406 617h-161l-187 172h220zM550 283q0 -39 -5 -76h-319q5 -33 20.5 -50t47.5 -17q47 0 75 41l149 -72q-31 -53 -89.5 -86t-131.5 -33q-123 0 -198 76t-75 201q0 131 72.5 211.5t190.5 80.5q119 0 191 -76t72 -200zM287 409q-49 0 -60 -74h123q-11 74 -63 74z" />
    <glyph glyph-name="eacute" unicode="&#xe9;" horiz-adv-x="573" 
d="M516 789l-187 -172h-160l127 172h220zM550 283q0 -39 -5 -76h-319q5 -33 20.5 -50t47.5 -17q47 0 75 41l149 -72q-31 -53 -89.5 -86t-131.5 -33q-123 0 -198 76t-75 201q0 131 72.5 211.5t190.5 80.5q119 0 191 -76t72 -200zM287 409q-49 0 -60 -74h123q-11 74 -63 74z
" />
    <glyph glyph-name="ecircumflex" unicode="&#xea;" horiz-adv-x="573" 
d="M287 676l-43 -59h-166l120 172h177l120 -172h-166zM550 283q0 -39 -5 -76h-319q5 -33 20.5 -50t47.5 -17q47 0 75 41l149 -72q-31 -53 -89.5 -86t-131.5 -33q-123 0 -198 76t-75 201q0 131 72.5 211.5t190.5 80.5q119 0 191 -76t72 -200zM287 409q-49 0 -60 -74h123
q-11 74 -63 74z" />
    <glyph glyph-name="edieresis" unicode="&#xeb;" horiz-adv-x="573" 
d="M154 595q-47 0 -77.5 31t-30.5 78q0 48 30.5 79t77.5 31t77.5 -31t30.5 -79q0 -47 -30.5 -78t-77.5 -31zM421 595q-48 0 -78.5 31t-30.5 78q0 48 30.5 79t78.5 31q47 0 77 -31t30 -79q0 -47 -30.5 -78t-76.5 -31zM550 283q0 -39 -5 -76h-319q5 -33 20.5 -50t47.5 -17
q47 0 75 41l149 -72q-31 -53 -89.5 -86t-131.5 -33q-123 0 -198 76t-75 201q0 131 72.5 211.5t190.5 80.5q119 0 191 -76t72 -200zM287 409q-49 0 -60 -74h123q-11 74 -63 74z" />
    <glyph glyph-name="igrave" unicode="&#xec;" horiz-adv-x="287" 
d="M103 616l-187 172h220l128 -172h-161zM48 0v548h191v-548h-191z" />
    <glyph glyph-name="iacute" unicode="&#xed;" horiz-adv-x="287" 
d="M27 616l127 172h220l-187 -172h-160zM48 0v548h191v-548h-191z" />
    <glyph glyph-name="icircumflex" unicode="&#xee;" horiz-adv-x="287" 
d="M145 675l-43 -59h-166l120 172h177l120 -172h-166zM48 0v548h191v-548h-191z" />
    <glyph glyph-name="idieresis" unicode="&#xef;" horiz-adv-x="287" 
d="M12 594q-47 0 -77.5 31t-30.5 78q0 48 30.5 79t77.5 31t77.5 -31t30.5 -79q0 -47 -30.5 -78t-77.5 -31zM279 594q-48 0 -78.5 31t-30.5 78q0 48 30.5 79t78.5 31q47 0 77 -31t30 -79q0 -47 -30.5 -78t-76.5 -31zM48 0v548h191v-548h-191z" />
    <glyph glyph-name="eth" unicode="&#xf0;" horiz-adv-x="612" 
d="M412 691q173 -156 173 -366q0 -149 -77 -242t-202 -93q-127 0 -204 78t-77 208q0 119 69 193.5t168 74.5q22 0 45 -5q-20 22 -51 50l-39 -25l-97 75l35 23l-40 24l159 104q14 -8 40 -24l37 24l97 -76zM306 154q36 0 58.5 33.5t22.5 86.5q0 55 -22 88t-59 33t-59.5 -33
t-22.5 -88q0 -54 22.5 -87t59.5 -33z" />
    <glyph glyph-name="ntilde" unicode="&#xf1;" horiz-adv-x="610" 
d="M240 655q-23 0 -23 -34h-99q0 76 32 122t86 46q32 0 83.5 -21t61.5 -21q23 0 23 32h99q0 -80 -31.5 -124t-86.5 -44q-30 0 -82.5 22t-62.5 22zM377 559q86 0 138.5 -55t52.5 -145v-359h-192v331q0 29 -18.5 46.5t-49.5 17.5t-49.5 -17.5t-18.5 -46.5v-331h-192v549h185
l2 -53q59 63 142 63z" />
    <glyph glyph-name="ograve" unicode="&#xf2;" horiz-adv-x="608" 
d="M263 617l-187 172h220l128 -172h-161zM305 -10q-127 0 -204 78t-77 206t77 206.5t204 78.5q125 0 202 -78.5t77 -206.5q0 -127 -77 -205.5t-202 -78.5zM304 154q37 0 59 33t22 87q0 55 -22 88t-59 33t-59.5 -33t-22.5 -88q0 -53 22.5 -86.5t59.5 -33.5z" />
    <glyph glyph-name="oacute" unicode="&#xf3;" horiz-adv-x="608" 
d="M187 617l127 172h220l-187 -172h-160zM305 -10q-127 0 -204 78t-77 206t77 206.5t204 78.5q125 0 202 -78.5t77 -206.5q0 -127 -77 -205.5t-202 -78.5zM304 154q37 0 59 33t22 87q0 55 -22 88t-59 33t-59.5 -33t-22.5 -88q0 -53 22.5 -86.5t59.5 -33.5z" />
    <glyph glyph-name="ocircumflex" unicode="&#xf4;" horiz-adv-x="608" 
d="M305 676l-43 -59h-166l120 172h177l120 -172h-166zM305 559q125 0 202 -78.5t77 -206.5q0 -127 -77 -205.5t-202 -78.5q-127 0 -204 78t-77 206t77 206.5t204 78.5zM304 154q37 0 59 33t22 87q0 55 -22 88t-59 33t-59.5 -33t-22.5 -88q0 -53 22.5 -86.5t59.5 -33.5z" />
    <glyph glyph-name="otilde" unicode="&#xf5;" horiz-adv-x="608" 
d="M379 611q-30 0 -82.5 22t-62.5 22q-23 0 -23 -34h-99q0 76 32 122t86 46q32 0 83.5 -21t61.5 -21q23 0 23 32h99q0 -80 -31.5 -124t-86.5 -44zM305 -10q-127 0 -204 78t-77 206t77 206.5t204 78.5q125 0 202 -78.5t77 -206.5q0 -127 -77 -205.5t-202 -78.5zM304 154
q37 0 59 33t22 87q0 55 -22 88t-59 33t-59.5 -33t-22.5 -88q0 -53 22.5 -86.5t59.5 -33.5z" />
    <glyph glyph-name="odieresis" unicode="&#xf6;" horiz-adv-x="608" 
d="M172 595q-47 0 -77.5 31t-30.5 78q0 48 30.5 79t77.5 31t77.5 -31t30.5 -79q0 -47 -30.5 -78t-77.5 -31zM439 595q-48 0 -78.5 31t-30.5 78q0 48 30.5 79t78.5 31q47 0 77 -31t30 -79q0 -47 -30.5 -78t-76.5 -31zM305 -10q-127 0 -204 78t-77 206t77 206.5t204 78.5
q125 0 202 -78.5t77 -206.5q0 -127 -77 -205.5t-202 -78.5zM304 154q37 0 59 33t22 87q0 55 -22 88t-59 33t-59.5 -33t-22.5 -88q0 -53 22.5 -86.5t59.5 -33.5z" />
    <glyph glyph-name="divide" unicode="&#xf7;" horiz-adv-x="530" 
d="M266 462q-47 0 -78 31t-31 79q0 47 31 78t78 31t77 -31t30 -78q0 -48 -30 -79t-77 -31zM29 275v157h472v-157h-472zM266 28q-47 0 -78 31t-31 79q0 47 31 78t78 31t77 -31t30 -78q0 -48 -30 -79t-77 -31z" />
    <glyph glyph-name="oslash" unicode="&#xf8;" horiz-adv-x="608" 
d="M509 478q75 -77 75 -204t-77 -205.5t-202 -78.5q-83 0 -147 35l-27 -35l-62 43l29 38q-74 79 -74 203q0 128 77 206.5t204 78.5q83 0 145 -35l27 34l62 -41zM222 274q0 -23 4 -39l116 149q-17 11 -38 11q-37 0 -59.5 -33t-22.5 -88zM304 154q37 0 59 33t22 87q0 23 -4 40
l-114 -149q17 -11 37 -11z" />
    <glyph glyph-name="ugrave" unicode="&#xf9;" horiz-adv-x="585" 
d="M409 617h-161l-187 172h220zM345 549h192v-549h-184l-3 49q-55 -59 -129 -59q-80 0 -129 54.5t-49 144.5v360h192v-332q0 -28 15 -45.5t40 -17.5t40 17.5t15 45.5v332z" />
    <glyph glyph-name="uacute" unicode="&#xfa;" horiz-adv-x="585" 
d="M519 789l-187 -172h-160l127 172h220zM345 549h192v-549h-184l-3 49q-55 -59 -129 -59q-80 0 -129 54.5t-49 144.5v360h192v-332q0 -28 15 -45.5t40 -17.5t40 17.5t15 45.5v332z" />
    <glyph glyph-name="ucircumflex" unicode="&#xfb;" horiz-adv-x="585" 
d="M290 676l-43 -59h-166l120 172h177l120 -172h-166zM345 549h192v-549h-184l-3 49q-55 -59 -129 -59q-80 0 -129 54.5t-49 144.5v360h192v-332q0 -28 15 -45.5t40 -17.5t40 17.5t15 45.5v332z" />
    <glyph glyph-name="udieresis" unicode="&#xfc;" horiz-adv-x="585" 
d="M157 595q-47 0 -77.5 31t-30.5 78q0 48 30.5 79t77.5 31t77.5 -31t30.5 -79q0 -47 -30.5 -78t-77.5 -31zM424 595q-48 0 -78.5 31t-30.5 78q0 48 30.5 79t78.5 31q47 0 77 -31t30 -79q0 -47 -30.5 -78t-76.5 -31zM345 549h192v-549h-184l-3 49q-55 -59 -129 -59
q-80 0 -129 54.5t-49 144.5v360h192v-332q0 -28 15 -45.5t40 -17.5t40 17.5t15 45.5v332z" />
    <glyph glyph-name="yacute" unicode="&#xfd;" horiz-adv-x="580" 
d="M176 617l127 172h220l-187 -172h-160zM158 -230q-53 0 -89 18l18 154q18 -8 39 -8q46 0 69 64l6 18l-201 533h209l89 -326l76 326h209l-200 -574q-36 -104 -87 -154.5t-138 -50.5z" />
    <glyph glyph-name="thorn" unicode="&#xfe;" horiz-adv-x="628" 
d="M366 559q99 0 168 -79t69 -203q0 -126 -69.5 -206.5t-167.5 -80.5q-77 0 -126 57v-267h-192v1000h192v-278q48 57 126 57zM323 154q37 0 59.5 33.5t22.5 87.5q0 53 -22.5 86.5t-59.5 33.5q-38 0 -60.5 -33t-22.5 -88q0 -53 23 -86.5t60 -33.5z" />
    <glyph glyph-name="ydieresis" unicode="&#xff;" horiz-adv-x="580" 
d="M161 595q-47 0 -77.5 31t-30.5 78q0 48 30.5 79t77.5 31t77.5 -31t30.5 -79q0 -47 -30.5 -78t-77.5 -31zM428 595q-48 0 -78.5 31t-30.5 78q0 48 30.5 79t78.5 31q47 0 77 -31t30 -79q0 -47 -30.5 -78t-76.5 -31zM158 -230q-53 0 -89 18l18 154q18 -8 39 -8q46 0 69 64
l6 18l-201 533h209l89 -326l76 326h209l-200 -574q-36 -104 -87 -154.5t-138 -50.5z" />
    <glyph glyph-name="Amacron" unicode="&#x100;" horiz-adv-x="715" 
d="M542 945v-150h-368v150h368zM512 0l-33 107h-242l-34 -107h-211l274 740h183l274 -740h-211zM288 270h140l-70 223z" />
    <glyph glyph-name="amacron" unicode="&#x101;" horiz-adv-x="543" 
d="M465 754v-150h-368v150h368zM273 559q102 0 165 -59t63 -156v-344h-186l-2 46q-44 -56 -113 -56q-82 0 -132 49t-50 130q0 82 61 132t160 50q31 0 69 -6q-8 64 -86 64q-50 0 -92 -30l-81 112q94 68 224 68zM253 125q27 0 41.5 24.5t14.5 67.5q-21 4 -43 4
q-26 0 -41.5 -13.5t-15.5 -34.5q0 -48 44 -48z" />
    <glyph glyph-name="Abreve" unicode="&#x102;" horiz-adv-x="715" 
d="M358 800q-84 0 -135.5 49.5t-51.5 130.5h142q0 -32 12.5 -52t32.5 -20t32.5 20t12.5 52h141q0 -81 -51 -130.5t-135 -49.5zM512 0l-33 107h-242l-34 -107h-211l274 740h183l274 -740h-211zM288 270h140l-70 223z" />
    <glyph glyph-name="abreve" unicode="&#x103;" horiz-adv-x="543" 
d="M281 609q-84 0 -135.5 49.5t-51.5 130.5h142q0 -32 12.5 -52t32.5 -20t32.5 20t12.5 52h141q0 -81 -51 -130.5t-135 -49.5zM273 559q102 0 165 -59t63 -156v-344h-186l-2 46q-44 -56 -113 -56q-82 0 -132 49t-50 130q0 82 61 132t160 50q31 0 69 -6q-8 64 -86 64
q-50 0 -92 -30l-81 112q94 68 224 68zM253 125q27 0 41.5 24.5t14.5 67.5q-21 4 -43 4q-26 0 -41.5 -13.5t-15.5 -34.5q0 -48 44 -48z" />
    <glyph glyph-name="Aogonek" unicode="&#x104;" horiz-adv-x="716" 
d="M710 -111l15 -91q-39 -28 -95 -28q-49 0 -78.5 27t-29.5 71q0 67 73 132h-83l-33 107h-242l-34 -107h-211l274 740h183l274 -740q-66 -48 -66 -99q0 -24 22 -24q19 0 31 12zM288 270h140l-70 223z" />
    <glyph glyph-name="aogonek" unicode="&#x105;" horiz-adv-x="543" 
d="M488 -111l15 -91q-39 -28 -95 -28q-49 0 -79 27t-30 71q0 67 74 132h-58l-2 46q-44 -56 -113 -56q-82 0 -132 49t-50 130q0 82 61 132t160 50q31 0 69 -6q-8 64 -86 64q-50 0 -92 -30l-81 112q94 68 224 68q102 0 165 -59t63 -156v-344q-67 -49 -67 -99q0 -24 23 -24
q19 0 31 12zM253 125q27 0 41.5 24.5t14.5 67.5q-21 4 -43 4q-26 0 -41.5 -13.5t-15.5 -34.5q0 -48 44 -48z" />
    <glyph glyph-name="Cacute" unicode="&#x106;" horiz-adv-x="703" 
d="M275 808l127 172h220l-187 -172h-160zM403 -10q-167 0 -270.5 105.5t-103.5 277.5q0 170 102.5 273.5t269.5 103.5q176 0 276 -118l-124 -127q-20 38 -61 60t-90 22q-76 0 -122.5 -59.5t-46.5 -156.5q0 -98 48 -158t127 -60q57 0 94.5 27t66.5 82l132 -119
q-103 -153 -298 -153z" />
    <glyph glyph-name="cacute" unicode="&#x107;" horiz-adv-x="506" 
d="M173 617l127 172h220l-187 -172h-160zM303 -10q-126 0 -202.5 78t-76.5 206t77.5 206.5t204.5 78.5q100 0 179 -67l-107 -130q-24 33 -67 33q-40 0 -64 -33t-24 -88q0 -54 24 -87t64 -33q56 0 84 41l108 -126q-73 -79 -200 -79z" />
    <glyph glyph-name="Cdotaccent" unicode="&#x10a;" horiz-adv-x="703" 
d="M393 786q-47 0 -77.5 31t-30.5 78q0 48 30.5 79t77.5 31t77.5 -31t30.5 -79q0 -47 -30.5 -78t-77.5 -31zM403 -10q-167 0 -270.5 105.5t-103.5 277.5q0 170 102.5 273.5t269.5 103.5q176 0 276 -118l-124 -127q-20 38 -61 60t-90 22q-76 0 -122.5 -59.5t-46.5 -156.5
q0 -98 48 -158t127 -60q57 0 94.5 27t66.5 82l132 -119q-103 -153 -298 -153z" />
    <glyph glyph-name="cdotaccent" unicode="&#x10b;" horiz-adv-x="506" 
d="M291 595q-47 0 -77.5 31t-30.5 78q0 48 30.5 79t77.5 31t77.5 -31t30.5 -79q0 -47 -30.5 -78t-77.5 -31zM303 -10q-126 0 -202.5 78t-76.5 206t77.5 206.5t204.5 78.5q100 0 179 -67l-107 -130q-24 33 -67 33q-40 0 -64 -33t-24 -88q0 -54 24 -87t64 -33q56 0 84 41
l108 -126q-73 -79 -200 -79z" />
    <glyph glyph-name="Ccaron" unicode="&#x10c;" horiz-adv-x="703" 
d="M304 808l-120 172h166l43 -59l42 59h166l-120 -172h-177zM569 262l132 -119q-103 -153 -298 -153q-167 0 -270.5 105.5t-103.5 277.5q0 170 102.5 273.5t269.5 103.5q176 0 276 -118l-124 -127q-20 38 -61 60t-90 22q-76 0 -122.5 -59.5t-46.5 -156.5q0 -98 48 -158
t127 -60q57 0 94.5 27t66.5 82z" />
    <glyph glyph-name="ccaron" unicode="&#x10d;" horiz-adv-x="506" 
d="M202 617l-120 172h166l43 -59l42 59h166l-120 -172h-177zM395 195l108 -126q-73 -79 -200 -79q-126 0 -202.5 78t-76.5 206t77.5 206.5t204.5 78.5q100 0 179 -67l-107 -130q-24 33 -67 33q-40 0 -64 -33t-24 -88q0 -54 24 -87t64 -33q56 0 84 41z" />
    <glyph glyph-name="Dcaron" unicode="&#x10e;" horiz-adv-x="734" 
d="M236 808l-120 172h166l43 -59l42 59h166l-120 -172h-177zM358 740q156 0 251 -101t95 -267q0 -167 -95 -269.5t-251 -102.5h-293v740h293zM364 163q61 0 98.5 57.5t37.5 151.5q0 92 -37.5 148.5t-98.5 56.5h-101v-414h101z" />
    <glyph glyph-name="dcaron" unicode="&#x10f;" horiz-adv-x="650" 
d="M388 500v280h191v-780h-183l-3 54q-50 -64 -132 -64q-98 0 -167 78.5t-69 202.5q0 126 69 206.5t167 80.5q77 0 127 -58zM654 780h169l-57 -187h-144zM304 153q38 0 61 33t23 88t-23 88t-61 33q-37 0 -60 -33.5t-23 -88.5q0 -53 23 -86.5t60 -33.5z" />
    <glyph glyph-name="Dcroat" unicode="&#x110;" horiz-adv-x="734" 
d="M358 740q156 0 251 -101t95 -267q0 -167 -95 -269.5t-251 -102.5h-293v303h-61v136h61v301h293zM364 163q61 0 98.5 57.5t37.5 151.5q0 92 -37.5 148.5t-98.5 56.5h-101v-138h111v-136h-111v-140h101z" />
    <glyph glyph-name="dcroat" unicode="&#x111;" horiz-adv-x="627" 
d="M639 722v-136h-60v-586h-184l-3 53q-49 -63 -131 -63q-99 0 -168 78.5t-69 203.5q0 126 69 206.5t168 80.5q77 0 126 -57v84h-118v136h118v58h192v-58h60zM304 154q37 0 60 33t23 87t-23 87.5t-60 33.5t-59.5 -33.5t-22.5 -88.5q0 -53 22.5 -86t59.5 -33z" />
    <glyph glyph-name="Emacron" unicode="&#x112;" horiz-adv-x="613" 
d="M500 945v-150h-368v150h368zM263 163h311v-163h-509v740h503v-163h-305v-122h269v-163h-269v-129z" />
    <glyph glyph-name="emacron" unicode="&#x113;" horiz-adv-x="573" 
d="M471 754v-150h-368v150h368zM550 283q0 -39 -5 -76h-319q5 -33 20.5 -50t47.5 -17q47 0 75 41l149 -72q-31 -53 -89.5 -86t-131.5 -33q-123 0 -198 76t-75 201q0 131 72.5 211.5t190.5 80.5q119 0 191 -76t72 -200zM287 409q-49 0 -60 -74h123q-11 74 -63 74z" />
    <glyph glyph-name="Edotaccent" unicode="&#x116;" horiz-adv-x="613" 
d="M316 786q-47 0 -77.5 31t-30.5 78q0 48 30.5 79t77.5 31t77.5 -31t30.5 -79q0 -47 -30.5 -78t-77.5 -31zM263 163h311v-163h-509v740h503v-163h-305v-122h269v-163h-269v-129z" />
    <glyph glyph-name="edotaccent" unicode="&#x117;" horiz-adv-x="573" 
d="M287 595q-47 0 -77.5 31t-30.5 78q0 48 30.5 79t77.5 31t77.5 -31t30.5 -79q0 -47 -30.5 -78t-77.5 -31zM550 283q0 -39 -5 -76h-319q5 -33 20.5 -50t47.5 -17q47 0 75 41l149 -72q-31 -53 -89.5 -86t-131.5 -33q-123 0 -198 76t-75 201q0 131 72.5 211.5t190.5 80.5
q119 0 191 -76t72 -200zM287 409q-49 0 -60 -74h123q-11 74 -63 74z" />
    <glyph glyph-name="Eogonek" unicode="&#x118;" horiz-adv-x="613" 
d="M561 -111l15 -91q-38 -28 -95 -28q-49 0 -79 27t-30 71q0 67 74 132h-381v740h503v-163h-305v-122h269v-163h-269v-129h311v-163q-67 -49 -67 -99q0 -24 23 -24q19 0 31 12z" />
    <glyph glyph-name="eogonek" unicode="&#x119;" horiz-adv-x="573" 
d="M550 283q0 -39 -5 -76h-319q5 -33 20.5 -50t47.5 -17q47 0 75 41l149 -72q-46 -81 -146 -109q-67 -49 -67 -99q0 -24 23 -24q19 0 31 12l15 -91q-38 -28 -95 -28q-49 0 -79 27t-30 71q0 65 68 127q-98 17 -156 90t-58 182q0 131 72.5 211.5t190.5 80.5q119 0 191 -76
t72 -200zM287 409q-49 0 -60 -74h123q-11 74 -63 74z" />
    <glyph glyph-name="Ecaron" unicode="&#x11a;" horiz-adv-x="613" 
d="M227 808l-120 172h166l43 -59l42 59h166l-120 -172h-177zM263 163h311v-163h-509v740h503v-163h-305v-122h269v-163h-269v-129z" />
    <glyph glyph-name="ecaron" unicode="&#x11b;" horiz-adv-x="573" 
d="M198 617l-120 172h166l43 -59l42 59h166l-120 -172h-177zM550 283q0 -39 -5 -76h-319q5 -33 20.5 -50t47.5 -17q47 0 75 41l149 -72q-31 -53 -89.5 -86t-131.5 -33q-123 0 -198 76t-75 201q0 131 72.5 211.5t190.5 80.5q119 0 191 -76t72 -200zM287 409q-49 0 -60 -74
h123q-11 74 -63 74z" />
    <glyph glyph-name="Gbreve" unicode="&#x11e;" horiz-adv-x="754" 
d="M392 800q-84 0 -135.5 49.5t-51.5 130.5h142q0 -32 12.5 -52t32.5 -20t32.5 20t12.5 52h141q0 -81 -51 -130.5t-135 -49.5zM735 438q3 -35 3 -68q0 -170 -94 -275t-252 -105q-163 0 -263 104.5t-100 275.5q0 172 99 276t264 104q161 0 253 -86l-130 -123q-33 46 -120 46
q-73 0 -117.5 -60t-44.5 -157q0 -98 44 -157.5t116 -59.5q55 0 91 33t47 89h-124v163h328z" />
    <glyph glyph-name="gbreve" unicode="&#x11f;" horiz-adv-x="627" 
d="M313 609q-84 0 -135.5 49.5t-51.5 130.5h142q0 -32 12.5 -52t32.5 -20t32.5 20t12.5 52h141q0 -81 -51 -130.5t-135 -49.5zM396 549h184v-500q0 -126 -87 -202.5t-232 -76.5q-139 0 -223 67l41 150q73 -53 178 -53q58 0 94 31t37 82q-49 -57 -126 -57q-99 0 -168 80.5
t-69 206.5q0 125 69 203.5t168 78.5q83 0 131 -64zM305 154q37 0 60 33.5t23 86.5q0 55 -22.5 88t-60.5 33q-37 0 -59.5 -33.5t-22.5 -86.5q0 -54 22.5 -87.5t59.5 -33.5z" />
    <glyph glyph-name="Gdotaccent" unicode="&#x120;" horiz-adv-x="754" 
d="M392 786q-47 0 -77.5 31t-30.5 78q0 48 30.5 79t77.5 31t77.5 -31t30.5 -79q0 -47 -30.5 -78t-77.5 -31zM735 438q3 -35 3 -68q0 -170 -94 -275t-252 -105q-163 0 -263 104.5t-100 275.5q0 172 99 276t264 104q161 0 253 -86l-130 -123q-33 46 -120 46q-73 0 -117.5 -60
t-44.5 -157q0 -98 44 -157.5t116 -59.5q55 0 91 33t47 89h-124v163h328z" />
    <glyph glyph-name="gdotaccent" unicode="&#x121;" horiz-adv-x="627" 
d="M313 595q-47 0 -77.5 31t-30.5 78q0 48 30.5 79t77.5 31t77.5 -31t30.5 -79q0 -47 -30.5 -78t-77.5 -31zM396 549h184v-500q0 -126 -87 -202.5t-232 -76.5q-139 0 -223 67l41 150q73 -53 178 -53q58 0 94 31t37 82q-49 -57 -126 -57q-99 0 -168 80.5t-69 206.5
q0 125 69 203.5t168 78.5q83 0 131 -64zM305 154q37 0 60 33.5t23 86.5q0 55 -22.5 88t-60.5 33q-37 0 -59.5 -33.5t-22.5 -86.5q0 -54 22.5 -87.5t59.5 -33.5z" />
    <glyph glyph-name="Gcommaaccent" unicode="&#x122;" horiz-adv-x="754" 
d="M735 438q3 -35 3 -68q0 -170 -94 -275t-252 -105q-163 0 -263 104.5t-100 275.5q0 172 99 276t264 104q161 0 253 -86l-130 -123q-33 46 -120 46q-73 0 -117.5 -60t-44.5 -157q0 -98 44 -157.5t116 -59.5q55 0 91 33t47 89h-124v163h328zM262 -220l28 168h170l-54 -168
h-144z" />
    <glyph glyph-name="gcommaaccent" unicode="&#x123;" horiz-adv-x="627" 
d="M418 780l-31 -187h-171l58 187h144zM396 549h184v-500q0 -126 -87 -202.5t-232 -76.5q-139 0 -223 67l41 150q73 -53 178 -53q58 0 94 31t37 82q-49 -57 -126 -57q-99 0 -168 80.5t-69 206.5q0 125 69 203.5t168 78.5q83 0 131 -64zM305 154q37 0 60 33.5t23 86.5
q0 55 -22.5 88t-60.5 33q-37 0 -59.5 -33.5t-22.5 -86.5q0 -54 22.5 -87.5t59.5 -33.5z" />
    <glyph glyph-name="Hbar" unicode="&#x126;" horiz-adv-x="814" 
d="M802 665v-136h-53v-529h-197v296h-289v-296h-198v529h-52v136h52v75h198v-75h289v75h197v-75h53zM552 459v70h-289v-70h289z" />
    <glyph glyph-name="hbar" unicode="&#x127;" horiz-adv-x="610" 
d="M377 559q86 0 138.5 -55t52.5 -145v-359h-192v331q0 29 -18.5 46.5t-49.5 17.5t-49.5 -17.5t-18.5 -46.5v-331h-192v586h-59v136h59v58h192v-58h119v-136h-119v-85q58 58 137 58z" />
    <glyph glyph-name="Imacron" unicode="&#x12a;" horiz-adv-x="328" 
d="M-21 795v150h368v-150h-368zM65 0v740h198v-740h-198z" />
    <glyph glyph-name="imacron" unicode="&#x12b;" horiz-adv-x="287" 
d="M-39 603v150h368v-150h-368zM48 0v548h191v-548h-191z" />
    <glyph glyph-name="Iogonek" unicode="&#x12e;" horiz-adv-x="328" 
d="M250 -111l15 -91q-38 -28 -95 -28q-49 0 -79 27t-30 71q0 67 74 132h-70v740h198v-740q-67 -49 -67 -99q0 -24 23 -24q19 0 31 12z" />
    <glyph glyph-name="iogonek" unicode="&#x12f;" horiz-adv-x="287" 
d="M145 594q-47 0 -77.5 31t-30.5 78q0 48 30.5 79t77.5 31t77.5 -31t30.5 -79q0 -47 -30.5 -78t-77.5 -31zM195 -123q19 0 31 12l15 -91q-39 -28 -95 -28q-49 0 -79 27t-30 71q0 67 74 132h-63v548h191v-548q-67 -49 -67 -99q0 -24 23 -24z" />
    <glyph glyph-name="Idotaccent" unicode="&#x130;" horiz-adv-x="328" 
d="M163 786q-47 0 -77.5 31t-30.5 78q0 48 30.5 79t77.5 31t77.5 -31t30.5 -79q0 -47 -30.5 -78t-77.5 -31zM65 0v740h198v-740h-198z" />
    <glyph glyph-name="idotless" unicode="&#x131;" horiz-adv-x="287" 
d="M48 0v548h191v-548h-191z" />
    <glyph glyph-name="Kcommaaccent" unicode="&#x136;" horiz-adv-x="667" 
d="M422 380l262 -380h-232l-189 283v-283h-198v740h198v-262l174 262h231zM231 -220l28 168h170l-54 -168h-144z" />
    <glyph glyph-name="kcommaaccent" unicode="&#x137;" horiz-adv-x="586" 
d="M240 193v-193h-192v780h192v-398l119 167h234l-201 -260l213 -289h-235zM189 -220l28 168h170l-54 -168h-144z" />
    <glyph glyph-name="Lacute" unicode="&#x139;" horiz-adv-x="546" 
d="M392 980l-187 -172h-160l127 172h220zM263 163h269v-163h-467v740h198v-577z" />
    <glyph glyph-name="lacute" unicode="&#x13a;" horiz-adv-x="287" 
d="M27 848l127 172h220l-187 -172h-160zM48 0v780h192v-780h-192z" />
    <glyph glyph-name="Lcommaaccent" unicode="&#x13b;" horiz-adv-x="546" 
d="M263 163h269v-163h-467v740h198v-577zM158 -220l28 168h170l-54 -168h-144z" />
    <glyph glyph-name="lcommaaccent" unicode="&#x13c;" horiz-adv-x="287" 
d="M48 0v780h192v-780h-192zM23 -220l28 168h170l-54 -168h-144z" />
    <glyph glyph-name="Lcaron" unicode="&#x13d;" horiz-adv-x="552" 
d="M263 740v-577h269v-163h-467v740h198zM550 740l-66 -228h-172l40 228h198z" />
    <glyph glyph-name="lcaron" unicode="&#x13e;" horiz-adv-x="310" 
d="M48 0v780h191v-780h-191zM282 593l32 187h170l-58 -187h-144z" />
    <glyph glyph-name="Lslash" unicode="&#x141;" horiz-adv-x="546" 
d="M263 163h269v-163h-467v215l-35 -26v152l35 26v373h198v-250l89 67v-153l-89 -67v-174z" />
    <glyph glyph-name="lslash" unicode="&#x142;" horiz-adv-x="287" 
d="M306 557v-153l-66 -50v-354h-192v237l-64 -48v152l64 48v391h192v-273z" />
    <glyph glyph-name="Nacute" unicode="&#x143;" horiz-adv-x="812" 
d="M288 808l127 172h220l-187 -172h-160zM65 0v740h122l367 -379l-5 379h198v-740h-121l-367 379l4 -379h-198z" />
    <glyph glyph-name="nacute" unicode="&#x144;" horiz-adv-x="610" 
d="M540 789l-187 -172h-160l127 172h220zM377 559q86 0 138.5 -55t52.5 -145v-359h-192v331q0 29 -18.5 46.5t-49.5 17.5t-49.5 -17.5t-18.5 -46.5v-331h-192v549h185l2 -53q59 63 142 63z" />
    <glyph glyph-name="Ncommaaccent" unicode="&#x145;" horiz-adv-x="812" 
d="M65 0v740h122l367 -379l-5 379h198v-740h-121l-367 379l4 -379h-198zM285 -220l28 168h170l-54 -168h-144z" />
    <glyph glyph-name="ncommaaccent" unicode="&#x146;" horiz-adv-x="610" 
d="M377 559q86 0 138.5 -55t52.5 -145v-359h-192v331q0 29 -18.5 46.5t-49.5 17.5t-49.5 -17.5t-18.5 -46.5v-331h-192v549h185l2 -53q59 63 142 63zM186 -220l28 168h170l-54 -168h-144z" />
    <glyph glyph-name="Ncaron" unicode="&#x147;" horiz-adv-x="812" 
d="M317 808l-120 172h166l43 -59l42 59h166l-120 -172h-177zM549 740h198v-740h-121l-367 379l4 -379h-198v740h122l367 -379z" />
    <glyph glyph-name="ncaron" unicode="&#x148;" horiz-adv-x="610" 
d="M222 617l-120 172h166l43 -59l42 59h166l-120 -172h-177zM377 559q86 0 138.5 -55t52.5 -145v-359h-192v331q0 29 -18.5 46.5t-49.5 17.5t-49.5 -17.5t-18.5 -46.5v-331h-192v549h185l2 -53q59 63 142 63z" />
    <glyph glyph-name="Eng" unicode="&#x14a;" horiz-adv-x="812" 
d="M549 740h198v-794q0 -78 -57 -127t-144 -49q-91 0 -145 55l52 132q25 -24 52 -24q21 0 32.5 12t11.5 32v103l-290 299l4 -379h-198v740h122l367 -379z" />
    <glyph glyph-name="eng" unicode="&#x14b;" horiz-adv-x="610" 
d="M377 559q86 0 138.5 -55t52.5 -145v-421q0 -76 -49 -122t-129 -46q-68 0 -111 18l13 148q24 -2 37 -2q21 0 34 13.5t13 35.5v348q0 29 -18.5 46.5t-49.5 17.5t-49.5 -17.5t-18.5 -46.5v-331h-192v549h185l2 -53q59 63 142 63z" />
    <glyph glyph-name="Omacron" unicode="&#x14c;" horiz-adv-x="797" 
d="M216 795v150h368v-150h-368zM400 -10q-167 0 -269 104.5t-102 275.5t102 275.5t269 104.5q165 0 266.5 -104.5t101.5 -275.5t-101.5 -275.5t-266.5 -104.5zM400 153q74 0 119.5 60t45.5 157t-45.5 157t-119.5 60q-75 0 -121 -60t-46 -157t46 -157t121 -60z" />
    <glyph glyph-name="omacron" unicode="&#x14d;" horiz-adv-x="608" 
d="M121 604v150h368v-150h-368zM305 -10q-127 0 -204 78t-77 206t77 206.5t204 78.5q125 0 202 -78.5t77 -206.5q0 -127 -77 -205.5t-202 -78.5zM304 154q37 0 59 33t22 87q0 55 -22 88t-59 33t-59.5 -33t-22.5 -88q0 -53 22.5 -86.5t59.5 -33.5z" />
    <glyph glyph-name="Ohungarumlaut" unicode="&#x150;" horiz-adv-x="797" 
d="M197 808l96 172h219l-154 -172h-161zM427 808l95 172h219l-153 -172h-161zM400 -10q-167 0 -269 104.5t-102 275.5t102 275.5t269 104.5q165 0 266.5 -104.5t101.5 -275.5t-101.5 -275.5t-266.5 -104.5zM400 153q74 0 119.5 60t45.5 157t-45.5 157t-119.5 60
q-75 0 -121 -60t-46 -157t46 -157t121 -60z" />
    <glyph glyph-name="ohungarumlaut" unicode="&#x151;" horiz-adv-x="608" 
d="M102 617l96 172h219l-154 -172h-161zM332 617l95 172h219l-153 -172h-161zM305 -10q-127 0 -204 78t-77 206t77 206.5t204 78.5q125 0 202 -78.5t77 -206.5q0 -127 -77 -205.5t-202 -78.5zM304 154q37 0 59 33t22 87q0 55 -22 88t-59 33t-59.5 -33t-22.5 -88
q0 -53 22.5 -86.5t59.5 -33.5z" />
    <glyph glyph-name="OE" unicode="&#x152;" horiz-adv-x="1120" 
d="M769 163h312v-163h-509v42q-80 -52 -186 -52q-160 0 -258 104.5t-98 275.5t98 275.5t258 104.5q106 0 186 -52v42h503v-163h-306v-122h270v-163h-270v-129zM401 153q74 0 119.5 60t45.5 157t-45.5 157t-119.5 60q-75 0 -121 -60t-46 -157t46 -157t121 -60z" />
    <glyph glyph-name="oe" unicode="&#x153;" horiz-adv-x="936" 
d="M912 283q0 -47 -4 -76h-320q5 -34 20.5 -50.5t48.5 -16.5q46 0 74 41l149 -72q-29 -54 -83.5 -86.5t-122.5 -32.5q-121 0 -190 90q-69 -90 -193 -90q-120 0 -193 78t-73 206t73 206.5t193 78.5q123 0 194 -91q64 91 179 91q112 0 180 -76t68 -200zM649 409q-49 0 -60 -74
h124q-11 74 -64 74zM305 154q37 0 59 33t22 87q0 55 -22 88t-59 33t-59.5 -33t-22.5 -88q0 -53 22.5 -86.5t59.5 -33.5z" />
    <glyph glyph-name="Racute" unicode="&#x154;" horiz-adv-x="693" 
d="M545 980l-187 -172h-160l127 172h220zM457 0l-131 246h-63v-246h-198v740h307q115 0 186 -68t71 -179q0 -134 -109 -202l168 -291h-231zM263 577v-168h69q42 0 68 23t26 61t-20.5 61t-54.5 23h-88z" />
    <glyph glyph-name="racute" unicode="&#x155;" horiz-adv-x="408" 
d="M447 789l-187 -172h-160l127 172h220zM236 491q63 68 165 68l-12 -177q-64 0 -106.5 -30.5t-42.5 -77.5v-274h-192v549h185z" />
    <glyph glyph-name="Rcommaaccent" unicode="&#x156;" horiz-adv-x="693" 
d="M520 291l168 -291h-231l-131 246h-63v-246h-198v740h307q115 0 186 -68t71 -179q0 -134 -109 -202zM263 577v-168h69q42 0 68 23t26 61t-20.5 61t-54.5 23h-88zM238 -220l28 168h170l-54 -168h-144z" />
    <glyph glyph-name="rcommaaccent" unicode="&#x157;" horiz-adv-x="408" 
d="M236 491q63 68 165 68l-12 -177q-64 0 -106.5 -30.5t-42.5 -77.5v-274h-192v549h185zM70 -220l28 168h170l-54 -168h-144z" />
    <glyph glyph-name="Rcaron" unicode="&#x158;" horiz-adv-x="693" 
d="M227 808l-120 172h166l43 -59l42 59h166l-120 -172h-177zM457 0l-131 246h-63v-246h-198v740h307q115 0 186 -68t71 -179q0 -134 -109 -202l168 -291h-231zM263 577v-168h69q42 0 68 23t26 61t-20.5 61t-54.5 23h-88z" />
    <glyph glyph-name="rcaron" unicode="&#x159;" horiz-adv-x="408" 
d="M129 617l-120 172h166l43 -59l42 59h166l-120 -172h-177zM236 491q63 68 165 68l-12 -177q-64 0 -106.5 -30.5t-42.5 -77.5v-274h-192v549h185z" />
    <glyph glyph-name="Sacute" unicode="&#x15a;" horiz-adv-x="616" 
d="M190 808l127 172h220l-187 -172h-160zM309 -10q-149 0 -261 98l72 133q84 -68 174 -68q86 0 86 51q0 25 -24.5 42.5t-74.5 33.5l-30 9q-106 34 -160.5 83t-54.5 135q0 109 74.5 176t196.5 67q133 0 245 -85l-85 -137q-79 59 -152 59q-35 0 -54.5 -13t-19.5 -35
q0 -23 24 -38.5t74 -31.5l29 -10q216 -71 216 -235q0 -105 -76 -169.5t-199 -64.5z" />
    <glyph glyph-name="sacute" unicode="&#x15b;" horiz-adv-x="499" 
d="M134 617l127 172h220l-187 -172h-160zM239 -10q-128 0 -209 71l71 115q65 -37 133 -37q39 0 39 22q0 21 -62 38l-27 8q-76 22 -114 55.5t-38 96.5q0 90 60 145t159 55q130 0 209 -59l-80 -125q-53 34 -108 34q-45 0 -45 -20q0 -18 53 -33l27 -8q79 -24 120 -63t41 -110
q0 -84 -63.5 -134.5t-165.5 -50.5z" />
    <glyph glyph-name="Scedilla" unicode="&#x15e;" horiz-adv-x="616" 
d="M584 224q0 -94 -60.5 -155.5t-163.5 -75.5l-21 -39q36 -6 57 -29.5t21 -57.5q0 -43 -35 -70t-95 -27q-55 0 -94 22l31 66q20 -13 43 -13q32 0 32 21q0 18 -25 18q-12 0 -24 -7l-23 41l32 75q-118 15 -211 95l72 133q84 -68 174 -68q86 0 86 51q0 25 -24.5 42.5
t-74.5 33.5l-30 9q-106 34 -160.5 83t-54.5 135q0 109 74.5 176t196.5 67q133 0 245 -85l-85 -137q-79 59 -152 59q-35 0 -54.5 -13t-19.5 -35q0 -23 24 -38.5t74 -31.5l29 -10q216 -71 216 -235z" />
    <glyph glyph-name="scedilla" unicode="&#x15f;" horiz-adv-x="499" 
d="M468 175q0 -70 -45.5 -118t-122.5 -62l-22 -41q36 -6 57 -29.5t21 -57.5q0 -43 -35 -70t-95 -27q-56 0 -94 22l31 66q20 -13 43 -13q32 0 32 21q0 18 -25 18q-12 0 -24 -7l-23 41l32 74q-101 11 -168 69l71 115q65 -37 133 -37q39 0 39 22q0 21 -62 38l-27 8
q-76 22 -114 55.5t-38 96.5q0 90 60 145t159 55q130 0 209 -59l-80 -125q-53 34 -108 34q-45 0 -45 -20q0 -18 53 -33l27 -8q79 -24 120 -63t41 -110z" />
    <glyph glyph-name="Scaron" unicode="&#x160;" horiz-adv-x="616" 
d="M219 808l-120 172h166l43 -59l42 59h166l-120 -172h-177zM368 459q216 -71 216 -235q0 -105 -76 -169.5t-199 -64.5q-149 0 -261 98l72 133q84 -68 174 -68q86 0 86 51q0 25 -24.5 42.5t-74.5 33.5l-30 9q-106 34 -160.5 83t-54.5 135q0 109 74.5 176t196.5 67
q133 0 245 -85l-85 -137q-79 59 -152 59q-35 0 -54.5 -13t-19.5 -35q0 -23 24 -38.5t74 -31.5z" />
    <glyph glyph-name="scaron" unicode="&#x161;" horiz-adv-x="499" 
d="M163 617l-120 172h166l43 -59l42 59h166l-120 -172h-177zM307 348q79 -24 120 -63t41 -110q0 -84 -63.5 -134.5t-165.5 -50.5q-128 0 -209 71l71 115q65 -37 133 -37q39 0 39 22q0 21 -62 38l-27 8q-76 22 -114 55.5t-38 96.5q0 90 60 145t159 55q130 0 209 -59l-80 -125
q-53 34 -108 34q-45 0 -45 -20q0 -18 53 -33z" />
    <glyph glyph-name="Tcedilla" unicode="&#x162;" horiz-adv-x="606" 
d="M402 0h-46l-25 -46q36 -6 57 -29.5t21 -57.5q0 -43 -35 -70t-95 -27q-55 0 -94 22l31 66q20 -13 43 -13q32 0 32 21q0 18 -25 18q-12 0 -24 -7l-23 41l35 82h-50v577h-189v163h576v-163h-189v-577z" />
    <glyph glyph-name="tcedilla" unicode="&#x163;" horiz-adv-x="433" 
d="M268 -10q-13 0 -20 1l-20 -37q36 -6 57 -29.5t21 -57.5q0 -43 -35 -70t-95 -27q-55 0 -94 22l31 66q20 -13 43 -13q32 0 32 21q0 18 -25 18q-12 0 -24 -7l-23 41l44 104q-66 48 -66 142v228h-77v157h77v160h192v-160h108v-157h-108v-188q0 -22 12.5 -36t32.5 -14
q35 0 71 16v-154q-66 -26 -134 -26z" />
    <glyph glyph-name="Tcaron" unicode="&#x164;" horiz-adv-x="606" 
d="M214 808l-120 172h166l43 -59l42 59h166l-120 -172h-177zM591 740v-163h-189v-577h-198v577h-189v163h576z" />
    <glyph glyph-name="tcaron" unicode="&#x165;" horiz-adv-x="433" 
d="M355 780h170l-58 -187h-143zM286 204q0 -22 12.5 -36t32.5 -14q35 0 71 16v-154q-66 -26 -134 -26q-78 0 -126 47.5t-48 126.5v228h-77v157h77v160h192v-160h108v-157h-108v-188z" />
    <glyph glyph-name="Tbar" unicode="&#x166;" horiz-adv-x="606" 
d="M591 577h-189v-147h86v-136h-86v-294h-198v294h-86v136h86v147h-189v163h576v-163z" />
    <glyph glyph-name="tbar" unicode="&#x167;" horiz-adv-x="435" 
d="M331 154q35 0 71 16v-154q-66 -26 -134 -26q-78 0 -126 47.5t-48 126.5v46h-72v135h72v47h-77v157h77v160h192v-160h108v-157h-108v-47h99v-135h-99v-6q0 -22 12.5 -36t32.5 -14z" />
    <glyph glyph-name="Umacron" unicode="&#x16a;" horiz-adv-x="741" 
d="M187 795v150h368v-150h-368zM371 -10q-141 0 -227 76t-86 200v474h197v-465q0 -55 32 -88.5t85 -33.5q51 0 82.5 33.5t31.5 88.5v465h198v-474q0 -124 -86 -200t-227 -76z" />
    <glyph glyph-name="umacron" unicode="&#x16b;" horiz-adv-x="585" 
d="M474 754v-150h-368v150h368zM345 549h192v-549h-184l-3 49q-55 -59 -129 -59q-80 0 -129 54.5t-49 144.5v360h192v-332q0 -28 15 -45.5t40 -17.5t40 17.5t15 45.5v332z" />
    <glyph glyph-name="Uring" unicode="&#x16e;" horiz-adv-x="741" 
d="M371 775q-53 0 -84.5 30.5t-31.5 80.5q0 49 31.5 79t84.5 30q52 0 83.5 -30t31.5 -79q0 -50 -31.5 -80.5t-83.5 -30.5zM371 858q21 0 21 28q0 11 -6 18.5t-15 7.5t-15.5 -7.5t-6.5 -18.5q0 -12 6.5 -20t15.5 -8zM371 -10q-141 0 -227 76t-86 200v474h197v-465
q0 -55 32 -88.5t85 -33.5q51 0 82.5 33.5t31.5 88.5v465h198v-474q0 -124 -86 -200t-227 -76z" />
    <glyph glyph-name="uring" unicode="&#x16f;" horiz-adv-x="585" 
d="M290 584q-53 0 -84.5 30.5t-31.5 80.5q0 49 31.5 79t84.5 30q52 0 83.5 -30t31.5 -79q0 -50 -31.5 -80.5t-83.5 -30.5zM290 721q-9 0 -15.5 -7.5t-6.5 -18.5q0 -12 6.5 -20t15.5 -8q21 0 21 28q0 11 -6 18.5t-15 7.5zM345 549h192v-549h-184l-3 49q-55 -59 -129 -59
q-80 0 -129 54.5t-49 144.5v360h192v-332q0 -28 15 -45.5t40 -17.5t40 17.5t15 45.5v332z" />
    <glyph glyph-name="Uhungarumlaut" unicode="&#x170;" horiz-adv-x="741" 
d="M168 808l96 172h219l-154 -172h-161zM398 808l95 172h219l-153 -172h-161zM371 -10q-141 0 -227 76t-86 200v474h197v-465q0 -55 32 -88.5t85 -33.5q51 0 82.5 33.5t31.5 88.5v465h198v-474q0 -124 -86 -200t-227 -76z" />
    <glyph glyph-name="uhungarumlaut" unicode="&#x171;" horiz-adv-x="585" 
d="M402 789l-154 -172h-161l96 172h219zM478 617h-161l95 172h219zM345 217v332h192v-549h-184l-3 49q-55 -59 -129 -59q-80 0 -129 54.5t-49 144.5v360h192v-332q0 -28 15 -45.5t40 -17.5t40 17.5t15 45.5z" />
    <glyph glyph-name="Uogonek" unicode="&#x172;" horiz-adv-x="741" 
d="M486 740h198v-474q0 -102 -59.5 -172.5t-162.5 -93.5q-66 -50 -66 -99q0 -24 23 -24q19 0 31 12l15 -91q-38 -28 -95 -28q-49 0 -79 27t-30 71q0 64 65 124q-123 12 -195.5 86t-72.5 188v474h197v-465q0 -55 32 -88.5t85 -33.5q51 0 82.5 33.5t31.5 88.5v465z" />
    <glyph glyph-name="uogonek" unicode="&#x173;" horiz-adv-x="585" 
d="M524 -111l15 -91q-39 -28 -95 -28q-49 0 -79 27t-30 71q0 67 74 132h-56l-3 49q-55 -59 -129 -59q-80 0 -129 54.5t-49 144.5v360h192v-332q0 -28 15 -45.5t40 -17.5t40 17.5t15 45.5v332h192v-549q-67 -49 -67 -99q0 -24 23 -24q19 0 31 12z" />
    <glyph glyph-name="Wcircumflex" unicode="&#x174;" horiz-adv-x="1061" 
d="M531 867l-43 -59h-166l120 172h177l120 -172h-166zM854 740h211l-220 -740h-183l-132 437l-130 -437h-183l-221 740h211l111 -475l121 475h182l122 -475z" />
    <glyph glyph-name="wcircumflex" unicode="&#x175;" horiz-adv-x="836" 
d="M418 677l-43 -59h-166l120 172h177l120 -172h-166zM626 549h209l-170 -549h-190l-57 241l-57 -241h-191l-169 549h209l70 -332l61 332h154l61 -332z" />
    <glyph glyph-name="Ycircumflex" unicode="&#x176;" horiz-adv-x="662" 
d="M332 867l-43 -59h-166l120 172h177l120 -172h-166zM448 740h210l-228 -491v-249h-198v249l-228 491h210l118 -316z" />
    <glyph glyph-name="ycircumflex" unicode="&#x177;" horiz-adv-x="580" 
d="M294 676l-43 -59h-166l120 172h177l120 -172h-166zM374 549h209l-200 -574q-36 -104 -87 -154.5t-138 -50.5q-53 0 -89 18l18 154q18 -8 39 -8q46 0 69 64l6 18l-201 533h209l89 -326z" />
    <glyph glyph-name="Ydieresis" unicode="&#x178;" horiz-adv-x="662" 
d="M199 786q-47 0 -77.5 31t-30.5 78q0 48 30.5 79t77.5 31t77.5 -31t30.5 -79q0 -47 -30.5 -78t-77.5 -31zM466 786q-48 0 -78.5 31t-30.5 78q0 48 30.5 79t78.5 31q47 0 77 -31t30 -79q0 -47 -30.5 -78t-76.5 -31zM448 740h210l-228 -491v-249h-198v249l-228 491h210
l118 -316z" />
    <glyph glyph-name="Zacute" unicode="&#x179;" horiz-adv-x="643" 
d="M549 980l-187 -172h-160l127 172h220zM295 163h316v-163h-578v122l306 455h-300v163h563v-121z" />
    <glyph glyph-name="zacute" unicode="&#x17a;" horiz-adv-x="529" 
d="M147 617l127 172h220l-187 -172h-160zM35 0v123l194 269h-189v157h448l1 -122l-194 -269h201v-158h-461z" />
    <glyph glyph-name="Zdotaccent" unicode="&#x17b;" horiz-adv-x="643" 
d="M320 786q-47 0 -77.5 31t-30.5 78q0 48 30.5 79t77.5 31t77.5 -31t30.5 -79q0 -47 -30.5 -78t-77.5 -31zM295 163h316v-163h-578v122l306 455h-300v163h563v-121z" />
    <glyph glyph-name="zdotaccent" unicode="&#x17c;" horiz-adv-x="529" 
d="M265 595q-47 0 -77.5 31t-30.5 78q0 48 30.5 79t77.5 31t77.5 -31t30.5 -79q0 -47 -30.5 -78t-77.5 -31zM35 0v123l194 269h-189v157h448l1 -122l-194 -269h201v-158h-461z" />
    <glyph glyph-name="Zcaron" unicode="&#x17d;" horiz-adv-x="643" 
d="M231 808l-120 172h166l43 -59l42 59h166l-120 -172h-177zM295 163h316v-163h-578v122l306 455h-300v163h563v-121z" />
    <glyph glyph-name="zcaron" unicode="&#x17e;" horiz-adv-x="529" 
d="M176 617l-120 172h166l43 -59l42 59h166l-120 -172h-177zM295 158h201v-158h-461v123l194 269h-189v157h448l1 -122z" />
    <glyph glyph-name="florin" unicode="&#x192;" horiz-adv-x="483" 
d="M400 587q-29 0 -40 -14.5t-16 -47.5l-16 -100h109v-157h-133l-58 -368h-192l60 368h-70v157h95l26 159q13 80 68.5 123t134.5 43q61 0 101 -18l-21 -154q-20 9 -48 9z" />
    <glyph glyph-name="Scommaaccent" unicode="&#x218;" horiz-adv-x="616" 
d="M309 -10q-149 0 -261 98l72 133q84 -68 174 -68q86 0 86 51q0 25 -24.5 42.5t-74.5 33.5l-30 9q-106 34 -160.5 83t-54.5 135q0 109 74.5 176t196.5 67q133 0 245 -85l-85 -137q-79 59 -152 59q-35 0 -54.5 -13t-19.5 -35q0 -23 24 -38.5t74 -31.5l29 -10
q216 -71 216 -235q0 -105 -76 -169.5t-199 -64.5zM189 -220l28 168h170l-54 -168h-144z" />
    <glyph glyph-name="scommaaccent" unicode="&#x219;" horiz-adv-x="499" 
d="M239 -10q-128 0 -209 71l71 115q65 -37 133 -37q39 0 39 22q0 21 -62 38l-27 8q-76 22 -114 55.5t-38 96.5q0 90 60 145t159 55q130 0 209 -59l-80 -125q-53 34 -108 34q-45 0 -45 -20q0 -18 53 -33l27 -8q79 -24 120 -63t41 -110q0 -84 -63.5 -134.5t-165.5 -50.5z
M128 -220l28 168h170l-54 -168h-144z" />
    <glyph glyph-name="Tcommaaccent" unicode="&#x21a;" horiz-adv-x="606" 
d="M591 740v-163h-189v-577h-198v577h-189v163h576zM181 -220l28 168h170l-54 -168h-144z" />
    <glyph glyph-name="tcommaaccent" unicode="&#x21b;" horiz-adv-x="433" 
d="M331 154q35 0 71 16v-154q-66 -26 -134 -26q-78 0 -126 47.5t-48 126.5v228h-77v157h77v160h192v-160h108v-157h-108v-188q0 -22 12.5 -36t32.5 -14zM114 -220l28 168h170l-54 -168h-144z" />
    <glyph glyph-name="circumflex" unicode="&#x2c6;" horiz-adv-x="600" 
d="M440 617h-166l-42 59l-43 -59h-166l120 172h177z" />
    <glyph glyph-name="caron" unicode="&#x2c7;" horiz-adv-x="600" 
d="M274 789h166l-120 -172h-177l-120 172h166l43 -59z" />
    <glyph glyph-name="breve" unicode="&#x2d8;" horiz-adv-x="600" 
d="M203 609q-84 0 -135.5 49.5t-51.5 130.5h142q0 -32 12.5 -52t32.5 -20t32.5 20t12.5 52h141q0 -81 -51 -130.5t-135 -49.5z" />
    <glyph glyph-name="dotaccent" unicode="&#x2d9;" horiz-adv-x="600" 
d="M139 595q-47 0 -77.5 31t-30.5 78q0 48 30.5 79t77.5 31t77.5 -31t30.5 -79q0 -47 -30.5 -78t-77.5 -31z" />
    <glyph glyph-name="ring" unicode="&#x2da;" horiz-adv-x="600" 
d="M149 584q-53 0 -84.5 30.5t-31.5 80.5q0 49 31.5 79t84.5 30q52 0 83.5 -30t31.5 -79q0 -50 -31.5 -80.5t-83.5 -30.5zM149 667q21 0 21 28q0 11 -6 18.5t-15 7.5t-15.5 -7.5t-6.5 -18.5q0 -12 6.5 -20t15.5 -8z" />
    <glyph glyph-name="ogonek" unicode="&#x2db;" horiz-adv-x="600" 
d="M142 -230q-49 0 -79 27t-30 71q0 108 202 217v-85q-67 -49 -67 -99q0 -24 23 -24q19 0 31 12l15 -91q-39 -28 -95 -28z" />
    <glyph glyph-name="tilde" unicode="&#x2dc;" horiz-adv-x="600" 
d="M278 611q-30 0 -82.5 22t-62.5 22q-23 0 -23 -34h-99q0 76 32 122t86 46q32 0 83.5 -21t61.5 -21q23 0 23 32h99q0 -80 -31.5 -124t-86.5 -44z" />
    <glyph glyph-name="hungarumlaut" unicode="&#x2dd;" horiz-adv-x="600" 
d="M91 617l96 172h219l-154 -172h-161zM321 617l95 172h219l-153 -172h-161z" />
    <glyph glyph-name="gravecomb" unicode="&#x300;" horiz-adv-x="390" 
d="M153 617l-187 172h220l128 -172h-161z" />
    <glyph glyph-name="acutecomb" unicode="&#x301;" horiz-adv-x="390" 
d="M76 617l127 172h220l-187 -172h-160z" />
    <glyph glyph-name="circumflexcomb" unicode="&#x302;" horiz-adv-x="463" 
d="M440 617h-166l-42 59l-43 -59h-166l120 172h177z" />
    <glyph glyph-name="tildecomb" unicode="&#x303;" horiz-adv-x="406" 
d="M278 611q-30 0 -82.5 22t-62.5 22q-23 0 -23 -34h-99q0 76 32 122t86 46q32 0 83.5 -21t61.5 -21q23 0 23 32h99q0 -80 -31.5 -124t-86.5 -44z" />
    <glyph glyph-name="macroncomb" unicode="&#x304;" horiz-adv-x="396" 
d="M14 604v150h368v-150h-368z" />
    <glyph glyph-name="brevecomb" unicode="&#x306;" horiz-adv-x="405" 
d="M203 609q-84 0 -135.5 49.5t-51.5 130.5h142q0 -32 12.5 -52t32.5 -20t32.5 20t12.5 52h141q0 -81 -51 -130.5t-135 -49.5z" />
    <glyph glyph-name="dotaccentcomb" unicode="&#x307;" horiz-adv-x="278" 
d="M139 595q-47 0 -77.5 31t-30.5 78q0 48 30.5 79t77.5 31t77.5 -31t30.5 -79q0 -47 -30.5 -78t-77.5 -31z" />
    <glyph glyph-name="dieresiscomb" unicode="&#x308;" horiz-adv-x="545" 
d="M139 595q-47 0 -77.5 31t-30.5 78q0 48 30.5 79t77.5 31t77.5 -31t30.5 -79q0 -47 -30.5 -78t-77.5 -31zM406 595q-48 0 -78.5 31t-30.5 78q0 48 30.5 79t78.5 31q47 0 77 -31t30 -79q0 -47 -30.5 -78t-76.5 -31z" />
    <glyph glyph-name="ringcomb" unicode="&#x30a;" horiz-adv-x="297" 
d="M149 584q-53 0 -84.5 30.5t-31.5 80.5q0 49 31.5 79t84.5 30q52 0 83.5 -30t31.5 -79q0 -50 -31.5 -80.5t-83.5 -30.5zM149 667q21 0 21 28q0 11 -6 18.5t-15 7.5t-15.5 -7.5t-6.5 -18.5q0 -12 6.5 -20t15.5 -8z" />
    <glyph glyph-name="hungarumlautcomb" unicode="&#x30b;" horiz-adv-x="587" 
d="M91 617l96 172h219l-154 -172h-161zM321 617l95 172h219l-153 -172h-161z" />
    <glyph glyph-name="caroncomb" unicode="&#x30c;" horiz-adv-x="463" 
d="M274 789h166l-120 -172h-177l-120 172h166l43 -59z" />
    <glyph glyph-name="commaturnedabovecomb" unicode="&#x312;" horiz-adv-x="281" 
d="M28 593l58 187h144l-31 -187h-171z" />
    <glyph glyph-name="commaaccentcomb" unicode="&#x326;" horiz-adv-x="281" 
d="M60 -220l28 168h170l-54 -168h-144z" />
    <glyph glyph-name="cedillacomb" unicode="&#x327;" horiz-adv-x="244" 
d="M159 -46q36 -6 57 -29.5t21 -57.5q0 -43 -35 -70t-95 -27q-55 0 -94 22l31 66q20 -13 43 -13q32 0 32 21q0 18 -25 18q-12 0 -24 -7l-23 41l35 82h102z" />
    <glyph glyph-name="ogonekcomb" unicode="&#x328;" horiz-adv-x="245" 
d="M142 -230q-49 0 -79 27t-30 71q0 108 202 217v-85q-67 -49 -67 -99q0 -24 23 -24q19 0 31 12l15 -91q-39 -28 -95 -28z" />
    <glyph glyph-name="strokeshortcomb" unicode="&#x335;" horiz-adv-x="540" 
d="M47 224v136h370v-136h-370z" />
    <glyph glyph-name="strokelongcomb" unicode="&#x336;" horiz-adv-x="823" 
d="M17 224v136h789v-136h-789z" />
    <glyph glyph-name="slashshortcomb" unicode="&#x337;" horiz-adv-x="540" 
d="M308 283v153l162 122v-153zM148 190v152l157 117v-152z" />
    <glyph glyph-name="slashlongcomb" unicode="&#x338;" horiz-adv-x="541" 
d="M137 -10l-98 60l366 700l97 -59z" />
    <glyph glyph-name="Delta" unicode="&#x394;" horiz-adv-x="789" 
d="M486 740l274 -740h-731l274 740h183zM291 163h207l-103 330z" />
    <glyph glyph-name="Omega" unicode="&#x3a9;" horiz-adv-x="748" 
d="M558 176v-13h137v-163h-292v301q49 11 78 48t29 92q0 66 -37.5 106t-97.5 40q-61 0 -98 -40t-37 -106q0 -54 28.5 -91t78.5 -49v-301h-292v163h137v14q-74 39 -115 107.5t-41 156.5q0 139 93 224t246 85q151 0 244 -85t93 -224q0 -88 -40.5 -156.5t-113.5 -108.5z" />
    <glyph glyph-name="mu" unicode="&#x3bc;" horiz-adv-x="590" 
d="M350 549h192v-549h-184l-1 23q-31 -33 -63 -33q-28 0 -54 26v-236h-192v769h192v-332q0 -28 15 -45.5t39 -17.5q25 0 40.5 17.5t15.5 45.5v332z" />
    <glyph glyph-name="pi" unicode="&#x3c0;" horiz-adv-x="644" 
d="M562 154q23 0 43 17v-153q-50 -28 -105 -28q-65 0 -105 40t-40 106v256h-84v-392h-192v392h-47v157h571v-157h-56v-216q0 -22 15 -22z" />
    <glyph glyph-name="Wgrave" unicode="&#x1e80;" horiz-adv-x="1061" 
d="M650 808h-161l-187 172h220zM854 740h211l-220 -740h-183l-132 437l-130 -437h-183l-221 740h211l111 -475l121 475h182l122 -475z" />
    <glyph glyph-name="wgrave" unicode="&#x1e81;" horiz-adv-x="836" 
d="M537 618h-161l-187 172h220zM626 549h209l-170 -549h-190l-57 241l-57 -241h-191l-169 549h209l70 -332l61 332h154l61 -332z" />
    <glyph glyph-name="Wacute" unicode="&#x1e82;" horiz-adv-x="1061" 
d="M760 980l-187 -172h-160l127 172h220zM854 740h211l-220 -740h-183l-132 437l-130 -437h-183l-221 740h211l111 -475l121 475h182l122 -475z" />
    <glyph glyph-name="wacute" unicode="&#x1e83;" horiz-adv-x="836" 
d="M647 790l-187 -172h-160l127 172h220zM626 549h209l-170 -549h-190l-57 241l-57 -241h-191l-169 549h209l70 -332l61 332h154l61 -332z" />
    <glyph glyph-name="Wdieresis" unicode="&#x1e84;" horiz-adv-x="1061" 
d="M398 786q-47 0 -77.5 31t-30.5 78q0 48 30.5 79t77.5 31t77.5 -31t30.5 -79q0 -47 -30.5 -78t-77.5 -31zM665 786q-48 0 -78.5 31t-30.5 78q0 48 30.5 79t78.5 31q47 0 77 -31t30 -79q0 -47 -30.5 -78t-76.5 -31zM854 740h211l-220 -740h-183l-132 437l-130 -437h-183
l-221 740h211l111 -475l121 475h182l122 -475z" />
    <glyph glyph-name="wdieresis" unicode="&#x1e85;" horiz-adv-x="836" 
d="M285 596q-47 0 -77.5 31t-30.5 78q0 48 30.5 79t77.5 31t77.5 -31t30.5 -79q0 -47 -30.5 -78t-77.5 -31zM552 596q-48 0 -78.5 31t-30.5 78q0 48 30.5 79t78.5 31q47 0 77 -31t30 -79q0 -47 -30.5 -78t-76.5 -31zM626 549h209l-170 -549h-190l-57 241l-57 -241h-191
l-169 549h209l70 -332l61 332h154l61 -332z" />
    <glyph glyph-name="Germandbls" unicode="&#x1e9e;" horiz-adv-x="651" 
d="M502 393q58 -27 89.5 -72.5t31.5 -102.5q0 -102 -64.5 -165t-169.5 -63q-57 0 -96 13l18 156q19 -6 42 -6q30 0 47.5 21.5t17.5 57.5t-24 58.5t-64 22.5v149q25 0 39.5 17.5t14.5 46.5q0 28 -17.5 44.5t-47.5 16.5q-28 0 -44.5 -13.5t-16.5 -36.5v-537h-197v556
q0 87 71.5 140.5t188.5 53.5q120 0 194 -54.5t74 -143.5q0 -102 -87 -159z" />
    <glyph glyph-name="Ygrave" unicode="&#x1ef2;" horiz-adv-x="662" 
d="M451 808h-161l-187 172h220zM448 740h210l-228 -491v-249h-198v249l-228 491h210l118 -316z" />
    <glyph glyph-name="ygrave" unicode="&#x1ef3;" horiz-adv-x="580" 
d="M252 617l-187 172h220l128 -172h-161zM158 -230q-53 0 -89 18l18 154q18 -8 39 -8q46 0 69 64l6 18l-201 533h209l89 -326l76 326h209l-200 -574q-36 -104 -87 -154.5t-138 -50.5z" />
    <glyph glyph-name="endash" unicode="&#x2013;" horiz-adv-x="605" 
d="M47 224v136h510v-136h-510z" />
    <glyph glyph-name="emdash" unicode="&#x2014;" horiz-adv-x="958" 
d="M47 224v136h864v-136h-864z" />
    <glyph glyph-name="quoteleft" unicode="&#x2018;" horiz-adv-x="304" 
d="M283 740l-57 -290h-200l84 290h173z" />
    <glyph glyph-name="quoteright" unicode="&#x2019;" horiz-adv-x="299" 
d="M31 450l57 290h200l-84 -290h-173z" />
    <glyph glyph-name="quotesinglbase" unicode="&#x201a;" horiz-adv-x="302" 
d="M9 -120l57 290h200l-84 -290h-173z" />
    <glyph glyph-name="quotedblleft" unicode="&#x201c;" horiz-adv-x="564" 
d="M283 741l-58 -290h-199l84 290h173zM543 741l-58 -290h-199l84 290h173z" />
    <glyph glyph-name="quotedblright" unicode="&#x201d;" horiz-adv-x="561" 
d="M31 449l57 290h200l-84 -290h-173zM291 449l57 290h200l-84 -290h-173z" />
    <glyph glyph-name="quotedblbase" unicode="&#x201e;" horiz-adv-x="563" 
d="M9 -120l57 290h200l-84 -290h-173zM269 -120l57 290h200l-84 -290h-173z" />
    <glyph glyph-name="dagger" unicode="&#x2020;" horiz-adv-x="552" 
d="M520 549v-164h-145v-605h-198v605h-145v164h145v231h198v-231h145z" />
    <glyph glyph-name="daggerdbl" unicode="&#x2021;" horiz-adv-x="552" 
d="M520 385h-145v-65h145v-163h-145v-377h-198v377h-145v163h145v65h-145v164h145v231h198v-231h145v-164z" />
    <glyph glyph-name="bullet" unicode="&#x2022;" horiz-adv-x="391" 
d="M196 152q-64 0 -103 40.5t-39 105.5q0 67 39 107.5t103 40.5t102.5 -40.5t38.5 -107.5q0 -65 -38.5 -105.5t-102.5 -40.5z" />
    <glyph glyph-name="ellipsis" unicode="&#x2026;" horiz-adv-x="872" 
d="M147 -10q-48 0 -83 35.5t-35 84.5t35 83.5t83 34.5q49 0 83.5 -34.5t34.5 -83.5q0 -50 -34.5 -85t-83.5 -35zM437 -10q-49 0 -83.5 35t-34.5 85q0 49 34.5 83.5t83.5 34.5q48 0 82.5 -34.5t34.5 -83.5t-34.5 -84.5t-82.5 -35.5zM725 -10q-48 0 -83 35.5t-35 84.5t35 83.5
t83 34.5q49 0 83.5 -34.5t34.5 -83.5q0 -50 -34.5 -85t-83.5 -35z" />
    <glyph glyph-name="perthousand" unicode="&#x2030;" horiz-adv-x="1297" 
d="M219 399q-86 0 -139.5 48.5t-53.5 127.5t53.5 127t139.5 48t138.5 -48t52.5 -127t-52.5 -127.5t-138.5 -48.5zM317 -10l-94 46l334 714l94 -45zM220 520q17 0 28.5 15t11.5 40q0 24 -11 39t-29 15q-19 0 -30.5 -14.5t-11.5 -39.5t11.5 -40t30.5 -15zM660 -10
q-86 0 -139 48t-53 127t53 127.5t139 48.5t139 -48.5t53 -127.5t-53 -127t-139 -48zM1082 -10q-86 0 -139.5 48t-53.5 127t53.5 127.5t139.5 48.5t138.5 -48.5t52.5 -127.5t-52.5 -127t-138.5 -48zM660 111q18 0 29 15t11 39q0 25 -11 40t-29 15t-29.5 -15t-11.5 -40
q0 -24 11.5 -39t29.5 -15zM1082 111q17 0 28.5 15t11.5 39q0 25 -11 40t-29 15q-19 0 -30.5 -15t-11.5 -40q0 -24 11.5 -39t30.5 -15z" />
    <glyph glyph-name="guilsinglleft" unicode="&#x2039;" horiz-adv-x="416" 
d="M392 504l-160 -234l160 -234h-204l-166 234l166 234h204z" />
    <glyph glyph-name="guilsinglright" unicode="&#x203a;" horiz-adv-x="417" 
d="M229 504l166 -234l-166 -234h-204l160 234l-160 234h204z" />
    <glyph glyph-name="fraction" unicode="&#x2044;" horiz-adv-x="230" 
d="M-20 -10l-97 60l366 700l97 -59z" />
    <glyph glyph-name="zerosuperior" unicode="&#x2070;" horiz-adv-x="367" 
d="M185 390q-76 0 -121 62.5t-45 165.5t45 165.5t121 62.5q72 0 117.5 -63t45.5 -165t-45.5 -165t-117.5 -63zM185 487q19 0 31 36.5t12 94.5q0 59 -12 95t-31 36q-20 0 -32.5 -36.5t-12.5 -94.5t12.5 -94.5t32.5 -36.5z" />
    <glyph glyph-name="foursuperior" unicode="&#x2074;" horiz-adv-x="371" 
d="M181 396v76h-171v81l199 287h90v-268h49v-100h-49v-76h-118zM115 568h69l1 99z" />
    <glyph glyph-name="fivesuperior" unicode="&#x2075;" horiz-adv-x="338" 
d="M134 390q-83 0 -126 37l35 85q31 -25 78 -25q32 0 52.5 17t20.5 45q0 19 -10.5 31t-28.5 12q-29 0 -39 -19l-74 10l28 257h223v-97h-126l-7 -57q6 3 21 3q59 0 96.5 -36.5t37.5 -95.5q0 -75 -50.5 -121t-130.5 -46z" />
    <glyph glyph-name="sixsuperior" unicode="&#x2076;" horiz-adv-x="340" 
d="M199 671q50 0 88 -38.5t38 -97.5q0 -65 -42 -105t-110 -40t-110 39.5t-42 104.5q0 72 55 158l99 148h131l-120 -169h13zM173 487q14 0 24 13.5t10 34.5t-9.5 33.5t-24.5 12.5q-14 0 -23.5 -12.5t-9.5 -33.5t9.5 -34.5t23.5 -13.5z" />
    <glyph glyph-name="sevensuperior" unicode="&#x2077;" horiz-adv-x="307" 
d="M13 840h292l-126 -444h-124l102 347h-144v97z" />
    <glyph glyph-name="eightsuperior" unicode="&#x2078;" horiz-adv-x="352" 
d="M269 627q59 -33 59 -102q0 -61 -42 -98t-110 -37t-110 37t-42 96q0 69 60 104q-49 32 -49 92q0 58 38.5 92.5t102.5 34.5t103 -35t39 -91q0 -60 -49 -93zM176 749q-10 0 -17 -11t-7 -27q0 -36 24 -36q25 0 25 36q0 38 -25 38zM176 487q15 0 24.5 12.5t9.5 32.5
q0 21 -9.5 33.5t-24.5 12.5q-14 0 -23.5 -12.5t-9.5 -33.5q0 -19 9.5 -32t23.5 -13z" />
    <glyph glyph-name="ninesuperior" unicode="&#x2079;" horiz-adv-x="340" 
d="M167 846q68 0 110 -39.5t42 -104.5q0 -72 -55 -158l-99 -148h-131l120 169h-13q-50 0 -88 38.5t-38 97.5q0 65 42 105t110 40zM133 701q0 -21 9.5 -33.5t24.5 -12.5q14 0 23.5 12.5t9.5 33.5t-9.5 34.5t-23.5 13.5t-24 -13.5t-10 -34.5z" />
    <glyph glyph-name="zeroinferior" unicode="&#x2080;" horiz-adv-x="367" 
d="M185 -106q-76 0 -121 62.5t-45 165.5t45 165.5t121 62.5q72 0 117.5 -63t45.5 -165t-45.5 -165t-117.5 -63zM185 -9q19 0 31 36.5t12 94.5q0 59 -12 95t-31 36q-20 0 -32.5 -36.5t-12.5 -94.5t12.5 -94.5t32.5 -36.5z" />
    <glyph glyph-name="oneinferior" unicode="&#x2081;" horiz-adv-x="268" 
d="M109 -100v288l-52 -40l-58 84l137 112h91v-444h-118z" />
    <glyph glyph-name="twoinferior" unicode="&#x2082;" horiz-adv-x="345" 
d="M23 -100v75l126 158q46 59 46 91q0 29 -22 29q-26 0 -26 -41l-119 11q0 57 39.5 92t103.5 35t103 -33t39 -86q0 -38 -20.5 -76.5t-67.5 -93.5l-56 -65l149 1v-97h-295z" />
    <glyph glyph-name="threeinferior" unicode="&#x2083;" horiz-adv-x="332" 
d="M205 179q48 -8 76 -44.5t28 -91.5q0 -67 -45.5 -108t-122.5 -41q-83 0 -129 39l44 83q31 -25 69 -25q29 0 45 14.5t16 37.5t-14 36t-38 13q-22 0 -43 -13l-32 59l81 109h-105v97h246v-73z" />
    <glyph glyph-name="fourinferior" unicode="&#x2084;" horiz-adv-x="371" 
d="M181 -100v76h-171v81l199 287h90v-268h49v-100h-49v-76h-118zM115 72h69l1 99z" />
    <glyph glyph-name="fiveinferior" unicode="&#x2085;" horiz-adv-x="338" 
d="M134 -106q-83 0 -126 37l35 85q31 -25 78 -25q32 0 52.5 17t20.5 45q0 19 -10.5 31t-28.5 12q-29 0 -39 -19l-74 10l28 257h223v-97h-126l-7 -57q6 3 21 3q59 0 96.5 -36.5t37.5 -95.5q0 -75 -50.5 -121t-130.5 -46z" />
    <glyph glyph-name="sixinferior" unicode="&#x2086;" horiz-adv-x="340" 
d="M199 175q50 0 88 -38.5t38 -97.5q0 -65 -42 -105t-110 -40t-110 39.5t-42 104.5q0 72 55 158l99 148h131l-120 -169h13zM173 -9q14 0 24 13.5t10 34.5t-9.5 33.5t-24.5 12.5q-14 0 -23.5 -12.5t-9.5 -33.5t9.5 -34.5t23.5 -13.5z" />
    <glyph glyph-name="seveninferior" unicode="&#x2087;" horiz-adv-x="307" 
d="M13 344h292l-126 -444h-124l102 347h-144v97z" />
    <glyph glyph-name="eightinferior" unicode="&#x2088;" horiz-adv-x="352" 
d="M269 131q59 -33 59 -102q0 -61 -42 -98t-110 -37t-110 37t-42 96q0 69 60 104q-49 32 -49 92q0 58 38.5 92.5t102.5 34.5t103 -35t39 -91q0 -60 -49 -93zM176 253q-10 0 -17 -11t-7 -27q0 -36 24 -36q25 0 25 36q0 38 -25 38zM176 -9q15 0 24.5 12.5t9.5 32.5
q0 21 -9.5 33.5t-24.5 12.5q-14 0 -23.5 -12.5t-9.5 -33.5q0 -19 9.5 -32t23.5 -13z" />
    <glyph glyph-name="nineinferior" unicode="&#x2089;" horiz-adv-x="340" 
d="M167 350q68 0 110 -39.5t42 -104.5q0 -72 -55 -158l-99 -148h-131l120 169h-13q-50 0 -88 38.5t-38 97.5q0 65 42 105t110 40zM133 205q0 -21 9.5 -33.5t24.5 -12.5q14 0 23.5 12.5t9.5 33.5t-9.5 34.5t-23.5 13.5t-24 -13.5t-10 -34.5z" />
    <glyph glyph-name="euro" unicode="&#x20ac;" horiz-adv-x="792" 
d="M633 262l132 -119q-103 -153 -298 -153q-128 0 -220.5 64t-130.5 175h-78v119h56q-1 8 -1 25v13h-55v120h74q35 114 128.5 179t224.5 65q176 0 276 -118l-124 -127q-20 38 -61 60t-90 22q-91 0 -137 -81h147v-120h-179v-15q0 -15 1 -23h178v-119h-142q47 -76 138 -76
q57 0 94.5 27t66.5 82z" />
    <glyph glyph-name="rupeeIndian" unicode="&#x20b9;" horiz-adv-x="557" 
d="M517 620h-116q31 -36 45 -84h67v-120h-66q-18 -95 -91 -151l156 -265h-231l-113 206h-1h-122v163h110q56 0 81 47h-191v120h193q-20 41 -63 41h-130v163h472v-120z" />
    <glyph glyph-name="ruble" unicode="&#x20bd;" horiz-adv-x="670" 
d="M367 268h-65v-37h157v-121h-157v-110h-198v110h-56v121h56v37h-56v121h56v351h274q118 0 190.5 -63t72.5 -166q0 -110 -75 -176.5t-199 -66.5zM302 577v-145h56q39 0 59.5 19.5t20.5 53.5q0 32 -21.5 52t-58.5 20h-56z" />
    <glyph glyph-name="trademark" unicode="&#x2122;" horiz-adv-x="680" 
d="M274 780v-81h-71v-205h-97v205h-73v81h241zM633 494h-97l-8 134l-50 -134h-33l-52 136l-7 -136h-97l22 286h104l46 -142l44 142h105z" />
    <glyph glyph-name="oneeighth" unicode="&#x215b;" horiz-adv-x="850" 
d="M517 750l97 -59l-366 -701l-97 60zM227 296h-118v288l-52 -40l-58 84l137 112h91v-444zM767 231q59 -33 59 -102q0 -61 -42 -98t-110 -37t-110 37t-42 96q0 69 60 104q-49 32 -49 92q0 58 38.5 92.5t102.5 34.5t103 -35t39 -91q0 -60 -49 -93zM674 353q-10 0 -17 -11
t-7 -27q0 -36 24 -36q25 0 25 36q0 38 -25 38zM674 91q15 0 24.5 12.5t9.5 32.5q0 21 -9.5 33.5t-24.5 12.5q-14 0 -23.5 -12.5t-9.5 -33.5q0 -19 9.5 -32t23.5 -13z" />
    <glyph glyph-name="threeeighths" unicode="&#x215c;" horiz-adv-x="914" 
d="M581 750l97 -59l-366 -701l-97 60zM309 439q0 -67 -45.5 -108t-122.5 -41q-83 0 -129 39l44 83q31 -25 69 -25q29 0 45 14.5t16 37.5t-14 36t-38 13q-22 0 -43 -13l-32 59l81 109h-105v97h246v-73l-76 -92q48 -8 76 -44.5t28 -91.5zM830 231q59 -33 59 -102
q0 -61 -42 -98t-110 -37t-110 37t-42 96q0 69 60 104q-49 32 -49 92q0 58 38.5 92.5t102.5 34.5t103 -35t39 -91q0 -60 -49 -93zM737 353q-10 0 -17 -11t-7 -27q0 -36 24 -36q25 0 25 36q0 38 -25 38zM737 91q15 0 24.5 12.5t9.5 32.5q0 21 -9.5 33.5t-24.5 12.5
q-14 0 -23.5 -12.5t-9.5 -33.5q0 -19 9.5 -32t23.5 -13z" />
    <glyph glyph-name="fiveeighths" unicode="&#x215d;" horiz-adv-x="920" 
d="M587 750l97 -59l-366 -701l-97 60zM315 457q0 -75 -50.5 -121t-130.5 -46q-83 0 -126 37l35 85q31 -25 78 -25q32 0 52.5 17t20.5 45q0 19 -10.5 31t-28.5 12q-29 0 -39 -19l-74 10l28 257h223v-97h-126l-7 -57q6 3 21 3q59 0 96.5 -36.5t37.5 -95.5zM836 231
q59 -33 59 -102q0 -61 -42 -98t-110 -37t-110 37t-42 96q0 69 60 104q-49 32 -49 92q0 58 38.5 92.5t102.5 34.5t103 -35t39 -91q0 -60 -49 -93zM743 353q-10 0 -17 -11t-7 -27q0 -36 24 -36q25 0 25 36q0 38 -25 38zM743 91q15 0 24.5 12.5t9.5 32.5q0 21 -9.5 33.5
t-24.5 12.5q-14 0 -23.5 -12.5t-9.5 -33.5q0 -19 9.5 -32t23.5 -13z" />
    <glyph glyph-name="seveneighths" unicode="&#x215e;" horiz-adv-x="861" 
d="M528 750l97 -59l-366 -701l-97 60zM179 296h-124l102 347h-144v97h292zM778 231q59 -33 59 -102q0 -61 -42 -98t-110 -37t-110 37t-42 96q0 69 60 104q-49 32 -49 92q0 58 38.5 92.5t102.5 34.5t103 -35t39 -91q0 -60 -49 -93zM685 353q-10 0 -17 -11t-7 -27
q0 -36 24 -36q25 0 25 36q0 38 -25 38zM685 91q15 0 24.5 12.5t9.5 32.5q0 21 -9.5 33.5t-24.5 12.5q-14 0 -23.5 -12.5t-9.5 -33.5q0 -19 9.5 -32t23.5 -13z" />
    <glyph glyph-name="partialdiff" unicode="&#x2202;" horiz-adv-x="660" 
d="M302 750q149 0 239.5 -103.5t90.5 -273.5q0 -172 -94.5 -277.5t-248.5 -105.5q-121 0 -194 63t-73 167q0 110 106 182.5t283 85.5q-34 99 -109 99q-42 0 -77.5 -22t-54.5 -60l-123 127q94 118 255 118zM284 153q57 0 95 46.5t47 126.5q-94 -4 -151 -33.5t-57 -75.5
q0 -29 18 -46.5t48 -17.5z" />
    <glyph glyph-name="emptyset" unicode="&#x2205;" horiz-adv-x="631" 
d="M528 555q67 -76 67 -196q0 -127 -77 -205.5t-202 -78.5q-80 0 -141 32l-25 -32l-72 56l25 32q-68 77 -68 196q0 128 77 206.5t204 78.5q79 0 140 -32l24 31l73 -56zM233 359q0 -10 2 -28l111 142q-16 7 -31 7q-37 0 -59.5 -33t-22.5 -88zM315 239q37 0 59 33t22 87
q0 9 -2 27l-109 -140q13 -7 30 -7z" />
    <glyph glyph-name="product" unicode="&#x220f;" horiz-adv-x="670" 
d="M609 780v-163h-1v-837h-198v837h-150v-837h-198v1000h547z" />
    <glyph glyph-name="summation" unicode="&#x2211;" horiz-adv-x="645" 
d="M31 -220v125l235 378l-225 372v125h560v-163h-322l219 -334l-230 -340h342v-163h-579z" />
    <glyph glyph-name="minus" unicode="&#x2212;" horiz-adv-x="574" 
d="M51 275v157h472v-157h-472z" />
    <glyph glyph-name="radical" unicode="&#x221a;" horiz-adv-x="736" 
d="M193 -220l-197 549h205l87 -332l239 783h206l-349 -1000h-191z" />
    <glyph glyph-name="infinity" unicode="&#x221e;" horiz-adv-x="679" 
d="M469 454q80 0 129 -48t49 -127t-49 -127t-129 -48q-83 0 -129 60q-46 -60 -129 -60q-80 0 -129.5 48t-49.5 127t49.5 127t129.5 48q83 0 129 -60q46 60 129 60zM224 225q17 0 28.5 15t11.5 39t-11 39t-29 15t-29.5 -14.5t-11.5 -39.5q0 -24 11.5 -39t29.5 -15zM455 225
q17 0 28.5 15t11.5 39t-11 39t-29 15t-29 -14.5t-11 -39.5q0 -24 11 -39t29 -15z" />
    <glyph glyph-name="integral" unicode="&#x222b;" horiz-adv-x="418" 
d="M284 790q85 0 135 -53l-51 -128q-17 18 -35 18q-12 0 -19 -8t-7 -20v-673q0 -70 -49.5 -113t-125.5 -43q-83 0 -134 53l52 128q17 -18 34 -18q12 0 19 8t7 20v673q0 70 49.5 113t124.5 43z" />
    <glyph glyph-name="approxequal" unicode="&#x2248;" horiz-adv-x="621" 
d="M380 307q-40 0 -109 22t-83 22q-40 0 -40 -34h-100q0 76 37 121.5t99 45.5q42 0 109.5 -21t82.5 -21q41 0 41 32h99q0 -79 -36.5 -123t-99.5 -44zM380 107q-40 0 -109 22t-83 22q-40 0 -40 -34h-100q0 76 37 121.5t99 45.5q42 0 109.5 -21t82.5 -21q41 0 41 32h99
q0 -79 -36.5 -123t-99.5 -44z" />
    <glyph glyph-name="notequal" unicode="&#x2260;" horiz-adv-x="572" 
d="M522 381h-131l-14 -54h145v-158h-184l-30 -121h-193l30 121h-95v158h134l14 54h-148v157h187l30 121h193l-30 -121h92v-157z" />
    <glyph glyph-name="lessequal" unicode="&#x2264;" horiz-adv-x="576" 
d="M522 364v-178l-479 203v125l479 204v-179l-213 -87zM41 154h482v-158h-482v158z" />
    <glyph glyph-name="greaterequal" unicode="&#x2265;" horiz-adv-x="575" 
d="M534 389l-480 -203v178l215 88l-215 87v179l480 -204v-125zM52 154h483v-158h-483v158z" />
    <glyph glyph-name="lozenge" unicode="&#x25ca;" horiz-adv-x="619" 
d="M400 649l192 -325l-192 -324h-181l-191 324l191 325h181zM310 167l85 157l-85 158l-84 -158z" />
    <glyph glyph-name="A.ss01" horiz-adv-x="741" 
d="M371 750q141 0 227 -76t86 -200v-474h-198v185h-231v-185h-197v474q0 124 86 200t227 76zM255 349h231v117q0 54 -31.5 87.5t-82.5 33.5q-52 0 -84.5 -33.5t-32.5 -87.5v-117z" />
    <glyph glyph-name="Aacute.ss01" horiz-adv-x="741" 
d="M600 980l-187 -172h-160l127 172h220zM371 750q141 0 227 -76t86 -200v-474h-198v185h-231v-185h-197v474q0 124 86 200t227 76zM255 349h231v117q0 54 -31.5 87.5t-82.5 33.5q-52 0 -84.5 -33.5t-32.5 -87.5v-117z" />
    <glyph glyph-name="Abreve.ss01" horiz-adv-x="741" 
d="M371 800q-84 0 -135.5 49.5t-51.5 130.5h142q0 -32 12.5 -52t32.5 -20t32.5 20t12.5 52h141q0 -81 -51 -130.5t-135 -49.5zM371 750q141 0 227 -76t86 -200v-474h-198v185h-231v-185h-197v474q0 124 86 200t227 76zM255 349h231v117q0 54 -31.5 87.5t-82.5 33.5
q-52 0 -84.5 -33.5t-32.5 -87.5v-117z" />
    <glyph glyph-name="Acircumflex.ss01" horiz-adv-x="741" 
d="M371 867l-43 -59h-166l120 172h177l120 -172h-166zM371 750q141 0 227 -76t86 -200v-474h-198v185h-231v-185h-197v474q0 124 86 200t227 76zM255 349h231v117q0 54 -31.5 87.5t-82.5 33.5q-52 0 -84.5 -33.5t-32.5 -87.5v-117z" />
    <glyph glyph-name="Adieresis.ss01" horiz-adv-x="741" 
d="M238 786q-47 0 -77.5 31t-30.5 78q0 48 30.5 79t77.5 31t77.5 -31t30.5 -79q0 -47 -30.5 -78t-77.5 -31zM505 786q-48 0 -78.5 31t-30.5 78q0 48 30.5 79t78.5 31q47 0 77 -31t30 -79q0 -47 -30.5 -78t-76.5 -31zM371 750q141 0 227 -76t86 -200v-474h-198v185h-231v-185
h-197v474q0 124 86 200t227 76zM255 349h231v117q0 54 -31.5 87.5t-82.5 33.5q-52 0 -84.5 -33.5t-32.5 -87.5v-117z" />
    <glyph glyph-name="Agrave.ss01" horiz-adv-x="741" 
d="M490 808h-161l-187 172h220zM371 750q141 0 227 -76t86 -200v-474h-198v185h-231v-185h-197v474q0 124 86 200t227 76zM255 349h231v117q0 54 -31.5 87.5t-82.5 33.5q-52 0 -84.5 -33.5t-32.5 -87.5v-117z" />
    <glyph glyph-name="Amacron.ss01" horiz-adv-x="741" 
d="M555 945v-150h-368v150h368zM371 750q141 0 227 -76t86 -200v-474h-198v185h-231v-185h-197v474q0 124 86 200t227 76zM255 349h231v117q0 54 -31.5 87.5t-82.5 33.5q-52 0 -84.5 -33.5t-32.5 -87.5v-117z" />
    <glyph glyph-name="Aogonek.ss01" horiz-adv-x="741" 
d="M671 -111l15 -91q-38 -28 -95 -28q-49 0 -79 27t-30 71q0 67 74 132h-70v185h-231v-185h-197v474q0 124 86 200t227 76t227 -76t86 -200v-474q-67 -49 -67 -99q0 -24 23 -24q19 0 31 12zM255 349h231v117q0 54 -31.5 87.5t-82.5 33.5q-52 0 -84.5 -33.5t-32.5 -87.5v-117
z" />
    <glyph glyph-name="Aring.ss01" horiz-adv-x="741" 
d="M371 775q-53 0 -84.5 30.5t-31.5 80.5q0 49 31.5 79t84.5 30q52 0 83.5 -30t31.5 -79q0 -50 -31.5 -80.5t-83.5 -30.5zM371 912q-9 0 -15.5 -7.5t-6.5 -18.5q0 -12 6.5 -20t15.5 -8q21 0 21 28q0 11 -6 18.5t-15 7.5zM371 750q141 0 227 -76t86 -200v-474h-198v185h-231
v-185h-197v474q0 124 86 200t227 76zM255 349h231v117q0 54 -31.5 87.5t-82.5 33.5q-52 0 -84.5 -33.5t-32.5 -87.5v-117z" />
    <glyph glyph-name="Atilde.ss01" horiz-adv-x="741" 
d="M300 846q-23 0 -23 -34h-99q0 76 32 122t86 46q32 0 83.5 -21t61.5 -21q23 0 23 32h99q0 -80 -31.5 -124t-86.5 -44q-30 0 -82.5 22t-62.5 22zM371 750q141 0 227 -76t86 -200v-474h-198v185h-231v-185h-197v474q0 124 86 200t227 76zM255 349h231v117q0 54 -31.5 87.5
t-82.5 33.5q-52 0 -84.5 -33.5t-32.5 -87.5v-117z" />
    <glyph glyph-name="AE.ss01" horiz-adv-x="917" 
d="M611 163h267v-163h-464v185h-162v-185h-198v414q0 147 99 236.5t261 89.5h457v-163h-260v-122h225v-163h-225v-129zM252 406v-57h162v228q-73 0 -117.5 -47t-44.5 -124z" />
    <glyph glyph-name="J.ss01" horiz-adv-x="550" 
d="M491 740v-487q0 -119 -78.5 -191t-208.5 -72q-113 0 -202 68l97 132q39 -37 94 -37q45 0 73 30t28 79v315h-244v163h441z" />
    <glyph glyph-name="C.ss02" horiz-adv-x="573" 
d="M400 -10q-167 0 -269 104.5t-102 275.5t102 275.5t269 104.5q76 0 137 -34v-177q-45 48 -132 48q-77 0 -124.5 -60t-47.5 -157t47.5 -157t124.5 -60q86 0 132 48v-177q-61 -34 -137 -34z" />
    <glyph glyph-name="Cacute.ss02" horiz-adv-x="573" 
d="M275 808l127 172h220l-187 -172h-160zM400 -10q-167 0 -269 104.5t-102 275.5t102 275.5t269 104.5q76 0 137 -34v-177q-45 48 -132 48q-77 0 -124.5 -60t-47.5 -157t47.5 -157t124.5 -60q86 0 132 48v-177q-61 -34 -137 -34z" />
    <glyph glyph-name="Ccaron.ss02" horiz-adv-x="573" 
d="M304 808l-120 172h166l43 -59l42 59h166l-120 -172h-177zM29 370q0 171 102 275.5t269 104.5q76 0 137 -34v-177q-45 48 -132 48q-77 0 -124.5 -60t-47.5 -157t47.5 -157t124.5 -60q86 0 132 48v-177q-61 -34 -137 -34q-167 0 -269 104.5t-102 275.5z" />
    <glyph glyph-name="Ccedilla.ss02" horiz-adv-x="573" 
d="M405 587q-77 0 -124.5 -60t-47.5 -157t47.5 -157t124.5 -60q86 0 132 48v-177q-51 -28 -104 -32l-20 -38q36 -6 57 -29.5t21 -57.5q0 -43 -35 -70t-95 -27q-55 0 -94 22l31 66q20 -13 43 -13q32 0 32 21q0 18 -25 18q-12 0 -24 -7l-23 41l33 77q-140 20 -222.5 121
t-82.5 254q0 171 102 275.5t269 104.5q76 0 137 -34v-177q-45 48 -132 48z" />
    <glyph glyph-name="Cdotaccent.ss02" horiz-adv-x="573" 
d="M393 786q-47 0 -77.5 31t-30.5 78q0 48 30.5 79t77.5 31t77.5 -31t30.5 -79q0 -47 -30.5 -78t-77.5 -31zM400 -10q-167 0 -269 104.5t-102 275.5t102 275.5t269 104.5q76 0 137 -34v-177q-45 48 -132 48q-77 0 -124.5 -60t-47.5 -157t47.5 -157t124.5 -60q86 0 132 48
v-177q-61 -34 -137 -34z" />
    <glyph glyph-name="Z.ss02" horiz-adv-x="584" 
d="M307 163h253v-163h-538l249 577h-244v163h528z" />
    <glyph glyph-name="Zacute.ss02" horiz-adv-x="584" 
d="M521 980l-187 -172h-160l127 172h220zM307 163h253v-163h-538l249 577h-244v163h528z" />
    <glyph glyph-name="Zcaron.ss02" horiz-adv-x="584" 
d="M203 808l-120 172h166l43 -59l42 59h166l-120 -172h-177zM307 163h253v-163h-538l249 577h-244v163h528z" />
    <glyph glyph-name="Zdotaccent.ss02" horiz-adv-x="584" 
d="M292 786q-47 0 -77.5 31t-30.5 78q0 48 30.5 79t77.5 31t77.5 -31t30.5 -79q0 -47 -30.5 -78t-77.5 -31zM307 163h253v-163h-538l249 577h-244v163h528z" />
    <glyph glyph-name="i.loclTRK" horiz-adv-x="287" 
d="M145 594q-47 0 -77.5 31t-30.5 78q0 48 30.5 79t77.5 31t77.5 -31t30.5 -79q0 -47 -30.5 -78t-77.5 -31zM48 0v548h191v-548h-191z" />
    <glyph glyph-name="a.ss01" horiz-adv-x="627" 
d="M395 549h184v-549h-184l-3 53q-49 -63 -131 -63q-99 0 -168 78.5t-69 203.5q0 126 69 206.5t168 80.5q81 0 131 -64zM304 154q37 0 60 33t23 87t-23 87.5t-60 33.5t-59.5 -33.5t-22.5 -88.5q0 -53 22.5 -86t59.5 -33z" />
    <glyph glyph-name="aacute.ss01" horiz-adv-x="627" 
d="M540 789l-187 -172h-160l127 172h220zM395 549h184v-549h-184l-3 53q-49 -63 -131 -63q-99 0 -168 78.5t-69 203.5q0 126 69 206.5t168 80.5q81 0 131 -64zM304 154q37 0 60 33t23 87t-23 87.5t-60 33.5t-59.5 -33.5t-22.5 -88.5q0 -53 22.5 -86t59.5 -33z" />
    <glyph glyph-name="abreve.ss01" horiz-adv-x="627" 
d="M311 609q-84 0 -135.5 49.5t-51.5 130.5h142q0 -32 12.5 -52t32.5 -20t32.5 20t12.5 52h141q0 -81 -51 -130.5t-135 -49.5zM395 549h184v-549h-184l-3 53q-49 -63 -131 -63q-99 0 -168 78.5t-69 203.5q0 126 69 206.5t168 80.5q81 0 131 -64zM304 154q37 0 60 33t23 87
t-23 87.5t-60 33.5t-59.5 -33.5t-22.5 -88.5q0 -53 22.5 -86t59.5 -33z" />
    <glyph glyph-name="acircumflex.ss01" horiz-adv-x="627" 
d="M311 676l-43 -59h-166l120 172h177l120 -172h-166zM395 549h184v-549h-184l-3 53q-49 -63 -131 -63q-99 0 -168 78.5t-69 203.5q0 126 69 206.5t168 80.5q81 0 131 -64zM304 154q37 0 60 33t23 87t-23 87.5t-60 33.5t-59.5 -33.5t-22.5 -88.5q0 -53 22.5 -86t59.5 -33z
" />
    <glyph glyph-name="adieresis.ss01" horiz-adv-x="627" 
d="M178 595q-47 0 -77.5 31t-30.5 78q0 48 30.5 79t77.5 31t77.5 -31t30.5 -79q0 -47 -30.5 -78t-77.5 -31zM445 595q-48 0 -78.5 31t-30.5 78q0 48 30.5 79t78.5 31q47 0 77 -31t30 -79q0 -47 -30.5 -78t-76.5 -31zM395 549h184v-549h-184l-3 53q-49 -63 -131 -63
q-99 0 -168 78.5t-69 203.5q0 126 69 206.5t168 80.5q81 0 131 -64zM304 154q37 0 60 33t23 87t-23 87.5t-60 33.5t-59.5 -33.5t-22.5 -88.5q0 -53 22.5 -86t59.5 -33z" />
    <glyph glyph-name="agrave.ss01" horiz-adv-x="627" 
d="M430 617h-161l-187 172h220zM395 549h184v-549h-184l-3 53q-49 -63 -131 -63q-99 0 -168 78.5t-69 203.5q0 126 69 206.5t168 80.5q81 0 131 -64zM304 154q37 0 60 33t23 87t-23 87.5t-60 33.5t-59.5 -33.5t-22.5 -88.5q0 -53 22.5 -86t59.5 -33z" />
    <glyph glyph-name="amacron.ss01" horiz-adv-x="627" 
d="M495 754v-150h-368v150h368zM395 549h184v-549h-184l-3 53q-49 -63 -131 -63q-99 0 -168 78.5t-69 203.5q0 126 69 206.5t168 80.5q81 0 131 -64zM304 154q37 0 60 33t23 87t-23 87.5t-60 33.5t-59.5 -33.5t-22.5 -88.5q0 -53 22.5 -86t59.5 -33z" />
    <glyph glyph-name="aogonek.ss01" horiz-adv-x="627" 
d="M566 -111l15 -91q-39 -28 -95 -28q-49 0 -79 27t-30 71q0 67 74 132h-56l-3 53q-49 -63 -131 -63q-99 0 -168 78.5t-69 203.5q0 126 69 206.5t168 80.5q81 0 131 -64l3 54h184v-549q-67 -49 -67 -99q0 -24 23 -24q19 0 31 12zM304 154q37 0 60 33t23 87t-23 87.5
t-60 33.5t-59.5 -33.5t-22.5 -88.5q0 -53 22.5 -86t59.5 -33z" />
    <glyph glyph-name="aring.ss01" horiz-adv-x="627" 
d="M311 584q-53 0 -84.5 30.5t-31.5 80.5q0 49 31.5 79t84.5 30q52 0 83.5 -30t31.5 -79q0 -50 -31.5 -80.5t-83.5 -30.5zM311 721q-9 0 -15.5 -7.5t-6.5 -18.5q0 -12 6.5 -20t15.5 -8q21 0 21 28q0 11 -6 18.5t-15 7.5zM395 549h184v-549h-184l-3 53q-49 -63 -131 -63
q-99 0 -168 78.5t-69 203.5q0 126 69 206.5t168 80.5q81 0 131 -64zM304 154q37 0 60 33t23 87t-23 87.5t-60 33.5t-59.5 -33.5t-22.5 -88.5q0 -53 22.5 -86t59.5 -33z" />
    <glyph glyph-name="atilde.ss01" horiz-adv-x="627" 
d="M240 655q-23 0 -23 -34h-99q0 76 32 122t86 46q32 0 83.5 -21t61.5 -21q23 0 23 32h99q0 -80 -31.5 -124t-86.5 -44q-30 0 -82.5 22t-62.5 22zM395 549h184v-549h-184l-3 53q-49 -63 -131 -63q-99 0 -168 78.5t-69 203.5q0 126 69 206.5t168 80.5q81 0 131 -64zM304 154
q37 0 60 33t23 87t-23 87.5t-60 33.5t-59.5 -33.5t-22.5 -88.5q0 -53 22.5 -86t59.5 -33z" />
    <glyph glyph-name="f.ss01" horiz-adv-x="347" 
d="M292 626q-23 0 -37.5 -12.5t-14.5 -33.5v-31h87v-157h-87v-392h-192v602q0 85 49 136.5t129 51.5q74 0 121 -22l-13 -148q-18 6 -42 6z" />
    <glyph glyph-name="j.ss01" horiz-adv-x="288" 
d="M144 595q-47 0 -78 31t-31 78q0 48 31 79t78 31t77.5 -31t30.5 -79q0 -47 -30.5 -78t-77.5 -31zM48 -220v769h192v-769h-192z" />
    <glyph glyph-name="t.ss01" horiz-adv-x="383" 
d="M280 154q35 0 71 16v-154q-62 -26 -134 -26q-78 0 -126 47.5t-48 126.5v545h192v-160h109v-157h-109v-188q0 -22 12.5 -36t32.5 -14z" />
    <glyph glyph-name="tbar.ss01" horiz-adv-x="389" 
d="M280 154q35 0 71 16v-154q-62 -26 -134 -26q-78 0 -126 47.5t-48 126.5v545h192v-160h109v-157h-109v-47h98v-135h-98v-6q0 -22 12.5 -36t32.5 -14z" />
    <glyph glyph-name="tcaron.ss01" horiz-adv-x="383" 
d="M305 780h170l-58 -187h-144zM235 204q0 -22 12.5 -36t32.5 -14q35 0 71 16v-154q-62 -26 -134 -26q-78 0 -126 47.5t-48 126.5v545h192v-160h109v-157h-109v-188z" />
    <glyph glyph-name="tcedilla.ss01" horiz-adv-x="383" 
d="M217 -10q-13 0 -20 1l-20 -37q36 -6 57 -29.5t21 -57.5q0 -43 -35 -70t-95 -27q-55 0 -94 22l31 66q20 -13 43 -13q32 0 32 21q0 18 -25 18q-12 0 -24 -7l-23 41l44 104q-66 48 -66 142v545h192v-160h109v-157h-109v-188q0 -22 12.5 -36t32.5 -14q35 0 71 16v-154
q-62 -26 -134 -26z" />
    <glyph glyph-name="tcommaaccent.ss01" horiz-adv-x="383" 
d="M280 154q35 0 71 16v-154q-62 -26 -134 -26q-78 0 -126 47.5t-48 126.5v545h192v-160h109v-157h-109v-188q0 -22 12.5 -36t32.5 -14zM74 -220l28 168h170l-54 -168h-144z" />
    <glyph glyph-name="u.ss01" horiz-adv-x="578" 
d="M289 -10q-111 0 -179 59.5t-68 156.5v343h192v-336q0 -27 15 -43t40 -16t40 16.5t15 42.5v336h192v-343q0 -97 -68 -156.5t-179 -59.5z" />
    <glyph glyph-name="uacute.ss01" horiz-adv-x="578" 
d="M171 617l127 172h220l-187 -172h-160zM289 -10q-111 0 -179 59.5t-68 156.5v343h192v-336q0 -27 15 -43t40 -16t40 16.5t15 42.5v336h192v-343q0 -97 -68 -156.5t-179 -59.5z" />
    <glyph glyph-name="ucircumflex.ss01" horiz-adv-x="578" 
d="M289 676l-43 -59h-166l120 172h177l120 -172h-166zM344 549h192v-343q0 -97 -68 -156.5t-179 -59.5t-179 59.5t-68 156.5v343h192v-336q0 -27 15 -43t40 -16t40 16.5t15 42.5v336z" />
    <glyph glyph-name="udieresis.ss01" horiz-adv-x="578" 
d="M156 595q-47 0 -77.5 31t-30.5 78q0 48 30.5 79t77.5 31t77.5 -31t30.5 -79q0 -47 -30.5 -78t-77.5 -31zM423 595q-48 0 -78.5 31t-30.5 78q0 48 30.5 79t78.5 31q47 0 77 -31t30 -79q0 -47 -30.5 -78t-76.5 -31zM289 -10q-111 0 -179 59.5t-68 156.5v343h192v-336
q0 -27 15 -43t40 -16t40 16.5t15 42.5v336h192v-343q0 -97 -68 -156.5t-179 -59.5z" />
    <glyph glyph-name="ugrave.ss01" horiz-adv-x="578" 
d="M247 617l-187 172h220l128 -172h-161zM289 -10q-111 0 -179 59.5t-68 156.5v343h192v-336q0 -27 15 -43t40 -16t40 16.5t15 42.5v336h192v-343q0 -97 -68 -156.5t-179 -59.5z" />
    <glyph glyph-name="uhungarumlaut.ss01" horiz-adv-x="578" 
d="M86 617l96 172h219l-154 -172h-161zM316 617l95 172h219l-153 -172h-161zM289 -10q-111 0 -179 59.5t-68 156.5v343h192v-336q0 -27 15 -43t40 -16t40 16.5t15 42.5v336h192v-343q0 -97 -68 -156.5t-179 -59.5z" />
    <glyph glyph-name="umacron.ss01" horiz-adv-x="578" 
d="M105 604v150h368v-150h-368zM289 -10q-111 0 -179 59.5t-68 156.5v343h192v-336q0 -27 15 -43t40 -16t40 16.5t15 42.5v336h192v-343q0 -97 -68 -156.5t-179 -59.5z" />
    <glyph glyph-name="uogonek.ss01" horiz-adv-x="578" 
d="M344 549h192v-343q0 -77 -44.5 -131.5t-120.5 -74.5q-67 -49 -67 -99q0 -24 23 -24q19 0 31 12l15 -91q-39 -28 -95 -28q-49 0 -79 27t-30 71q0 64 67 126q-89 14 -141.5 70.5t-52.5 141.5v343h192v-336q0 -27 15 -43t40 -16t40 16.5t15 42.5v336z" />
    <glyph glyph-name="uring.ss01" horiz-adv-x="578" 
d="M289 584q-53 0 -84.5 30.5t-31.5 80.5q0 49 31.5 79t84.5 30q52 0 83.5 -30t31.5 -79q0 -50 -31.5 -80.5t-83.5 -30.5zM289 667q21 0 21 28q0 11 -6 18.5t-15 7.5t-15.5 -7.5t-6.5 -18.5q0 -12 6.5 -20t15.5 -8zM289 -10q-111 0 -179 59.5t-68 156.5v343h192v-336
q0 -27 15 -43t40 -16t40 16.5t15 42.5v336h192v-343q0 -97 -68 -156.5t-179 -59.5z" />
    <glyph glyph-name="y.ss01" horiz-adv-x="585" 
d="M345 549h192v-488q0 -131 -83 -211t-220 -80q-121 0 -196 67l42 150q63 -53 149 -53q47 0 78.5 29.5t36.5 79.5q-53 -53 -123 -53q-80 0 -129 53.5t-49 141.5v364h192v-336q0 -27 15 -43t40 -16t40 16.5t15 42.5v336z" />
    <glyph glyph-name="yacute.ss01" horiz-adv-x="585" 
d="M515 789l-187 -172h-160l127 172h220zM345 549h192v-488q0 -131 -83 -211t-220 -80q-121 0 -196 67l42 150q63 -53 149 -53q47 0 78.5 29.5t36.5 79.5q-53 -53 -123 -53q-80 0 -129 53.5t-49 141.5v364h192v-336q0 -27 15 -43t40 -16t40 16.5t15 42.5v336z" />
    <glyph glyph-name="ycircumflex.ss01" horiz-adv-x="585" 
d="M286 676l-43 -59h-166l120 172h177l120 -172h-166zM345 549h192v-488q0 -131 -83 -211t-220 -80q-121 0 -196 67l42 150q63 -53 149 -53q47 0 78.5 29.5t36.5 79.5q-53 -53 -123 -53q-80 0 -129 53.5t-49 141.5v364h192v-336q0 -27 15 -43t40 -16t40 16.5t15 42.5v336z
" />
    <glyph glyph-name="ydieresis.ss01" horiz-adv-x="585" 
d="M153 595q-47 0 -77.5 31t-30.5 78q0 48 30.5 79t77.5 31t77.5 -31t30.5 -79q0 -47 -30.5 -78t-77.5 -31zM420 595q-48 0 -78.5 31t-30.5 78q0 48 30.5 79t78.5 31q47 0 77 -31t30 -79q0 -47 -30.5 -78t-76.5 -31zM345 549h192v-488q0 -131 -83 -211t-220 -80
q-121 0 -196 67l42 150q63 -53 149 -53q47 0 78.5 29.5t36.5 79.5q-53 -53 -123 -53q-80 0 -129 53.5t-49 141.5v364h192v-336q0 -27 15 -43t40 -16t40 16.5t15 42.5v336z" />
    <glyph glyph-name="ygrave.ss01" horiz-adv-x="585" 
d="M405 617h-161l-187 172h220zM345 549h192v-488q0 -131 -83 -211t-220 -80q-121 0 -196 67l42 150q63 -53 149 -53q47 0 78.5 29.5t36.5 79.5q-53 -53 -123 -53q-80 0 -129 53.5t-49 141.5v364h192v-336q0 -27 15 -43t40 -16t40 16.5t15 42.5v336z" />
    <glyph glyph-name="a.ss02" 
d="M53 549h452v-549h-185l-2 47q-45 -57 -114 -57q-82 0 -132 49t-50 130q0 82 60.5 132t159.5 50q34 0 71 -6v54h-260v150zM257 125q27 0 41.5 24.5t14.5 67.5q-21 4 -45 4t-38.5 -13.5t-14.5 -34.5q0 -48 42 -48z" />
    <glyph glyph-name="aacute.ss02" 
d="M514 789l-187 -172h-160l127 172h220zM53 399v150h452v-549h-185l-2 47q-45 -57 -114 -57q-82 0 -132 49t-50 130q0 82 60.5 132t159.5 50q34 0 71 -6v54h-260zM257 125q27 0 41.5 24.5t14.5 67.5q-21 4 -45 4t-38.5 -13.5t-14.5 -34.5q0 -48 42 -48z" />
    <glyph glyph-name="abreve.ss02" 
d="M285 609q-84 0 -135.5 49.5t-51.5 130.5h142q0 -32 12.5 -52t32.5 -20t32.5 20t12.5 52h141q0 -81 -51 -130.5t-135 -49.5zM53 549h452v-549h-185l-2 47q-45 -57 -114 -57q-82 0 -132 49t-50 130q0 82 60.5 132t159.5 50q34 0 71 -6v54h-260v150zM257 125q27 0 41.5 24.5
t14.5 67.5q-21 4 -45 4t-38.5 -13.5t-14.5 -34.5q0 -48 42 -48z" />
    <glyph glyph-name="acircumflex.ss02" 
d="M285 676l-43 -59h-166l120 172h177l120 -172h-166zM53 549h452v-549h-185l-2 47q-45 -57 -114 -57q-82 0 -132 49t-50 130q0 82 60.5 132t159.5 50q34 0 71 -6v54h-260v150zM257 125q27 0 41.5 24.5t14.5 67.5q-21 4 -45 4t-38.5 -13.5t-14.5 -34.5q0 -48 42 -48z" />
    <glyph glyph-name="adieresis.ss02" 
d="M152 595q-47 0 -77.5 31t-30.5 78q0 48 30.5 79t77.5 31t77.5 -31t30.5 -79q0 -47 -30.5 -78t-77.5 -31zM419 595q-48 0 -78.5 31t-30.5 78q0 48 30.5 79t78.5 31q47 0 77 -31t30 -79q0 -47 -30.5 -78t-76.5 -31zM53 399v150h452v-549h-185l-2 47q-45 -57 -114 -57
q-82 0 -132 49t-50 130q0 82 60.5 132t159.5 50q34 0 71 -6v54h-260zM257 125q27 0 41.5 24.5t14.5 67.5q-21 4 -45 4t-38.5 -13.5t-14.5 -34.5q0 -48 42 -48z" />
    <glyph glyph-name="agrave.ss02" 
d="M404 617h-161l-187 172h220zM53 549h452v-549h-185l-2 47q-45 -57 -114 -57q-82 0 -132 49t-50 130q0 82 60.5 132t159.5 50q34 0 71 -6v54h-260v150zM257 125q27 0 41.5 24.5t14.5 67.5q-21 4 -45 4t-38.5 -13.5t-14.5 -34.5q0 -48 42 -48z" />
    <glyph glyph-name="amacron.ss02" 
d="M469 754v-150h-368v150h368zM53 549h452v-549h-185l-2 47q-45 -57 -114 -57q-82 0 -132 49t-50 130q0 82 60.5 132t159.5 50q34 0 71 -6v54h-260v150zM257 125q27 0 41.5 24.5t14.5 67.5q-21 4 -45 4t-38.5 -13.5t-14.5 -34.5q0 -48 42 -48z" />
    <glyph glyph-name="aogonek.ss02" 
d="M492 -111l15 -91q-39 -28 -95 -28q-49 0 -79 27t-30 71q0 67 74 132h-57l-2 47q-45 -57 -114 -57q-82 0 -132 49t-50 130q0 82 60.5 132t159.5 50q34 0 71 -6v54h-260v150h452v-549q-67 -49 -67 -99q0 -24 23 -24q19 0 31 12zM257 125q27 0 41.5 24.5t14.5 67.5
q-21 4 -45 4t-38.5 -13.5t-14.5 -34.5q0 -48 42 -48z" />
    <glyph glyph-name="aring.ss02" 
d="M285 584q-53 0 -84.5 30.5t-31.5 80.5q0 49 31.5 79t84.5 30q52 0 83.5 -30t31.5 -79q0 -50 -31.5 -80.5t-83.5 -30.5zM285 721q-9 0 -15.5 -7.5t-6.5 -18.5q0 -12 6.5 -20t15.5 -8q21 0 21 28q0 11 -6 18.5t-15 7.5zM53 549h452v-549h-185l-2 47q-45 -57 -114 -57
q-82 0 -132 49t-50 130q0 82 60.5 132t159.5 50q34 0 71 -6v54h-260v150zM257 125q27 0 41.5 24.5t14.5 67.5q-21 4 -45 4t-38.5 -13.5t-14.5 -34.5q0 -48 42 -48z" />
    <glyph glyph-name="atilde.ss02" 
d="M214 655q-23 0 -23 -34h-99q0 76 32 122t86 46q32 0 83.5 -21t61.5 -21q23 0 23 32h99q0 -80 -31.5 -124t-86.5 -44q-30 0 -82.5 22t-62.5 22zM53 549h452v-549h-185l-2 47q-45 -57 -114 -57q-82 0 -132 49t-50 130q0 82 60.5 132t159.5 50q34 0 71 -6v54h-260v150z
M257 125q27 0 41.5 24.5t14.5 67.5q-21 4 -45 4t-38.5 -13.5t-14.5 -34.5q0 -48 42 -48z" />
    <glyph glyph-name="c.ss02" horiz-adv-x="444" 
d="M310 -10q-129 0 -207.5 78t-78.5 206t78.5 206.5t207.5 78.5q47 0 91 -20v-173q-31 29 -78 29q-45 0 -72.5 -33t-27.5 -88q0 -53 27.5 -86.5t72.5 -33.5q53 0 84 33v-172q-34 -25 -97 -25z" />
    <glyph glyph-name="cacute.ss02" horiz-adv-x="444" 
d="M178 617l127 172h220l-187 -172h-160zM310 -10q-129 0 -207.5 78t-78.5 206t78.5 206.5t207.5 78.5q47 0 91 -20v-173q-31 29 -78 29q-45 0 -72.5 -33t-27.5 -88q0 -53 27.5 -86.5t72.5 -33.5q53 0 84 33v-172q-34 -25 -97 -25z" />
    <glyph glyph-name="ccaron.ss02" horiz-adv-x="444" 
d="M207 617l-120 172h166l43 -59l42 59h166l-120 -172h-177zM323 154q53 0 84 33v-172q-34 -25 -97 -25q-129 0 -207.5 78t-78.5 206t78.5 206.5t207.5 78.5q47 0 91 -20v-173q-31 29 -78 29q-45 0 -72.5 -33t-27.5 -88q0 -53 27.5 -86.5t72.5 -33.5z" />
    <glyph glyph-name="ccedilla.ss02" horiz-adv-x="444" 
d="M407 15q-30 -20 -81 -24l-20 -37q36 -6 57 -29.5t21 -57.5q0 -43 -35 -70t-95 -27q-56 0 -94 22l31 66q20 -13 43 -13q32 0 32 21q0 18 -25 18q-12 0 -24 -7l-23 41l35 81q-95 23 -150 96t-55 179q0 128 78.5 206.5t207.5 78.5q47 0 91 -20v-173q-31 29 -78 29
q-45 0 -72.5 -33t-27.5 -88q0 -53 27.5 -86.5t72.5 -33.5q53 0 84 33v-172z" />
    <glyph glyph-name="cdotaccent.ss02" horiz-adv-x="444" 
d="M296 595q-47 0 -77.5 31t-30.5 78q0 48 30.5 79t77.5 31t77.5 -31t30.5 -79q0 -47 -30.5 -78t-77.5 -31zM310 -10q-129 0 -207.5 78t-78.5 206t78.5 206.5t207.5 78.5q47 0 91 -20v-173q-31 29 -78 29q-45 0 -72.5 -33t-27.5 -88q0 -53 27.5 -86.5t72.5 -33.5q53 0 84 33
v-172q-34 -25 -97 -25z" />
    <glyph glyph-name="f.ss02" horiz-adv-x="399" 
d="M394 623h-100v-74h88v-157h-88v-392h-192v392h-74v157h74v231h292v-157z" />
    <glyph glyph-name="g.ss02" horiz-adv-x="627" 
d="M396 549h184v-769h-522v157h330v110q-49 -57 -126 -57q-99 0 -168 80.5t-69 206.5q0 125 69 203.5t168 78.5q83 0 131 -64zM305 154q37 0 60 33.5t23 86.5q0 55 -22.5 88t-60.5 33q-37 0 -59.5 -33.5t-22.5 -86.5q0 -54 22.5 -87.5t59.5 -33.5z" />
    <glyph glyph-name="gbreve.ss02" horiz-adv-x="627" 
d="M313 609q-84 0 -135.5 49.5t-51.5 130.5h142q0 -32 12.5 -52t32.5 -20t32.5 20t12.5 52h141q0 -81 -51 -130.5t-135 -49.5zM396 549h184v-769h-522v157h330v110q-49 -57 -126 -57q-99 0 -168 80.5t-69 206.5q0 125 69 203.5t168 78.5q83 0 131 -64zM305 154q37 0 60 33.5
t23 86.5q0 55 -22.5 88t-60.5 33q-37 0 -59.5 -33.5t-22.5 -86.5q0 -54 22.5 -87.5t59.5 -33.5z" />
    <glyph glyph-name="gcommaaccent.ss02" horiz-adv-x="627" 
d="M418 780l-31 -187h-171l58 187h144zM396 549h184v-769h-522v157h330v110q-49 -57 -126 -57q-99 0 -168 80.5t-69 206.5q0 125 69 203.5t168 78.5q83 0 131 -64zM305 154q37 0 60 33.5t23 86.5q0 55 -22.5 88t-60.5 33q-37 0 -59.5 -33.5t-22.5 -86.5q0 -54 22.5 -87.5
t59.5 -33.5z" />
    <glyph glyph-name="gdotaccent.ss02" horiz-adv-x="627" 
d="M313 595q-47 0 -77.5 31t-30.5 78q0 48 30.5 79t77.5 31t77.5 -31t30.5 -79q0 -47 -30.5 -78t-77.5 -31zM396 549h184v-769h-522v157h330v110q-49 -57 -126 -57q-99 0 -168 80.5t-69 206.5q0 125 69 203.5t168 78.5q83 0 131 -64zM305 154q37 0 60 33.5t23 86.5
q0 55 -22.5 88t-60.5 33q-37 0 -59.5 -33.5t-22.5 -86.5q0 -54 22.5 -87.5t59.5 -33.5z" />
    <glyph glyph-name="j.ss02" horiz-adv-x="288" 
d="M144 595q-47 0 -78 31t-31 78q0 48 31 79t78 31t77.5 -31t30.5 -79q0 -47 -30.5 -78t-77.5 -31zM48 -220v769h192v-769h-192z" />
    <glyph glyph-name="l.ss02" horiz-adv-x="340" 
d="M48 0v780h192v-622h79v-158h-271z" />
    <glyph glyph-name="lacute.ss02" horiz-adv-x="340" 
d="M27 848l127 172h220l-187 -172h-160zM48 0v780h192v-622h79v-158h-271z" />
    <glyph glyph-name="lcaron.ss02" horiz-adv-x="362" 
d="M48 0v780h192v-622h79v-158h-271zM282 593l32 187h170l-58 -187h-144z" />
    <glyph glyph-name="lcommaaccent.ss02" horiz-adv-x="340" 
d="M48 0v780h192v-622h79v-158h-271zM67 -220l28 168h170l-54 -168h-144z" />
    <glyph glyph-name="lslash.ss02" horiz-adv-x="340" 
d="M240 158h79v-158h-271v237l-64 -48v152l64 48v391h192v-273l66 50v-153l-66 -50v-196z" />
    <glyph glyph-name="t.ss02" horiz-adv-x="406" 
d="M382 549v-157h-83v-392h-192v392h-84v157h84v160h192v-160h83z" />
    <glyph glyph-name="tbar.ss02" horiz-adv-x="406" 
d="M382 392h-83v-60h80v-135h-80v-197h-192v197h-80v135h80v60h-84v157h84v160h192v-160h83v-157z" />
    <glyph glyph-name="tcaron.ss02" horiz-adv-x="406" 
d="M368 780h170l-59 -187h-143zM299 709v-160h83v-157h-83v-392h-192v392h-84v157h84v160h192z" />
    <glyph glyph-name="tcedilla.ss02" horiz-adv-x="406" 
d="M299 0h-42l-25 -46q36 -6 57 -29.5t21 -57.5q0 -43 -35 -70t-95 -27q-56 0 -94 22l31 66q20 -13 43 -13q32 0 32 21q0 18 -25 18q-12 0 -24 -7l-23 41l35 82h-48v392h-84v157h84v160h192v-160h83v-157h-83v-392z" />
    <glyph glyph-name="tcommaaccent.ss02" horiz-adv-x="406" 
d="M382 549v-157h-83v-392h-192v392h-84v157h84v160h192v-160h83zM82 -220l28 168h170l-54 -168h-144z" />
    <glyph glyph-name="u.ss02" horiz-adv-x="578" 
d="M289 -10q-111 0 -179 59.5t-68 156.5v343h192v-336q0 -27 15 -43t40 -16t40 16.5t15 42.5v336h192v-343q0 -97 -68 -156.5t-179 -59.5z" />
    <glyph glyph-name="uacute.ss02" horiz-adv-x="578" 
d="M171 617l127 172h220l-187 -172h-160zM289 -10q-111 0 -179 59.5t-68 156.5v343h192v-336q0 -27 15 -43t40 -16t40 16.5t15 42.5v336h192v-343q0 -97 -68 -156.5t-179 -59.5z" />
    <glyph glyph-name="ucircumflex.ss02" horiz-adv-x="578" 
d="M289 676l-43 -59h-166l120 172h177l120 -172h-166zM344 549h192v-343q0 -97 -68 -156.5t-179 -59.5t-179 59.5t-68 156.5v343h192v-336q0 -27 15 -43t40 -16t40 16.5t15 42.5v336z" />
    <glyph glyph-name="udieresis.ss02" horiz-adv-x="578" 
d="M156 595q-47 0 -77.5 31t-30.5 78q0 48 30.5 79t77.5 31t77.5 -31t30.5 -79q0 -47 -30.5 -78t-77.5 -31zM423 595q-48 0 -78.5 31t-30.5 78q0 48 30.5 79t78.5 31q47 0 77 -31t30 -79q0 -47 -30.5 -78t-76.5 -31zM289 -10q-111 0 -179 59.5t-68 156.5v343h192v-336
q0 -27 15 -43t40 -16t40 16.5t15 42.5v336h192v-343q0 -97 -68 -156.5t-179 -59.5z" />
    <glyph glyph-name="ugrave.ss02" horiz-adv-x="578" 
d="M247 617l-187 172h220l128 -172h-161zM289 -10q-111 0 -179 59.5t-68 156.5v343h192v-336q0 -27 15 -43t40 -16t40 16.5t15 42.5v336h192v-343q0 -97 -68 -156.5t-179 -59.5z" />
    <glyph glyph-name="uhungarumlaut.ss02" horiz-adv-x="578" 
d="M86 617l96 172h219l-154 -172h-161zM316 617l95 172h219l-153 -172h-161zM289 -10q-111 0 -179 59.5t-68 156.5v343h192v-336q0 -27 15 -43t40 -16t40 16.5t15 42.5v336h192v-343q0 -97 -68 -156.5t-179 -59.5z" />
    <glyph glyph-name="umacron.ss02" horiz-adv-x="578" 
d="M105 604v150h368v-150h-368zM289 -10q-111 0 -179 59.5t-68 156.5v343h192v-336q0 -27 15 -43t40 -16t40 16.5t15 42.5v336h192v-343q0 -97 -68 -156.5t-179 -59.5z" />
    <glyph glyph-name="uogonek.ss02" horiz-adv-x="578" 
d="M344 549h192v-343q0 -77 -44.5 -131.5t-120.5 -74.5q-67 -49 -67 -99q0 -24 23 -24q19 0 31 12l15 -91q-39 -28 -95 -28q-49 0 -79 27t-30 71q0 64 67 126q-89 14 -141.5 70.5t-52.5 141.5v343h192v-336q0 -27 15 -43t40 -16t40 16.5t15 42.5v336z" />
    <glyph glyph-name="uring.ss02" horiz-adv-x="578" 
d="M289 584q-53 0 -84.5 30.5t-31.5 80.5q0 49 31.5 79t84.5 30q52 0 83.5 -30t31.5 -79q0 -50 -31.5 -80.5t-83.5 -30.5zM289 667q21 0 21 28q0 11 -6 18.5t-15 7.5t-15.5 -7.5t-6.5 -18.5q0 -12 6.5 -20t15.5 -8zM289 -10q-111 0 -179 59.5t-68 156.5v343h192v-336
q0 -27 15 -43t40 -16t40 16.5t15 42.5v336h192v-343q0 -97 -68 -156.5t-179 -59.5z" />
    <glyph glyph-name="y.ss02" horiz-adv-x="585" 
d="M345 549h192v-769h-490v157h298v107q-53 -54 -124 -54q-80 0 -129 53.5t-49 141.5v364h192v-336q0 -27 15 -43t40 -16t40 16.5t15 42.5v336z" />
    <glyph glyph-name="yacute.ss02" horiz-adv-x="585" 
d="M519 789l-187 -172h-160l127 172h220zM345 549h192v-769h-490v157h298v107q-53 -54 -124 -54q-80 0 -129 53.5t-49 141.5v364h192v-336q0 -27 15 -43t40 -16t40 16.5t15 42.5v336z" />
    <glyph glyph-name="ycircumflex.ss02" horiz-adv-x="585" 
d="M290 676l-43 -59h-166l120 172h177l120 -172h-166zM345 549h192v-769h-490v157h298v107q-53 -54 -124 -54q-80 0 -129 53.5t-49 141.5v364h192v-336q0 -27 15 -43t40 -16t40 16.5t15 42.5v336z" />
    <glyph glyph-name="ydieresis.ss02" horiz-adv-x="585" 
d="M157 595q-47 0 -77.5 31t-30.5 78q0 48 30.5 79t77.5 31t77.5 -31t30.5 -79q0 -47 -30.5 -78t-77.5 -31zM424 595q-48 0 -78.5 31t-30.5 78q0 48 30.5 79t78.5 31q47 0 77 -31t30 -79q0 -47 -30.5 -78t-76.5 -31zM345 549h192v-769h-490v157h298v107q-53 -54 -124 -54
q-80 0 -129 53.5t-49 141.5v364h192v-336q0 -27 15 -43t40 -16t40 16.5t15 42.5v336z" />
    <glyph glyph-name="ygrave.ss02" horiz-adv-x="585" 
d="M409 617h-161l-187 172h220zM345 549h192v-769h-490v157h298v107q-53 -54 -124 -54q-80 0 -129 53.5t-49 141.5v364h192v-336q0 -27 15 -43t40 -16t40 16.5t15 42.5v336z" />
    <glyph glyph-name="z.ss02" horiz-adv-x="508" 
d="M25 0l179 392h-176v157h450l-180 -391h184v-158h-457z" />
    <glyph glyph-name="zacute.ss02" horiz-adv-x="508" 
d="M136 617l127 172h220l-187 -172h-160zM25 0l179 392h-176v157h450l-180 -391h184v-158h-457z" />
    <glyph glyph-name="zcaron.ss02" horiz-adv-x="508" 
d="M165 617l-120 172h166l43 -59l42 59h166l-120 -172h-177zM298 158h184v-158h-457l179 392h-176v157h450z" />
    <glyph glyph-name="zdotaccent.ss02" horiz-adv-x="508" 
d="M254 595q-47 0 -77.5 31t-30.5 78q0 48 30.5 79t77.5 31t77.5 -31t30.5 -79q0 -47 -30.5 -78t-77.5 -31zM25 0l179 392h-176v157h450l-180 -391h184v-158h-457z" />
    <glyph glyph-name="fi.ss01" horiz-adv-x="635" 
d="M492 595q-47 0 -78 31t-31 78q0 48 31 79t78 31t77.5 -31t30.5 -79q0 -47 -30.5 -78t-77.5 -31zM48 602q0 85 49 136.5t129 51.5q74 0 121 -22l-13 -148q-18 6 -42 6q-23 0 -37.5 -12.5t-14.5 -33.5v-31h87v-157h-87v-392h-192v602zM395 0v549h192v-549h-192z" />
    <glyph glyph-name="fl.ss01" horiz-adv-x="634" 
d="M48 602q0 85 49 136.5t129 51.5q74 0 121 -22l-13 -148q-18 6 -42 6q-23 0 -37.5 -12.5t-14.5 -33.5v-31h87v-157h-87v-392h-192v602zM395 780h192v-780h-192v780z" />
    <glyph glyph-name="fi.ss02" horiz-adv-x="687" 
d="M544 595q-47 0 -78 31t-31 78q0 48 31 79t78 31t77.5 -31t30.5 -79q0 -47 -30.5 -78t-77.5 -31zM102 549v231h292v-157h-100v-74h88v-157h-88v-392h-192v392h-74v157h74zM447 0v549h192v-549h-192z" />
    <glyph glyph-name="fl.ss02" horiz-adv-x="739" 
d="M102 549v231h292v-157h-100v-74h88v-157h-88v-392h-192v392h-74v157h74zM639 158h79v-158h-271v780h192v-622z" />
    <glyph glyph-name="zero.lf" horiz-adv-x="606" 
d="M303 -10q-124 0 -200 104.5t-76 275.5t76 275.5t200 104.5t199.5 -104.5t75.5 -275.5t-75.5 -275.5t-199.5 -104.5zM303 153q32 0 51.5 59.5t19.5 157.5t-19.5 157.5t-51.5 59.5t-52 -60t-20 -157t20 -157t52 -60z" />
    <glyph glyph-name="one.lf" horiz-adv-x="440" 
d="M180 0v476l-86 -62l-96 139l229 187h151v-740h-198z" />
    <glyph glyph-name="two.lf" horiz-adv-x="564" 
d="M33 0v124l210 256q79 99 79 155q0 22 -11 37t-28 15q-21 0 -33.5 -21t-12.5 -54l-196 17q0 100 66 160.5t173 60.5t172.5 -56t65.5 -147q0 -65 -33.5 -126.5t-110.5 -151.5l-94 -109l244 3v-163h-491z" />
    <glyph glyph-name="three.lf" horiz-adv-x="543" 
d="M338 465q80 -13 126.5 -74t46.5 -152q0 -113 -75 -181t-204 -68q-61 0 -120 18t-95 47l73 138q49 -40 120 -40q48 0 75 23.5t27 61.5t-24 59.5t-66 21.5q-39 0 -73 -23l-53 99l131 182h-173v163h410v-122z" />
    <glyph glyph-name="four.lf" horiz-adv-x="614" 
d="M300 0v128h-282v134l329 478h151v-448h82v-164h-82v-128h-198zM196 286h110l3 162z" />
    <glyph glyph-name="five.lf" horiz-adv-x="557" 
d="M222 -10q-132 0 -211 62l59 143q55 -42 134 -42q53 0 85.5 27.5t32.5 73.5q0 32 -17.5 51.5t-46.5 19.5q-55 0 -67 -32l-122 18l44 429h375v-163h-212l-13 -93q14 4 38 4q97 0 160.5 -61t63.5 -159q0 -125 -84.5 -201.5t-218.5 -76.5z" />
    <glyph glyph-name="six.lf" horiz-adv-x="560" 
d="M327 457q85 0 147.5 -63t62.5 -162q0 -108 -69.5 -175t-183.5 -67t-183.5 66t-69.5 173q0 72 21 130.5t67 129.5l169 251h221l-203 -283h21zM283 153q25 0 40.5 21t15.5 56t-15.5 56.5t-40.5 21.5t-40 -21.5t-15 -56.5t15 -56t40 -21z" />
    <glyph glyph-name="seven.lf" horiz-adv-x="520" 
d="M22 740h486l-209 -740h-208l170 577h-239v163z" />
    <glyph glyph-name="eight.lf" horiz-adv-x="575" 
d="M442 386q99 -57 99 -171q0 -101 -69.5 -163t-183.5 -62t-184 61t-70 161q0 116 100 173q-82 54 -82 153q0 95 65 153.5t171 58.5t170.5 -58t64.5 -152q0 -100 -81 -154zM287 587q-18 0 -29.5 -17t-11.5 -44q0 -28 11.5 -44.5t29.5 -16.5q19 0 30.5 16.5t11.5 44.5
q0 27 -11.5 44t-30.5 17zM287 153q26 0 41 20t15 54q0 33 -15.5 53.5t-40.5 20.5t-40 -20.5t-15 -53.5q0 -34 15 -54t40 -20z" />
    <glyph glyph-name="nine.lf" horiz-adv-x="560" 
d="M275 750q114 0 183.5 -66t69.5 -173q0 -72 -21 -130.5t-67 -129.5l-169 -251h-221l203 283h-21q-85 0 -147.5 63t-62.5 162q0 108 69.5 175t183.5 67zM220 510q0 -35 15.5 -56.5t40.5 -21.5t40 21.5t15 56.5t-15 56t-40 21t-40.5 -21t-15.5 -56z" />
    <glyph glyph-name="zero.osf" horiz-adv-x="656" 
d="M329 -10q-136 0 -219 92t-83 242q0 151 83 243t219 92q134 0 216.5 -92t82.5 -243q0 -150 -82.5 -242t-216.5 -92zM329 154q42 0 68 47t26 123q0 77 -26 124t-68 47q-43 0 -69.5 -47t-26.5 -124q0 -76 26.5 -123t69.5 -47z" />
    <glyph glyph-name="one.osf" horiz-adv-x="416" 
d="M162 0l2 387l-64 -45l-99 140l207 167h146v-649h-192z" />
    <glyph glyph-name="two.osf" horiz-adv-x="571" 
d="M36 0v120l248 252q45 47 45 80q0 20 -11.5 31.5t-31.5 11.5q-22 0 -35.5 -17t-13.5 -44l-193 19q0 93 66 149.5t173 56.5q108 0 173 -55t65 -145q0 -49 -19.5 -91.5t-43.5 -68.5t-71 -70l-75 -71h216v-158h-492z" />
    <glyph glyph-name="three.osf" horiz-adv-x="539" 
d="M337 369q78 -13 124 -74.5t46 -153.5q0 -114 -73.5 -182.5t-199.5 -68.5q-64 0 -123.5 17.5t-92.5 47.5l73 141q47 -42 116 -42q49 0 75.5 23.5t26.5 62.5t-24 61t-65 22q-38 0 -70 -23l-52 99l137 193h-180v157h410v-122z" />
    <glyph glyph-name="four.osf" horiz-adv-x="622" 
d="M314 -110v110h-288v120l337 529h143v-491h82v-158h-82v-110h-192zM201 152h118l2 190z" />
    <glyph glyph-name="five.osf" horiz-adv-x="550" 
d="M220 -110q-133 0 -211 61l60 144q56 -41 133 -41q52 0 84.5 28t32.5 74q0 33 -17.5 53t-47.5 20q-22 0 -39.5 -8.5t-22.5 -22.5l-126 18l45 433h375v-157h-212l-16 -104q10 5 41 5q94 0 156 -62t62 -161q0 -125 -83 -202.5t-214 -77.5z" />
    <glyph glyph-name="six.osf" horiz-adv-x="551" 
d="M321 457q92 0 148.5 -61.5t56.5 -163.5q0 -108 -68 -175t-179 -67q-112 0 -180 66t-68 173q0 60 18.5 112.5t65.5 127.5l185 271h207l-202 -283h16zM278 153q24 0 39 21.5t15 55.5q0 35 -15 56.5t-39 21.5q-25 0 -39.5 -21.5t-14.5 -56.5t14.5 -56t39.5 -21z" />
    <glyph glyph-name="seven.osf" horiz-adv-x="528" 
d="M23 649h486l-218 -763l-183 49l159 557h-244v157z" />
    <glyph glyph-name="eight.osf" horiz-adv-x="564" 
d="M433 386q97 -57 97 -171q0 -101 -68 -163t-180 -62q-111 0 -179.5 61t-68.5 161q0 116 98 173q-80 53 -80 153q0 95 63.5 153.5t166.5 58.5q104 0 167 -57.5t63 -152.5q0 -100 -79 -154zM282 587q-19 0 -30.5 -17t-11.5 -44q0 -28 11.5 -44.5t30.5 -16.5t30 16.5t11 44.5
q0 27 -11 44t-30 17zM282 153q25 0 40.5 20t15.5 54q0 33 -15.5 53.5t-40.5 20.5t-40.5 -20.5t-15.5 -53.5q0 -34 15 -54t41 -20z" />
    <glyph glyph-name="nine.osf" horiz-adv-x="541" 
d="M269 659q112 0 180 -66t68 -174q0 -58 -19 -112t-66 -127l-196 -294l-177 49l183 256h-15q-92 0 -149 62t-57 164q0 109 68.5 175.5t179.5 66.5zM215 418q0 -34 15 -56t38 -22q25 0 39.5 21.5t14.5 56.5t-14.5 56t-39.5 21q-23 0 -38 -21t-15 -56z" />
    <glyph glyph-name="one.ss02" horiz-adv-x="373" 
d="M113 0v577h-81v163h279v-740h-198z" />
    <glyph glyph-name="one.lf.ss02" horiz-adv-x="373" 
d="M113 0v577h-81v163h279v-740h-198z" />
    <glyph glyph-name="one.osf.ss02" horiz-adv-x="364" 
d="M111 0v492h-77v157h269v-649h-192z" />
    <glyph glyph-name="one.tf.ss02" 
d="M407 163h111v-163h-478v163h169v414h-108v163h306v-577z" />
    <glyph glyph-name="one.tosf.ss02" 
d="M389 158h132v-158h-478v158h154v334h-104v157h296v-491z" />
    <glyph glyph-name="zero.tf" 
d="M277 -10q-114 0 -184.5 104.5t-70.5 275.5t70.5 275.5t184.5 104.5t184 -104.5t70 -275.5t-70 -275.5t-184 -104.5zM277 153q23 0 37 59.5t14 157.5t-14 157.5t-37 59.5t-37 -60t-14 -157t14 -157t37 -60z" />
    <glyph glyph-name="one.tf" 
d="M414 163h112v-163h-478v163h169v313l-86 -62l-97 139l230 187h150v-577z" />
    <glyph glyph-name="two.tf" 
d="M27 0v124l211 256q79 99 79 155q0 22 -11 37t-28 15q-21 0 -34 -21t-13 -54l-196 17q0 100 66 160.5t174 60.5q107 0 172 -56t65 -147q0 -65 -33 -127t-110 -151l-94 -109l244 3v-163h-492z" />
    <glyph glyph-name="three.tf" 
d="M342 465q80 -13 127 -74t47 -152q0 -113 -75 -181t-204 -68q-63 0 -122 18t-93 47l73 138q49 -40 120 -40q48 0 74.5 23.5t26.5 61.5t-24.5 59.5t-66.5 21.5q-39 0 -71 -23l-53 99l131 182h-173v163h409v-122z" />
    <glyph glyph-name="four.tf" 
d="M259 0v128h-261v134l307 478h152v-448h81v-164h-81v-128h-198zM171 287h94l3 158z" />
    <glyph glyph-name="five.tf" 
d="M220 -10q-132 0 -211 62l59 143q55 -42 134 -42q53 0 85.5 27.5t32.5 73.5q0 32 -17.5 51.5t-46.5 19.5q-55 0 -67 -32l-122 18l44 429h375v-163h-212l-13 -93q14 4 38 4q97 0 160.5 -61t63.5 -159q0 -125 -84.5 -201.5t-218.5 -76.5z" />
    <glyph glyph-name="six.tf" 
d="M324 457q85 0 147.5 -63t62.5 -162q0 -108 -69.5 -175t-183.5 -67t-183.5 66t-69.5 173q0 71 21 129.5t67 130.5l170 251h220l-203 -283h21zM280 153q25 0 40.5 21t15.5 56t-15.5 56.5t-40.5 21.5t-40 -21.5t-15 -56.5t15 -56t40 -21z" />
    <glyph glyph-name="seven.tf" 
d="M38 740h486l-209 -740h-208l170 577h-239v163z" />
    <glyph glyph-name="eight.tf" 
d="M431 386q99 -57 99 -171q0 -101 -70 -163t-183 -62q-114 0 -184 61t-70 161q0 116 99 173q-81 54 -81 153q0 95 65 153.5t171 58.5t170.5 -58t64.5 -152q0 -100 -81 -154zM276 587q-19 0 -30 -17t-11 -44q0 -28 11 -44.5t30 -16.5t30.5 16.5t11.5 44.5q0 27 -11.5 44
t-30.5 17zM276 153q26 0 41 20t15 54q0 33 -15.5 53.5t-40.5 20.5t-40.5 -20.5t-15.5 -53.5q0 -34 15.5 -54t40.5 -20z" />
    <glyph glyph-name="nine.tf" 
d="M272 750q114 0 183.5 -66t69.5 -173q0 -72 -21 -130.5t-67 -129.5l-169 -251h-221l203 283h-21q-85 0 -147.5 63t-62.5 162q0 108 69.5 175t183.5 67zM217 510q0 -35 15.5 -56.5t40.5 -21.5t40 21.5t15 56.5t-15 56t-40 21t-40.5 -21t-15.5 -56z" />
    <glyph glyph-name="zero.tosf" 
d="M277 -10q-115 0 -185.5 92t-70.5 242q0 151 70.5 243t185.5 92t185 -92t70 -243q0 -150 -70 -242t-185 -92zM277 154q23 0 37 47t14 123q0 77 -14 124t-37 47t-37.5 -47.5t-14.5 -123.5q0 -75 14.5 -122.5t37.5 -47.5z" />
    <glyph glyph-name="one.tosf" 
d="M391 158h136v-158h-478v158h151l1 229l-64 -45l-99 140l207 167h146v-491z" />
    <glyph glyph-name="two.tosf" 
d="M27 0v120l248 252q45 45 45 80q0 19 -11.5 31t-30.5 12q-23 0 -36.5 -17t-13.5 -44l-193 19q0 93 66 149.5t174 56.5q107 0 172 -55t65 -145q0 -49 -19.5 -91.5t-43 -68.5t-70.5 -70l-74 -71h214v-158h-492z" />
    <glyph glyph-name="three.tosf" 
d="M344 369q78 -13 124 -74.5t46 -153.5q0 -114 -73.5 -182.5t-199.5 -68.5q-64 0 -123.5 17.5t-92.5 47.5l73 141q47 -42 116 -42q49 0 75.5 23.5t26.5 62.5t-24 61t-65 22q-38 0 -70 -23l-52 99l137 193h-180v157h410v-122z" />
    <glyph glyph-name="four.tosf" 
d="M269 -110v110h-267v120l315 529h144v-491h81v-158h-81v-110h-192zM181 152h92l3 171z" />
    <glyph glyph-name="five.tosf" 
d="M222 -110q-133 0 -211 61l60 144q56 -41 133 -41q52 0 84.5 28t32.5 74q0 33 -17.5 53t-47.5 20q-22 0 -39.5 -8.5t-22.5 -22.5l-126 18l45 433h375v-157h-212l-16 -104q10 5 41 5q94 0 156 -62t62 -161q0 -125 -83 -202.5t-214 -77.5z" />
    <glyph glyph-name="six.tosf" 
d="M322 457q92 0 148.5 -61.5t56.5 -163.5q0 -108 -68.5 -175t-179.5 -67t-179.5 66t-68.5 173q0 59 18.5 111.5t65.5 128.5l186 271h207l-202 -283h16zM278 153q25 0 40 21t15 56t-15 56.5t-40 21.5q-24 0 -38.5 -21.5t-14.5 -56.5t14.5 -56t38.5 -21z" />
    <glyph glyph-name="seven.tosf" 
d="M35 649h486l-218 -763l-184 49l154 557h-238v157z" />
    <glyph glyph-name="eight.tosf" 
d="M427 386q97 -57 97 -171q0 -101 -68 -163t-179 -62q-112 0 -180 61t-68 161q0 116 97 173q-79 54 -79 153q0 95 63.5 153.5t166.5 58.5t166 -57.5t63 -152.5q0 -100 -79 -154zM276 587q-19 0 -30 -17t-11 -44q0 -28 11 -44.5t30 -16.5t30.5 16.5t11.5 44.5q0 27 -11.5 44
t-30.5 17zM276 153q26 0 41 20t15 54q0 33 -15.5 53.5t-40.5 20.5t-40.5 -20.5t-15.5 -53.5q0 -34 15.5 -54t40.5 -20z" />
    <glyph glyph-name="nine.tosf" 
d="M276 659q112 0 179.5 -66t67.5 -174q0 -58 -19 -112.5t-66 -126.5l-196 -294l-177 49l184 256h-16q-92 0 -148.5 62t-56.5 164q0 109 68 175.5t180 66.5zM221 418q0 -35 15 -56.5t39 -21.5t38.5 21.5t14.5 56.5t-14.5 56t-38.5 21t-39 -21t-15 -56z" />
    <glyph glyph-name="zero.dnom" horiz-adv-x="367" 
d="M185 -6q-76 0 -121 62.5t-45 165.5t45 165.5t121 62.5q72 0 117.5 -63t45.5 -165t-45.5 -165t-117.5 -63zM185 91q19 0 31 36.5t12 94.5q0 59 -12 95t-31 36q-20 0 -32.5 -36.5t-12.5 -94.5t12.5 -94.5t32.5 -36.5z" />
    <glyph glyph-name="one.dnom" horiz-adv-x="268" 
d="M109 0v288l-52 -40l-58 84l137 112h91v-444h-118z" />
    <glyph glyph-name="two.dnom" horiz-adv-x="345" 
d="M23 0v75l126 158q46 59 46 91q0 29 -22 29q-26 0 -26 -41l-119 11q0 57 39.5 92t103.5 35t103 -33t39 -86q0 -38 -20.5 -76.5t-67.5 -93.5l-56 -65l149 1v-97h-295z" />
    <glyph glyph-name="three.dnom" horiz-adv-x="332" 
d="M205 279q48 -8 76 -44.5t28 -91.5q0 -67 -45.5 -108t-122.5 -41q-83 0 -129 39l44 83q31 -25 69 -25q29 0 45 14.5t16 37.5t-14 36t-38 13q-22 0 -43 -13l-32 59l81 109h-105v97h246v-73z" />
    <glyph glyph-name="four.dnom" horiz-adv-x="371" 
d="M181 0v76h-171v81l199 287h90v-268h49v-100h-49v-76h-118zM115 172h69l1 99z" />
    <glyph glyph-name="five.dnom" horiz-adv-x="338" 
d="M134 -6q-83 0 -126 37l35 85q31 -25 78 -25q32 0 52.5 17t20.5 45q0 19 -10.5 31t-28.5 12q-29 0 -39 -19l-74 10l28 257h223v-97h-126l-7 -57q6 3 21 3q59 0 96.5 -36.5t37.5 -95.5q0 -75 -50.5 -121t-130.5 -46z" />
    <glyph glyph-name="six.dnom" horiz-adv-x="340" 
d="M199 275q50 0 88 -38.5t38 -97.5q0 -65 -42 -105t-110 -40t-110 39.5t-42 104.5q0 72 55 158l99 148h131l-120 -169h13zM173 91q14 0 24 13.5t10 34.5t-9.5 33.5t-24.5 12.5q-14 0 -23.5 -12.5t-9.5 -33.5t9.5 -34.5t23.5 -13.5z" />
    <glyph glyph-name="seven.dnom" horiz-adv-x="307" 
d="M13 444h292l-126 -444h-124l102 347h-144v97z" />
    <glyph glyph-name="eight.dnom" horiz-adv-x="352" 
d="M269 231q59 -33 59 -102q0 -61 -42 -98t-110 -37t-110 37t-42 96q0 69 60 104q-49 32 -49 92q0 58 38.5 92.5t102.5 34.5t103 -35t39 -91q0 -60 -49 -93zM176 353q-10 0 -17 -11t-7 -27q0 -36 24 -36q25 0 25 36q0 38 -25 38zM176 91q15 0 24.5 12.5t9.5 32.5
q0 21 -9.5 33.5t-24.5 12.5q-14 0 -23.5 -12.5t-9.5 -33.5q0 -19 9.5 -32t23.5 -13z" />
    <glyph glyph-name="nine.dnom" horiz-adv-x="340" 
d="M167 450q68 0 110 -39.5t42 -104.5q0 -72 -55 -158l-99 -148h-131l120 169h-13q-50 0 -88 38.5t-38 97.5q0 65 42 105t110 40zM133 305q0 -21 9.5 -33.5t24.5 -12.5q14 0 23.5 12.5t9.5 33.5t-9.5 34.5t-23.5 13.5t-24 -13.5t-10 -34.5z" />
    <glyph glyph-name="zero.numr" horiz-adv-x="367" 
d="M185 290q-76 0 -121 62.5t-45 165.5t45 165.5t121 62.5q72 0 117.5 -63t45.5 -165t-45.5 -165t-117.5 -63zM185 387q19 0 31 36.5t12 94.5q0 59 -12 95t-31 36q-20 0 -32.5 -36.5t-12.5 -94.5t12.5 -94.5t32.5 -36.5z" />
    <glyph glyph-name="one.numr" horiz-adv-x="268" 
d="M109 296v288l-52 -40l-58 84l137 112h91v-444h-118z" />
    <glyph glyph-name="two.numr" horiz-adv-x="345" 
d="M23 296v75l126 158q46 59 46 91q0 29 -22 29q-26 0 -26 -41l-119 11q0 57 39.5 92t103.5 35t103 -33t39 -86q0 -38 -20.5 -76.5t-67.5 -93.5l-56 -65l149 1v-97h-295z" />
    <glyph glyph-name="three.numr" horiz-adv-x="332" 
d="M205 575q48 -8 76 -44.5t28 -91.5q0 -67 -45.5 -108t-122.5 -41q-83 0 -129 39l44 83q31 -25 69 -25q29 0 45 14.5t16 37.5t-14 36t-38 13q-22 0 -43 -13l-32 59l81 109h-105v97h246v-73z" />
    <glyph glyph-name="four.numr" horiz-adv-x="371" 
d="M181 296v76h-171v81l199 287h90v-268h49v-100h-49v-76h-118zM115 468h69l1 99z" />
    <glyph glyph-name="five.numr" horiz-adv-x="338" 
d="M134 290q-83 0 -126 37l35 85q31 -25 78 -25q32 0 52.5 17t20.5 45q0 19 -10.5 31t-28.5 12q-29 0 -39 -19l-74 10l28 257h223v-97h-126l-7 -57q6 3 21 3q59 0 96.5 -36.5t37.5 -95.5q0 -75 -50.5 -121t-130.5 -46z" />
    <glyph glyph-name="six.numr" horiz-adv-x="340" 
d="M199 571q50 0 88 -38.5t38 -97.5q0 -65 -42 -105t-110 -40t-110 39.5t-42 104.5q0 72 55 158l99 148h131l-120 -169h13zM173 387q14 0 24 13.5t10 34.5t-9.5 33.5t-24.5 12.5q-14 0 -23.5 -12.5t-9.5 -33.5t9.5 -34.5t23.5 -13.5z" />
    <glyph glyph-name="seven.numr" horiz-adv-x="307" 
d="M13 740h292l-126 -444h-124l102 347h-144v97z" />
    <glyph glyph-name="eight.numr" horiz-adv-x="352" 
d="M269 527q59 -33 59 -102q0 -61 -42 -98t-110 -37t-110 37t-42 96q0 69 60 104q-49 32 -49 92q0 58 38.5 92.5t102.5 34.5t103 -35t39 -91q0 -60 -49 -93zM176 649q-10 0 -17 -11t-7 -27q0 -36 24 -36q25 0 25 36q0 38 -25 38zM176 387q15 0 24.5 12.5t9.5 32.5
q0 21 -9.5 33.5t-24.5 12.5q-14 0 -23.5 -12.5t-9.5 -33.5q0 -19 9.5 -32t23.5 -13z" />
    <glyph glyph-name="nine.numr" horiz-adv-x="340" 
d="M167 746q68 0 110 -39.5t42 -104.5q0 -72 -55 -158l-99 -148h-131l120 169h-13q-50 0 -88 38.5t-38 97.5q0 65 42 105t110 40zM133 601q0 -21 9.5 -33.5t24.5 -12.5q14 0 23.5 12.5t9.5 33.5t-9.5 34.5t-23.5 13.5t-24 -13.5t-10 -34.5z" />
    <glyph glyph-name="oneinferior.ss02" horiz-adv-x="230" 
d="M71 -100v347h-50v97h168v-444h-118z" />
    <glyph glyph-name="one.dnom.ss02" horiz-adv-x="230" 
d="M71 0v347h-50v97h168v-444h-118z" />
    <glyph glyph-name="one.numr.ss02" horiz-adv-x="230" 
d="M71 296v347h-50v97h168v-444h-118z" />
    <glyph glyph-name="onesuperior.ss02" horiz-adv-x="230" 
d="M71 396v347h-50v97h168v-444h-118z" />
    <glyph glyph-name="onehalf.ss02" horiz-adv-x="804" 
d="M210 -10l-97 60l366 700l97 -59zM71 296v347h-50v97h168v-444h-118zM483 0v75l126 158q46 59 46 91q0 29 -22 29q-26 0 -26 -41l-119 11q0 57 39.5 92t103.5 35t103 -33t39 -86q0 -38 -20.5 -76.5t-67.5 -93.5l-56 -65l149 1v-97h-295z" />
    <glyph glyph-name="onequarter.ss02" horiz-adv-x="791" 
d="M210 -10l-97 60l366 700l97 -59zM71 296v347h-50v97h168v-444h-118zM601 0v76h-171v81l199 287h90v-268h49v-100h-49v-76h-118zM535 172h69l1 99z" />
    <glyph glyph-name="oneeighth.ss02" horiz-adv-x="812" 
d="M479 750l97 -59l-366 -701l-97 60zM189 296h-118v347h-50v97h168v-444zM729 231q59 -33 59 -102q0 -61 -42 -98t-110 -37t-110 37t-42 96q0 69 60 104q-49 32 -49 92q0 58 38.5 92.5t102.5 34.5t103 -35t39 -91q0 -60 -49 -93zM636 353q-10 0 -17 -11t-7 -27
q0 -36 24 -36q25 0 25 36q0 38 -25 38zM636 91q15 0 24.5 12.5t9.5 32.5q0 21 -9.5 33.5t-24.5 12.5q-14 0 -23.5 -12.5t-9.5 -33.5q0 -19 9.5 -32t23.5 -13z" />
    <glyph glyph-name="exclamdown.case" horiz-adv-x="304" 
d="M152 750q47 0 77.5 -31t30.5 -79t-30.5 -78.5t-77.5 -30.5t-77.5 30.5t-30.5 78.5t30.5 79t77.5 31zM71 477h163l17 -477h-199z" />
    <glyph glyph-name="questiondown.case" horiz-adv-x="527" 
d="M266 750q47 0 78 -31t31 -79t-31 -78.5t-78 -30.5t-77.5 30.5t-30.5 78.5t30.5 79t77.5 31zM348 477q0 -76 -21.5 -121t-58.5 -84q-39 -42 -39 -74q0 -20 12 -32.5t32 -12.5q18 0 31.5 12.5t17.5 32.5l178 -8q-5 -91 -67.5 -145.5t-159.5 -54.5q-110 0 -177 55.5
t-67 146.5q0 36 13.5 67t28 47.5t41.5 42.5q72 66 72 128h164z" />
    <glyph glyph-name="slash.case" horiz-adv-x="428" 
d="M28 0l181 740h192l-180 -740h-193z" />
    <glyph glyph-name="braceleft.case" horiz-adv-x="426" 
d="M270 -50q-80 0 -128 47.5t-48 126.5v115q0 23 -16 36t-43 13h-3v164h3q26 0 42.5 13.5t16.5 35.5v115q0 79 48 126.5t128 47.5q61 0 116 -13v-154q-18 4 -37 4q-26 0 -41.5 -19t-15.5 -51v-79q0 -39 -23.5 -68.5t-61.5 -39.5q38 -10 61.5 -39t23.5 -68v-80
q0 -32 15.5 -51t41.5 -19q19 0 37 4v-154q-55 -13 -116 -13z" />
    <glyph glyph-name="braceright.case" horiz-adv-x="426" 
d="M156 -50q-61 0 -116 13v154q18 -4 36 -4q26 0 42 19t16 51v80q0 39 23 68t61 39q-38 10 -61 39.5t-23 68.5v79q0 32 -16 51t-42 19q-18 0 -36 -4v154q55 13 116 13q80 0 128 -47.5t48 -126.5v-115q0 -22 16 -35.5t43 -13.5h3v-164h-3q-27 0 -43 -13t-16 -36v-115
q0 -79 -48 -126.5t-128 -47.5z" />
    <glyph glyph-name="bracketleft.case" horiz-adv-x="409" 
d="M62 -40v820h306v-164h-106v-492h106v-164h-306z" />
    <glyph glyph-name="bracketright.case" horiz-adv-x="409" 
d="M347 -40h-306v164h106v492h-106v164h306v-820z" />
    <glyph glyph-name="parenleft.case" horiz-adv-x="365" 
d="M168 -40q-134 194 -134 410t134 410h178q-42 -65 -78 -179t-36 -231t36 -231t78 -179h-178z" />
    <glyph glyph-name="parenright.case" horiz-adv-x="366" 
d="M19 -40q42 66 79 179.5t37 230.5t-37 230.5t-79 179.5h179q133 -196 133 -410t-133 -410h-179z" />
    <glyph glyph-name="logo" horiz-adv-x="1274" 
d="M76 -10q-17 0 -17 18q0 10 5 15l342 341h-324q-23 0 -23 19q0 7 7 16l340 342h-327q-20 0 -20 19v1q0 19 20 19h370q23 0 23 -20q0 -10 -8 -17l-341 -340h330q8 0 14 -6t6 -14v-327l339 338q7 8 17 8q18 0 18 -22v-324l340 338q6 8 16 8q7 0 12 -5.5t5 -13.5q0 -9 -6 -14
l-368 -372q-7 -7 -17 -7q-20 0 -20 23v324l-339 -340q-7 -7 -17 -7q-20 0 -20 23v324l-340 -340q-7 -7 -17 -7z" />
    </font>
</defs>
</svg>
